<svg width="32" height="32" viewBox="0 0 32 32" fill="none" xmlns="http://www.w3.org/2000/svg">
<g clip-path="url(#clip0)">
<path d="M14.55 21C15.3 21 15.96 20.59 16.3 19.97L19.88 13.48C20.25 12.82 19.77 12 19.01 12H4.21L3.27 10H0V12H2L5.6 19.59L4.25 22.03C3.52 23.37 4.48 25 6 25H18V23H6L7.1 21H14.55ZM5.16 14H17.31L14.55 19H7.53L5.16 14ZM6 26C4.9 26 4.01 26.9 4.01 28C4.01 29.1 4.9 30 6 30C7.1 30 8 29.1 8 28C8 26.9 7.1 26 6 26ZM16 26C14.9 26 14.01 26.9 14.01 28C14.01 29.1 14.9 30 16 30C17.1 30 18 29.1 18 28C18 26.9 17.1 26 16 26Z" fill="#1678A2"/>
<rect x="8" y="3" width="24" height="14" rx="7" fill="#F36C21"/>
<path d="M10.7 11.5V10.65L13.15 6H14.15L11.7 10.65H14.35V8.85H14.4H15.25V10.65H16.3V11.5H15.25V13H14.35V11.5H10.7ZM16.8523 11.5V10.65L19.3023 6H20.3023L17.8523 10.65H20.5023V8.85H20.5523H21.4023V10.65H22.4523V11.5H21.4023V13H20.5023V11.5H16.8523ZM23.002 11.1H23.902C23.962 11.3467 24.0653 11.5567 24.212 11.73C24.5453 12.1433 25.0253 12.35 25.652 12.35C26.1653 12.35 26.5753 12.2067 26.882 11.92C27.1953 11.6333 27.352 11.26 27.352 10.8C27.352 10.34 27.1953 9.96667 26.882 9.68C26.5753 9.39333 26.1653 9.25 25.652 9.25C25.192 9.25 24.7953 9.37667 24.462 9.63C24.322 9.73 24.202 9.85333 24.102 10H23.302L23.602 6H27.752V6.85H24.352L24.202 8.89V8.9C24.3153 8.8 24.442 8.71667 24.582 8.65C24.9553 8.48333 25.3453 8.4 25.752 8.4C26.472 8.4 27.0686 8.63 27.542 9.09C28.0153 9.55 28.252 10.12 28.252 10.8C28.252 11.4867 28.0086 12.06 27.522 12.52C27.042 12.9733 26.4186 13.2 25.652 13.2C24.6653 13.2 23.9286 12.85 23.442 12.15C23.2153 11.8367 23.0686 11.4867 23.002 11.1Z" fill="white"/>
</g>
<defs>
<clipPath id="clip0">
<rect width="32" height="32" fill="white"/>
</clipPath>
</defs>
</svg>
