<svg width="28" height="28" viewBox="0 0 28 28" fill="none" xmlns="http://www.w3.org/2000/svg">
<path d="M19.7335 15.3333C20.7335 15.3333 21.6135 14.7866 22.0668 13.96L26.8402 5.30663C27.3335 4.42663 26.6935 3.33329 25.6802 3.33329H5.94683L4.6935 0.666626H0.333496V3.33329H3.00016L7.80016 13.4533L6.00016 16.7066C5.02683 18.4933 6.30683 20.6666 8.3335 20.6666H24.3335V18H8.3335L9.80016 15.3333H19.7335ZM7.2135 5.99996H23.4135L19.7335 12.6666H10.3735L7.2135 5.99996ZM8.3335 22C6.86683 22 5.68016 23.2 5.68016 24.6666C5.68016 26.1333 6.86683 27.3333 8.3335 27.3333C9.80016 27.3333 11.0002 26.1333 11.0002 24.6666C11.0002 23.2 9.80016 22 8.3335 22ZM21.6668 22C20.2002 22 19.0135 23.2 19.0135 24.6666C19.0135 26.1333 20.2002 27.3333 21.6668 27.3333C23.1335 27.3333 24.3335 26.1333 24.3335 24.6666C24.3335 23.2 23.1335 22 21.6668 22Z" fill="#1678A2"/>
</svg>
