<svg width="30" height="20" viewBox="0 0 30 20" fill="none" xmlns="http://www.w3.org/2000/svg">
<path d="M21.6668 0.666626H3.00016C1.5335 0.666626 0.333496 1.85329 0.333496 3.33329V15.3333H3.00016C3.00016 17.5466 4.78683 19.3333 7.00016 19.3333C9.2135 19.3333 11.0002 17.5466 11.0002 15.3333H19.0002C19.0002 17.5466 20.7868 19.3333 23.0002 19.3333C25.2135 19.3333 27.0002 17.5466 27.0002 15.3333H29.6668V8.66663L21.6668 0.666626ZM19.0002 3.33329H20.3335L24.3335 7.33329H19.0002V3.33329ZM11.0002 3.33329H16.3335V7.33329H11.0002V3.33329ZM3.00016 3.33329H8.3335V7.33329H3.00016V3.33329ZM7.00016 17C6.08016 17 5.3335 16.2533 5.3335 15.3333C5.3335 14.4133 6.08016 13.6666 7.00016 13.6666C7.92016 13.6666 8.66683 14.4133 8.66683 15.3333C8.66683 16.2533 7.92016 17 7.00016 17ZM23.0002 17C22.0802 17 21.3335 16.2533 21.3335 15.3333C21.3335 14.4133 22.0802 13.6666 23.0002 13.6666C23.9202 13.6666 24.6668 14.4133 24.6668 15.3333C24.6668 16.2533 23.9202 17 23.0002 17ZM27.0002 12.6666H25.9602C25.2268 11.8533 24.1735 11.3333 23.0002 11.3333C21.8268 11.3333 20.7735 11.8533 20.0402 12.6666H9.96016C9.22683 11.8533 8.18683 11.3333 7.00016 11.3333C5.8135 11.3333 4.7735 11.8533 4.04016 12.6666H3.00016V9.99996H27.0002V12.6666Z" fill="#1678A2"/>
</svg>
