<svg width="26" height="23" viewBox="0 0 26 23" fill="none" xmlns="http://www.w3.org/2000/svg">
<path d="M10.6667 11C13.6133 11 16 8.61337 16 5.66671C16 2.72004 13.6133 0.333374 10.6667 0.333374C7.72 0.333374 5.33333 2.72004 5.33333 5.66671C5.33333 8.61337 7.72 11 10.6667 11ZM10.6667 3.00004C12.1333 3.00004 13.3333 4.20004 13.3333 5.66671C13.3333 7.13337 12.1333 8.33337 10.6667 8.33337C9.2 8.33337 8 7.13337 8 5.66671C8 4.20004 9.2 3.00004 10.6667 3.00004ZM9.33333 19H2.66667C2.93333 18.16 6.06667 16.7734 9.24 16.4134H9.28L9.89333 15.8134L12 13.7467C11.48 13.6934 11.0933 13.6667 10.6667 13.6667C7.10667 13.6667 0 15.4534 0 19V21.6667H12L9.33333 19ZM23.4667 11.6667L16.6267 18.56L13.8667 15.7867L12 17.6667L16.6267 22.3334L25.3333 13.5467L23.4667 11.6667Z" fill="#1678A2"/>
</svg>
