<svg width="22" height="28" viewBox="0 0 22 28" fill="none" xmlns="http://www.w3.org/2000/svg">
<path d="M11.0002 0.666626C16.6002 0.666626 21.6668 4.95996 21.6668 11.6C21.6668 16.0266 18.1068 21.2666 11.0002 27.3333C3.8935 21.2666 0.333496 16.0266 0.333496 11.6C0.333496 4.95996 5.40016 0.666626 11.0002 0.666626ZM19.0002 11.6C19.0002 6.75996 15.4668 3.33329 11.0002 3.33329C6.5335 3.33329 3.00016 6.75996 3.00016 11.6C3.00016 14.72 5.60016 18.8533 11.0002 23.7866C16.4002 18.8533 19.0002 14.72 19.0002 11.6ZM11.0002 14C9.5335 14 8.3335 12.8 8.3335 11.3333C8.3335 9.86663 9.5335 8.66663 11.0002 8.66663C12.4668 8.66663 13.6668 9.86663 13.6668 11.3333C13.6668 12.8 12.4668 14 11.0002 14Z" fill="#1678A2"/>
</svg>
