<svg width="16" height="14" viewBox="0 0 16 14" fill="none" xmlns="http://www.w3.org/2000/svg">
<path d="M7.02901 0.375H7.73199C7.77599 0.375 7.817 0.3911 7.847 0.41977C7.878 0.44844 7.895 0.48732 7.895 0.52786V13.4721C7.895 13.5127 7.878 13.5516 7.847 13.5802C7.817 13.6089 7.77599 13.625 7.73199 13.625H7.02901C6.10501 13.625 5.191 13.4536 4.338 13.1205C3.485 12.7875 2.71001 12.2993 2.05701 11.6839C1.40501 11.0686 0.886997 10.3381 0.533997 9.5341C0.180997 8.7302 0 7.8685 0 6.9985C0 5.2418 0.741006 3.55711 2.05901 2.31497C3.37701 1.07283 5.16401 0.375 7.02901 0.375Z" fill="#A6A6A6"/>
<path d="M15.42 0.376953H9.83101C9.74001 0.376953 9.66602 0.446763 9.66602 0.532873V6.0206C9.66602 6.1067 9.74001 6.1765 9.83101 6.1765H15.42C15.511 6.1765 15.585 6.1067 15.585 6.0206V0.532873C15.585 0.446763 15.511 0.376953 15.42 0.376953Z" fill="#A6A6A6"/>
<path d="M15.42 7.77637H9.83101C9.74001 7.77637 9.66602 7.84617 9.66602 7.93227V13.4643C9.66602 13.5504 9.74001 13.6202 9.83101 13.6202H15.42C15.511 13.6202 15.585 13.5504 15.585 13.4643V7.93227C15.585 7.84617 15.511 7.77637 15.42 7.77637Z" fill="#A6A6A6"/>
</svg>
