<svg width="32" height="32" viewBox="0 0 32 32" fill="none" xmlns="http://www.w3.org/2000/svg">
<path d="M13.728 14.372C13.728 12.3396 14.6618 10.5291 16.116 9.36239C15.0526 8.50922 13.7105 7.99999 12.252 7.99999C8.79902 7.99999 6 10.8528 6 14.372C6 17.8912 8.79902 20.744 12.252 20.744C13.7105 20.744 15.0526 20.2348 16.116 19.3816C14.6618 18.2149 13.728 16.4045 13.728 14.372Z" fill="#CCCCCC"/>
<path d="M26.2324 14.372C26.2324 17.8912 23.4333 20.744 19.9804 20.744C18.5218 20.744 17.1798 20.2348 16.116 19.3816C17.5705 18.2149 18.5043 16.4045 18.5043 14.372C18.5043 12.3396 17.5705 10.5291 16.116 9.36239C17.1798 8.50922 18.5218 7.99999 19.9804 7.99999C23.4333 7.99999 26.2324 10.8528 26.2324 14.372Z" fill="#CCCCCC"/>
<path d="M20.7027 22.2125C20.7754 22.2125 20.88 22.2267 20.9599 22.2587L20.8486 22.6055C20.7723 22.5734 20.6959 22.5629 20.6228 22.5629C20.3866 22.5629 20.2686 22.7185 20.2686 22.998V23.9468H19.9072V22.255H20.265V22.4604C20.3588 22.3117 20.4944 22.2125 20.7027 22.2125Z" fill="#CCCCCC"/>
<path d="M19.3674 22.5912H18.7771V23.3557C18.7771 23.5254 18.8359 23.6388 19.0168 23.6388C19.1106 23.6388 19.2287 23.6068 19.336 23.5432L19.4402 23.858C19.3257 23.9394 19.1452 23.9893 18.989 23.9893C18.5616 23.9893 18.4125 23.7555 18.4125 23.3625V22.5912H18.0754V22.255H18.4125V21.7417H18.7771V22.255H19.3674V22.5912Z" fill="#CCCCCC"/>
<path fill-rule="evenodd" clip-rule="evenodd" d="M15.1927 22.2126C15.6582 22.2126 15.9778 22.5736 15.9814 23.1011C15.9814 23.1501 15.9779 23.1955 15.9743 23.2413L14.7415 23.2424C14.7936 23.5467 15.0054 23.6565 15.238 23.6565C15.4046 23.6565 15.5819 23.5929 15.7206 23.4794L15.8979 23.7521C15.6964 23.9255 15.4674 23.9891 15.2173 23.9891C14.7204 23.9891 14.3662 23.6386 14.3662 23.1011C14.3662 22.5736 14.7065 22.2126 15.1927 22.2126ZM15.186 22.5416C14.9288 22.5416 14.7833 22.7081 14.7447 22.9524H15.6062C15.568 22.6903 15.4186 22.5416 15.186 22.5416Z" fill="#CCCCCC"/>
<path d="M17.5683 22.6868C17.4678 22.6228 17.263 22.5414 17.0512 22.5414C16.8532 22.5414 16.7351 22.6159 16.7351 22.7399C16.7351 22.8529 16.8599 22.8849 17.0162 22.906L17.1863 22.9307C17.5477 22.9842 17.7663 23.1397 17.7663 23.4371C17.7663 23.7592 17.4884 23.9893 17.0094 23.9893C16.7383 23.9893 16.4883 23.9184 16.2903 23.7697L16.4604 23.4829C16.5821 23.5785 16.7629 23.6599 17.013 23.6599C17.2595 23.6599 17.3914 23.5858 17.3914 23.4545C17.3914 23.3593 17.2976 23.3058 17.0997 23.2779L16.9295 23.2532C16.5578 23.1997 16.3563 23.03 16.3563 22.7541C16.3563 22.4178 16.6274 22.2124 17.0476 22.2124C17.3115 22.2124 17.5513 22.2728 17.7246 22.3895L17.5683 22.6868Z" fill="#CCCCCC"/>
<path fill-rule="evenodd" clip-rule="evenodd" d="M22.3804 22.2811C22.2707 22.2353 22.1515 22.2126 22.0227 22.2126C21.8939 22.2126 21.7746 22.2353 21.6649 22.2811C21.5552 22.3265 21.4609 22.3893 21.3814 22.4691C21.3019 22.5489 21.2395 22.6433 21.1942 22.7519C21.1489 22.8608 21.1262 22.9791 21.1262 23.1067C21.1262 23.2343 21.1489 23.3526 21.1942 23.4616C21.2395 23.5702 21.3019 23.665 21.3814 23.7448C21.4609 23.8246 21.5552 23.887 21.6649 23.9328C21.7746 23.9781 21.8939 24.0008 22.0227 24.0008C22.1515 24.0008 22.2707 23.9781 22.3804 23.9328C22.4902 23.887 22.5852 23.8246 22.6651 23.7448C22.7454 23.665 22.8078 23.5702 22.8531 23.4616C22.8984 23.3526 22.9211 23.2343 22.9211 23.1067C22.9211 22.9791 22.8984 22.8608 22.8531 22.7519C22.8078 22.6433 22.7454 22.5489 22.6651 22.4691C22.5852 22.3893 22.4902 22.3265 22.3804 22.2811ZM21.8156 22.6019C21.8796 22.5755 21.9484 22.5622 22.0227 22.5622C22.0971 22.5622 22.1662 22.5755 22.2298 22.6019C22.2938 22.6286 22.3495 22.6659 22.396 22.7137C22.4433 22.7615 22.4799 22.819 22.5069 22.8859C22.5335 22.9527 22.5467 23.0264 22.5467 23.1066C22.5467 23.1873 22.5335 23.2606 22.5069 23.3274C22.4799 23.3943 22.4433 23.4518 22.396 23.4996C22.3495 23.5474 22.2938 23.5847 22.2298 23.6114C22.1662 23.6381 22.0971 23.6511 22.0227 23.6511C21.9484 23.6511 21.8796 23.6381 21.8156 23.6114C21.752 23.5847 21.6967 23.5474 21.6502 23.4996C21.6037 23.4518 21.5672 23.3943 21.5405 23.3274C21.5139 23.2606 21.5008 23.1873 21.5008 23.1066C21.5008 23.0264 21.5139 22.9527 21.5405 22.8859C21.5672 22.819 21.6037 22.7615 21.6502 22.7137C21.6967 22.6659 21.752 22.6286 21.8156 22.6019Z" fill="#CCCCCC"/>
<path fill-rule="evenodd" clip-rule="evenodd" d="M13.9788 22.2552V23.1011V23.9469H13.6178V23.7415C13.5029 23.8939 13.3296 23.9895 13.0935 23.9895C12.628 23.9895 12.2634 23.6176 12.2634 23.1011C12.2634 22.5841 12.628 22.2126 13.0935 22.2126C13.3296 22.2126 13.5029 22.3083 13.6178 22.4606V22.2552H13.9788ZM13.1384 22.5595C12.8259 22.5595 12.6347 22.8038 12.6347 23.1011C12.6347 23.3985 12.8259 23.6424 13.1384 23.6424C13.4369 23.6424 13.6385 23.409 13.6385 23.1011C13.6385 22.7933 13.4369 22.5595 13.1384 22.5595Z" fill="#CCCCCC"/>
<path d="M11.9437 23.9468V22.885C11.9437 22.4851 11.6937 22.2161 11.291 22.2125C11.0791 22.2088 10.8601 22.2761 10.7074 22.5135C10.5929 22.3259 10.412 22.2125 10.1584 22.2125C9.98152 22.2125 9.8078 22.2656 9.67224 22.4637V22.255H9.31128V23.9468H9.67582V23.0089C9.67582 22.7152 9.83562 22.5593 10.0821 22.5593C10.3218 22.5593 10.4435 22.7185 10.4435 23.0053V23.9468H10.808V23.0089C10.808 22.7152 10.975 22.5593 11.2143 22.5593C11.4611 22.5593 11.5792 22.7185 11.5792 23.0053V23.9468H11.9437V23.9468Z" fill="#CCCCCC"/>
</svg>
