<svg width="32" height="32" viewBox="0 0 32 32" fill="none" xmlns="http://www.w3.org/2000/svg">
<path d="M18.9208 18.7814H13.45V8.76221H18.9208V18.7814Z" fill="#6C6BBD"/>
<path d="M13.7971 13.772C13.7971 11.7396 14.7309 9.92914 16.1851 8.76241C15.1217 7.90925 13.7796 7.40002 12.3211 7.40002C8.86812 7.40002 6.06909 10.2528 6.06909 13.772C6.06909 17.2912 8.86812 20.144 12.3211 20.144C13.7796 20.144 15.1217 19.6348 16.1851 18.7817C14.7309 17.6149 13.7971 15.8045 13.7971 13.772Z" fill="#EB001B"/>
<path d="M26.3015 13.772C26.3015 17.2912 23.5024 20.144 20.0495 20.144C18.5909 20.144 17.2489 19.6348 16.1851 18.7817C17.6396 17.6149 18.5734 15.8045 18.5734 13.772C18.5734 11.7396 17.6396 9.92914 16.1851 8.76241C17.2489 7.90925 18.5909 7.40002 20.0495 7.40002C23.5024 7.40002 26.3015 10.2528 26.3015 13.772Z" fill="#0099DF"/>
<path d="M20.7718 21.6125C20.8445 21.6125 20.9491 21.6267 21.029 21.6587L20.9177 22.0055C20.8413 21.9735 20.765 21.9629 20.6919 21.9629C20.4557 21.9629 20.3377 22.1185 20.3377 22.398V23.3468H19.9763V21.6551H20.3341V21.8604C20.4279 21.7118 20.5635 21.6125 20.7718 21.6125Z" fill="#231F20"/>
<path d="M19.4365 21.9912H18.8462V22.7557C18.8462 22.9254 18.905 23.0389 19.0859 23.0389C19.1797 23.0389 19.2978 23.0069 19.4051 22.9433L19.5093 23.258C19.3948 23.3395 19.2143 23.3893 19.0581 23.3893C18.6307 23.3893 18.4816 23.1555 18.4816 22.7626V21.9912H18.1445V21.655H18.4816V21.1417H18.8462V21.655H19.4365V21.9912Z" fill="#231F20"/>
<path fill-rule="evenodd" clip-rule="evenodd" d="M15.2618 21.6127C15.7273 21.6127 16.0469 21.9736 16.0505 22.5011C16.0505 22.5501 16.047 22.5955 16.0434 22.6414L14.8106 22.6425C14.8627 22.9467 15.0745 23.0565 15.3071 23.0565C15.4737 23.0565 15.651 22.9929 15.7897 22.8795L15.967 23.1521C15.7654 23.3255 15.5365 23.3891 15.2864 23.3891C14.7895 23.3891 14.4353 23.0387 14.4353 22.5011C14.4353 21.9736 14.7756 21.6127 15.2618 21.6127ZM15.2551 21.9416C14.9979 21.9416 14.8524 22.1081 14.8138 22.3524H15.6753C15.6371 22.0903 15.4876 21.9416 15.2551 21.9416Z" fill="#231F20"/>
<path d="M17.6374 22.0868C17.5369 22.0228 17.3321 21.9414 17.1203 21.9414C16.9223 21.9414 16.8042 22.016 16.8042 22.1399C16.8042 22.2529 16.929 22.2849 17.0853 22.306L17.2554 22.3307C17.6168 22.3842 17.8354 22.5398 17.8354 22.8371C17.8354 23.1592 17.5575 23.3893 17.0785 23.3893C16.8074 23.3893 16.5573 23.3184 16.3594 23.1697L16.5295 22.8829C16.6512 22.9785 16.832 23.0599 17.0821 23.0599C17.3286 23.0599 17.4605 22.9858 17.4605 22.8545C17.4605 22.7593 17.3667 22.7059 17.1687 22.6779L16.9986 22.6532C16.6269 22.5997 16.4254 22.43 16.4254 22.1541C16.4254 21.8179 16.6965 21.6125 17.1167 21.6125C17.3806 21.6125 17.6203 21.6728 17.7937 21.7895L17.6374 22.0868Z" fill="#231F20"/>
<path fill-rule="evenodd" clip-rule="evenodd" d="M22.4495 21.6811C22.3398 21.6354 22.2205 21.6127 22.0917 21.6127C21.9629 21.6127 21.8437 21.6354 21.734 21.6811C21.6242 21.7265 21.53 21.7893 21.4505 21.8691C21.371 21.9489 21.3086 22.0433 21.2633 22.1519C21.218 22.2608 21.1953 22.3791 21.1953 22.5068C21.1953 22.6344 21.218 22.7527 21.2633 22.8616C21.3086 22.9702 21.371 23.065 21.4505 23.1448C21.53 23.2246 21.6242 23.287 21.734 23.3328C21.8437 23.3781 21.9629 23.4008 22.0917 23.4008C22.2205 23.4008 22.3398 23.3781 22.4495 23.3328C22.5592 23.287 22.6543 23.2246 22.7342 23.1448C22.8145 23.065 22.8769 22.9702 22.9222 22.8616C22.9675 22.7527 22.9902 22.6344 22.9902 22.5068C22.9902 22.3791 22.9675 22.2608 22.9222 22.1519C22.8769 22.0433 22.8145 21.9489 22.7342 21.8691C22.6543 21.7893 22.5592 21.7265 22.4495 21.6811ZM21.8847 22.0019C21.9487 21.9756 22.0175 21.9622 22.0919 21.9622C22.1662 21.9622 22.2354 21.9756 22.299 22.0019C22.363 22.0286 22.4186 22.0659 22.4651 22.1137C22.5124 22.1615 22.549 22.219 22.576 22.2859C22.6027 22.3527 22.6158 22.4265 22.6158 22.5067C22.6158 22.5873 22.6027 22.6606 22.576 22.7275C22.549 22.7943 22.5124 22.8518 22.4651 22.8996C22.4186 22.9474 22.363 22.9847 22.299 23.0114C22.2354 23.0382 22.1662 23.0511 22.0919 23.0511C22.0175 23.0511 21.9487 23.0382 21.8847 23.0114C21.8211 22.9847 21.7659 22.9474 21.7194 22.8996C21.6729 22.8518 21.6363 22.7943 21.6096 22.7275C21.583 22.6606 21.5699 22.5873 21.5699 22.5067C21.5699 22.4265 21.583 22.3527 21.6096 22.2859C21.6363 22.219 21.6729 22.1615 21.7194 22.1137C21.7659 22.0659 21.8211 22.0286 21.8847 22.0019Z" fill="#231F20"/>
<path fill-rule="evenodd" clip-rule="evenodd" d="M14.0479 21.6552V22.5011V23.347H13.6869V23.1416C13.572 23.2939 13.3987 23.3895 13.1626 23.3895C12.6971 23.3895 12.3325 23.0176 12.3325 22.5011C12.3325 21.9842 12.6971 21.6127 13.1626 21.6127C13.3987 21.6127 13.572 21.7083 13.6869 21.8606V21.6552H14.0479ZM13.2075 21.9595C12.895 21.9595 12.7038 22.2038 12.7038 22.5012C12.7038 22.7985 12.895 23.0424 13.2075 23.0424C13.506 23.0424 13.7076 22.8091 13.7076 22.5012C13.7076 22.1933 13.506 21.9595 13.2075 21.9595Z" fill="#231F20"/>
<path d="M12.0128 23.3468V22.285C12.0128 21.8852 11.7628 21.6162 11.3601 21.6125C11.1482 21.6089 10.9292 21.6761 10.7765 21.9135C10.662 21.7259 10.4811 21.6125 10.2275 21.6125C10.0506 21.6125 9.87689 21.6656 9.74133 21.8637V21.6551H9.38037V23.3468H9.74491V22.409C9.74491 22.1153 9.90472 21.9593 10.1512 21.9593C10.3909 21.9593 10.5125 22.1185 10.5125 22.4053V23.3468H10.8771V22.409C10.8771 22.1153 11.044 21.9593 11.2834 21.9593C11.5302 21.9593 11.6483 22.1185 11.6483 22.4053V23.3468H12.0128V23.3468Z" fill="#231F20"/>
</svg>
