<svg width="32" height="32" viewBox="0 0 32 32" fill="none" xmlns="http://www.w3.org/2000/svg">
<path fill-rule="evenodd" clip-rule="evenodd" d="M11.6546 22.1047V22.9416V23.7785H11.2975V23.5753C11.1842 23.726 11.0124 23.8206 10.7787 23.8206C10.3182 23.8206 9.9571 23.453 9.9571 22.9416C9.9571 22.4305 10.3182 22.0626 10.7787 22.0626C11.0124 22.0626 11.1842 22.1572 11.2975 22.3079V22.1047H11.6546ZM10.8231 22.4057C10.514 22.4057 10.3248 22.6474 10.3248 22.9416C10.3248 23.2358 10.514 23.4775 10.8231 23.4775C11.1185 23.4775 11.3179 23.2462 11.3179 22.9416C11.3179 22.637 11.1185 22.4057 10.8231 22.4057ZM23.7229 22.9416C23.7229 22.6474 23.9121 22.4057 24.2212 22.4057C24.517 22.4057 24.716 22.637 24.716 22.9416C24.716 23.2462 24.517 23.4775 24.2212 23.4775C23.9121 23.4775 23.7229 23.2358 23.7229 22.9416ZM25.0531 21.4325V22.9416V23.7785H24.6956V23.5753C24.5823 23.726 24.4104 23.8206 24.1768 23.8206C23.7163 23.8206 23.3552 23.453 23.3552 22.9416C23.3552 22.4305 23.7163 22.0626 24.1768 22.0626C24.4104 22.0626 24.5823 22.1572 24.6956 22.3079V21.4325H25.0531ZM16.0877 22.3884C16.3178 22.3884 16.4657 22.5355 16.5035 22.7944H15.6512C15.6893 22.5527 15.8333 22.3884 16.0877 22.3884ZM15.2767 22.9416C15.2767 22.4197 15.6134 22.0626 16.0948 22.0626C16.555 22.0626 16.8712 22.4197 16.8748 22.9416C16.8748 22.9905 16.8712 23.0362 16.8677 23.0815H15.648C15.6995 23.3829 15.9092 23.4915 16.1393 23.4915C16.3041 23.4915 16.4795 23.4282 16.6171 23.3163L16.7922 23.5861C16.5928 23.7576 16.3662 23.8206 16.1188 23.8206C15.6272 23.8206 15.2767 23.4739 15.2767 22.9416ZM20.407 22.9416C20.407 22.6474 20.5962 22.4057 20.9053 22.4057C21.2007 22.4057 21.4001 22.637 21.4001 22.9416C21.4001 23.2462 21.2007 23.4775 20.9053 23.4775C20.5962 23.4775 20.407 23.2358 20.407 22.9416ZM21.7368 22.1047V22.9416V23.7785H21.3797V23.5753C21.266 23.726 21.0945 23.8206 20.8609 23.8206C20.4003 23.8206 20.0393 23.453 20.0393 22.9416C20.0393 22.4305 20.4003 22.0626 20.8609 22.0626C21.0945 22.0626 21.266 22.1572 21.3797 22.3079V22.1047H21.7368ZM18.3901 22.9416C18.3901 23.4494 18.737 23.8206 19.2664 23.8206C19.5138 23.8206 19.6786 23.7644 19.8571 23.621L19.6856 23.3268C19.5515 23.425 19.4107 23.4775 19.2558 23.4775C18.9706 23.4739 18.761 23.2638 18.761 22.9416C18.761 22.6193 18.9706 22.4093 19.2558 22.4057C19.4107 22.4057 19.5515 22.4582 19.6856 22.5564L19.8571 22.2622C19.6786 22.1187 19.5138 22.0626 19.2664 22.0626C18.737 22.0626 18.3901 22.4338 18.3901 22.9416ZM22.5615 22.3079C22.6544 22.1608 22.7885 22.0626 22.9946 22.0626C23.0669 22.0626 23.17 22.0766 23.249 22.1083L23.1389 22.4514C23.0634 22.4197 22.9879 22.4093 22.9155 22.4093C22.6819 22.4093 22.5651 22.5632 22.5651 22.8401V23.7784H22.2076V22.1047H22.5615V22.3079ZM13.4211 22.2378C13.2492 22.1223 13.0124 22.0626 12.7513 22.0626C12.3352 22.0626 12.0673 22.2658 12.0673 22.5985C12.0673 22.8714 12.2667 23.0398 12.6341 23.0923L12.8028 23.1167C12.9987 23.1448 13.0911 23.1973 13.0911 23.2919C13.0911 23.4213 12.9605 23.4951 12.7167 23.4951C12.4693 23.4951 12.2907 23.4145 12.1704 23.3199L12.002 23.6033C12.1979 23.7504 12.4453 23.8206 12.7131 23.8206C13.1875 23.8206 13.4624 23.5929 13.4624 23.2743C13.4624 22.9801 13.2461 22.8261 12.8885 22.7736L12.7202 22.7488C12.5656 22.7279 12.4417 22.6967 12.4417 22.5845C12.4417 22.4618 12.5586 22.3885 12.7544 22.3885C12.9641 22.3885 13.167 22.469 13.2665 22.532L13.4211 22.2378ZM17.5965 22.3079C17.6889 22.1608 17.823 22.0626 18.0291 22.0626C18.1015 22.0626 18.2045 22.0766 18.2836 22.1083L18.1734 22.4514C18.0979 22.4197 18.0224 22.4093 17.95 22.4093C17.7164 22.4093 17.5996 22.5632 17.5996 22.8401V23.7784H17.2425V22.1047H17.5965V22.3079ZM14.9812 22.1047H14.3971V21.5969H14.0361V22.1047H13.7029V22.4374H14.0361V23.2009C14.0361 23.5893 14.184 23.8206 14.6064 23.8206C14.7613 23.8206 14.9399 23.7717 15.0532 23.6911L14.9501 23.3793C14.8435 23.4422 14.7267 23.4739 14.6339 23.4739C14.4553 23.4739 14.3971 23.3616 14.3971 23.1937V22.4374H14.9812V22.1047ZM9.64127 22.7279V23.7784H9.28021V22.847C9.28021 22.5632 9.1634 22.4057 8.91955 22.4057C8.68238 22.4057 8.51758 22.56 8.51758 22.8506V23.7784H8.15653V22.847C8.15653 22.5632 8.03657 22.4057 7.7994 22.4057C7.55515 22.4057 7.39704 22.56 7.39704 22.8506V23.7784H7.03638V22.1047H7.3939V22.3111C7.52802 22.1151 7.6995 22.0626 7.87491 22.0626C8.12585 22.0626 8.30441 22.1748 8.41768 22.3604C8.56911 22.1255 8.78543 22.059 8.99506 22.0626C9.39388 22.0662 9.64127 22.3323 9.64127 22.7279Z" fill="#CCCCCC"/>
<path d="M13.646 14.3043C13.646 12.2934 14.5698 10.5022 16.0086 9.34788C14.9565 8.50377 13.6287 7.99995 12.1856 7.99995C8.7693 7.99995 6 10.8225 6 14.3043C6 17.7861 8.7693 20.6086 12.1856 20.6086C13.6287 20.6086 14.9565 20.1048 16.0086 19.2607C14.5698 18.1064 13.646 16.3152 13.646 14.3043Z" fill="#CCCCCC"/>
<path d="M26.0175 14.3043C26.0175 17.7861 23.2482 20.6086 19.8319 20.6086C18.3889 20.6086 17.061 20.1048 16.0085 19.2607C17.4477 18.1064 18.3716 16.3152 18.3716 14.3043C18.3716 12.2934 17.4477 10.5022 16.0085 9.34788C17.061 8.50377 18.3889 7.99995 19.8319 7.99995C23.2482 7.99995 26.0175 10.8225 26.0175 14.3043Z" fill="#CCCCCC"/>
</svg>
