<svg width="32" height="32" viewBox="0 0 32 32" fill="none" xmlns="http://www.w3.org/2000/svg">
<path fill-rule="evenodd" clip-rule="evenodd" d="M11.7234 21.5047V22.3416V23.1785H11.3663V22.9753C11.253 23.126 11.0812 23.2206 10.8475 23.2206C10.387 23.2206 10.0259 22.853 10.0259 22.3416C10.0259 21.8306 10.387 21.4626 10.8475 21.4626C11.0812 21.4626 11.253 21.5572 11.3663 21.7079V21.5047H11.7234ZM10.892 21.8057C10.5828 21.8057 10.3937 22.0474 10.3937 22.3416C10.3937 22.6358 10.5828 22.8775 10.892 22.8775C11.1874 22.8775 11.3868 22.6462 11.3868 22.3416C11.3868 22.037 11.1874 21.8057 10.892 21.8057ZM23.7918 22.3416C23.7918 22.0474 23.9809 21.8057 24.2901 21.8057C24.5858 21.8057 24.7849 22.037 24.7849 22.3416C24.7849 22.6462 24.5858 22.8775 24.2901 22.8775C23.9809 22.8775 23.7918 22.6358 23.7918 22.3416ZM25.1219 20.8326V22.3416V23.1785H24.7644V22.9753C24.6511 23.126 24.4793 23.2206 24.2456 23.2206C23.7851 23.2206 23.424 22.853 23.424 22.3416C23.424 21.8306 23.7851 21.4626 24.2456 21.4626C24.4793 21.4626 24.6511 21.5572 24.7644 21.7079V20.8326H25.1219ZM16.1566 21.7884C16.3867 21.7884 16.5346 21.9355 16.5723 22.1944H15.72C15.7582 21.9527 15.9021 21.7884 16.1566 21.7884ZM15.3455 22.3416C15.3455 21.8197 15.6822 21.4626 16.1636 21.4626C16.6238 21.4626 16.94 21.8197 16.9436 22.3416C16.9436 22.3905 16.94 22.4362 16.9365 22.4815H15.7168C15.7683 22.7829 15.978 22.8915 16.2081 22.8915C16.3729 22.8915 16.5483 22.8282 16.6859 22.7164L16.861 22.9861C16.6616 23.1577 16.435 23.2206 16.1876 23.2206C15.696 23.2206 15.3455 22.8739 15.3455 22.3416ZM20.4759 22.3416C20.4759 22.0474 20.6651 21.8057 20.9742 21.8057C21.2696 21.8057 21.469 22.037 21.469 22.3416C21.469 22.6462 21.2696 22.8775 20.9742 22.8775C20.6651 22.8775 20.4759 22.6358 20.4759 22.3416ZM21.8056 21.5047V22.3416V23.1785H21.4485V22.9753C21.3349 23.126 21.1634 23.2206 20.9297 23.2206C20.4692 23.2206 20.1081 22.853 20.1081 22.3416C20.1081 21.8306 20.4692 21.4626 20.9297 21.4626C21.1634 21.4626 21.3349 21.5572 21.4485 21.7079V21.5047H21.8056ZM18.459 22.3416C18.459 22.8494 18.8059 23.2206 19.3353 23.2206C19.5827 23.2206 19.7475 23.1645 19.926 23.021L19.7545 22.7268C19.6204 22.825 19.4796 22.8775 19.3246 22.8775C19.0395 22.8739 18.8299 22.6639 18.8299 22.3416C18.8299 22.0194 19.0395 21.8093 19.3246 21.8057C19.4796 21.8057 19.6204 21.8582 19.7545 21.9564L19.926 21.6622C19.7475 21.5187 19.5827 21.4626 19.3353 21.4626C18.8059 21.4626 18.459 21.8338 18.459 22.3416ZM22.6304 21.7079C22.7232 21.5608 22.8573 21.4626 23.0634 21.4626C23.1358 21.4626 23.2388 21.4766 23.3179 21.5083L23.2078 21.8514C23.1322 21.8197 23.0567 21.8093 22.9844 21.8093C22.7507 21.8093 22.6339 21.9632 22.6339 22.2402V23.1785H22.2764V21.5047H22.6304V21.7079ZM13.4899 21.6378C13.318 21.5223 13.0812 21.4626 12.8201 21.4626C12.404 21.4626 12.1361 21.6658 12.1361 21.9985C12.1361 22.2715 12.3355 22.4398 12.7029 22.4923L12.8716 22.5168C13.0675 22.5448 13.1599 22.5973 13.1599 22.6919C13.1599 22.8214 13.0293 22.8951 12.7855 22.8951C12.5381 22.8951 12.3595 22.8146 12.2392 22.72L12.0708 23.0033C12.2667 23.1504 12.5141 23.2206 12.7819 23.2206C13.2563 23.2206 13.5312 22.9929 13.5312 22.6743C13.5312 22.3801 13.3149 22.2262 12.9574 22.1737L12.789 22.1488C12.6344 22.128 12.5106 22.0967 12.5106 21.9845C12.5106 21.8618 12.6274 21.7885 12.8232 21.7885C13.0329 21.7885 13.2358 21.869 13.3353 21.932L13.4899 21.6378ZM17.6653 21.7079C17.7577 21.5608 17.8918 21.4626 18.0979 21.4626C18.1703 21.4626 18.2734 21.4766 18.3524 21.5083L18.2423 21.8514C18.1668 21.8197 18.0913 21.8093 18.0189 21.8093C17.7853 21.8093 17.6684 21.9632 17.6684 22.2402V23.1785H17.3113V21.5047H17.6653V21.7079ZM15.0501 21.5047H14.466V20.9969H14.105V21.5047H13.7718V21.8374H14.105V22.6009C14.105 22.9893 14.2528 23.2206 14.6753 23.2206C14.8302 23.2206 15.0088 23.1717 15.1221 23.0911L15.019 22.7793C14.9124 22.8422 14.7956 22.8739 14.7028 22.8739C14.5242 22.8739 14.466 22.7617 14.466 22.5937V21.8374H15.0501V21.5047ZM9.71012 22.1279V23.1785H9.34906V22.247C9.34906 21.9632 9.23225 21.8057 8.9884 21.8057C8.75123 21.8057 8.58643 21.96 8.58643 22.2506V23.1785H8.22537V22.247C8.22537 21.9632 8.10541 21.8057 7.86825 21.8057C7.624 21.8057 7.46589 21.96 7.46589 22.2506V23.1785H7.10522V21.5047H7.46274V21.7111C7.59686 21.5151 7.76835 21.4626 7.94376 21.4626C8.19469 21.4626 8.37326 21.5748 8.48653 21.7604C8.63796 21.5255 8.85428 21.459 9.06391 21.4626C9.46273 21.4662 9.71012 21.7323 9.71012 22.1279Z" fill="#231F20"/>
<path d="M18.7843 18.6605H13.3716V8.74768H18.7843V18.6605Z" fill="#FF5F00"/>
<path d="M13.7148 13.7043C13.7148 11.6935 14.6387 9.90224 16.0774 8.7479C15.0253 7.9038 13.6975 7.39998 12.2544 7.39998C8.83815 7.39998 6.06885 10.2225 6.06885 13.7043C6.06885 17.1862 8.83815 20.0087 12.2544 20.0087C13.6975 20.0087 15.0253 19.5048 16.0774 18.6607C14.6387 17.5064 13.7148 15.7152 13.7148 13.7043Z" fill="#EB001B"/>
<path d="M26.0866 13.7043C26.0866 17.1862 23.3173 20.0087 19.901 20.0087C18.458 20.0087 17.1301 19.5048 16.0776 18.6607C17.5168 17.5064 18.4406 15.7152 18.4406 13.7043C18.4406 11.6935 17.5168 9.90224 16.0776 8.7479C17.1301 7.9038 18.458 7.39998 19.901 7.39998C23.3173 7.39998 26.0866 10.2225 26.0866 13.7043Z" fill="#F79E1B"/>
</svg>
