<svg width="22" height="6" viewBox="0 0 22 6" fill="none" xmlns="http://www.w3.org/2000/svg">
<path d="M16.3335 3.00004C16.3335 4.46671 17.5335 5.66671 19.0002 5.66671C20.4668 5.66671 21.6668 4.46671 21.6668 3.00004C21.6668 1.53337 20.4668 0.333375 19.0002 0.333375C17.5335 0.333375 16.3335 1.53337 16.3335 3.00004ZM13.6668 3.00004C13.6668 1.53337 12.4668 0.333374 11.0002 0.333374C9.5335 0.333374 8.3335 1.53337 8.3335 3.00004C8.3335 4.46671 9.5335 5.66671 11.0002 5.66671C12.4668 5.66671 13.6668 4.46671 13.6668 3.00004ZM5.66683 3.00004C5.66683 1.53337 4.46683 0.333374 3.00016 0.333374C1.5335 0.333374 0.333496 1.53337 0.333496 3.00004C0.333496 4.46671 1.5335 5.66671 3.00016 5.66671C4.46683 5.66671 5.66683 4.46671 5.66683 3.00004Z" fill="#1678A2"/>
</svg>
