<svg width="6" height="22" viewBox="0 0 6 22" fill="none" xmlns="http://www.w3.org/2000/svg">
<path d="M3.00016 16.3334C1.5335 16.3334 0.333496 17.5334 0.333496 19C0.333496 20.4667 1.5335 21.6667 3.00016 21.6667C4.46683 21.6667 5.66683 20.4667 5.66683 19C5.66683 17.5334 4.46683 16.3334 3.00016 16.3334ZM3.00016 13.6667C4.46683 13.6667 5.66683 12.4667 5.66683 11C5.66683 9.53337 4.46683 8.33337 3.00016 8.33337C1.5335 8.33337 0.333497 9.53337 0.333496 11C0.333496 12.4667 1.5335 13.6667 3.00016 13.6667ZM3.00016 5.66671C4.46683 5.66671 5.66683 4.46671 5.66683 3.00004C5.66683 1.53337 4.46683 0.333374 3.00016 0.333374C1.5335 0.333374 0.333497 1.53337 0.333497 3.00004C0.333497 4.46671 1.5335 5.66671 3.00016 5.66671Z" fill="#1678A2"/>
</svg>
