<svg width="24" height="24" viewBox="0 0 24 24" fill="none" xmlns="http://www.w3.org/2000/svg">
<path d="M22.6667 16.6667C21 16.6667 19.4 16.4 17.9067 15.9067C17.7733 15.8667 17.6267 15.84 17.4933 15.84C17.1467 15.84 16.8133 15.9733 16.5467 16.2267L13.6133 19.16C9.84 17.24 6.74667 14.16 4.82667 10.3867L7.76 7.44C8.13333 7.08 8.24 6.56 8.09333 6.09333C7.6 4.6 7.33333 3 7.33333 1.33333C7.33333 0.6 6.73333 0 6 0H1.33333C0.6 0 0 0.6 0 1.33333C0 13.8533 10.1467 24 22.6667 24C23.4 24 24 23.4 24 22.6667V18C24 17.2667 23.4 16.6667 22.6667 16.6667ZM2.70667 2.66667H4.70667C4.8 3.84 5 5 5.32 6.12L3.72 7.73333C3.17333 6.12 2.82667 4.42667 2.70667 2.66667ZM21.3333 21.2933C19.5733 21.1733 17.8667 20.8267 16.2667 20.28L17.8667 18.68C19 19 20.16 19.2 21.3333 19.28V21.2933Z" fill="#1678A2"/>
</svg>
