<svg width="26" height="20" viewBox="0 0 26 20" fill="none" xmlns="http://www.w3.org/2000/svg">
<path d="M0 0.666626V19.3333H25.3333V0.666626H0ZM5.66667 16.6666H2.66667V14H5.66667V16.6666ZM5.66667 11.3333H2.66667V8.66663H5.66667V11.3333ZM5.66667 5.99996H2.66667V3.33329H5.66667V5.99996ZM11.3333 16.6666H8.33333V14H11.3333V16.6666ZM11.3333 11.3333H8.33333V8.66663H11.3333V11.3333ZM11.3333 5.99996H8.33333V3.33329H11.3333V5.99996ZM17 16.6666H14V14H17V16.6666ZM17 11.3333H14V8.66663H17V11.3333ZM17 5.99996H14V3.33329H17V5.99996ZM22.6667 16.6666H19.6667V14H22.6667V16.6666ZM22.6667 11.3333H19.6667V8.66663H22.6667V11.3333ZM22.6667 5.99996H19.6667V3.33329H22.6667V5.99996Z" fill="#1678A2"/>
</svg>
