<svg width="32" height="32" viewBox="0 0 32 32" fill="none" xmlns="http://www.w3.org/2000/svg">
<path d="M14.3966 18.0777H12.2661L13.5987 10.1439H15.729L14.3966 18.0777Z" fill="#CCCCCC"/>
<path d="M22.1196 10.3378C21.6994 10.1772 21.0329 10 20.2087 10C18.1048 10 16.6233 11.0803 16.6142 12.6248C16.5967 13.7643 17.6749 14.3972 18.4814 14.7771C19.3056 15.1654 19.5858 15.4188 19.5858 15.7649C19.5774 16.2964 18.9198 16.5414 18.3064 16.5414C17.4558 16.5414 17 16.4151 16.3074 16.1194L16.0269 15.9926L15.7288 17.7735C16.2284 17.9927 17.149 18.1873 18.1048 18.1958C20.3403 18.1958 21.7956 17.1322 21.8128 15.4863C21.8214 14.5832 21.252 13.8911 20.0245 13.3257C19.2794 12.9626 18.8231 12.7179 18.8231 12.3464C18.8318 12.0088 19.209 11.6629 20.0502 11.6629C20.7428 11.646 21.2517 11.8063 21.6372 11.9667L21.8299 12.051L22.1196 10.3378Z" fill="#CCCCCC"/>
<path fill-rule="evenodd" clip-rule="evenodd" d="M25.9333 10.1439H27.5813L29.3 18.0775H27.3274C27.3274 18.0775 27.1344 17.166 27.0732 16.8874H24.3379L23.8907 18.0775H21.6553L24.8198 10.8022C25.0391 10.2873 25.4252 10.1439 25.9333 10.1439ZM25.8021 13.0472C25.8021 13.0472 25.127 14.8112 24.9515 15.267H26.7224C26.6348 14.8703 26.2313 12.9712 26.2313 12.9712L26.0824 12.2876C26.0197 12.4637 25.9291 12.7057 25.8679 12.8689C25.8264 12.9796 25.7985 13.054 25.8021 13.0472Z" fill="#CCCCCC"/>
<path d="M3.03507 10.1439H6.46279C6.9274 10.1606 7.3044 10.3041 7.42708 10.8108L8.17196 14.4558C8.17206 14.4561 8.17186 14.4554 8.17196 14.4558L8.40025 15.554L10.4867 10.1439H12.7395L9.39076 18.0692H7.13784L5.23895 11.1755C4.58377 10.8067 3.83602 10.5101 3 10.3042L3.03507 10.1439Z" fill="#CCCCCC"/>
</svg>
