<svg width="32" height="32" viewBox="0 0 32 32" fill="none" xmlns="http://www.w3.org/2000/svg">
<path d="M14.3966 18.0777H12.2661L13.5987 10.1439H15.729L14.3966 18.0777Z" fill="#CCCCCC"/>
<path d="M22.1196 10.3378C21.6994 10.1772 21.0329 10 20.2087 10C18.1048 10 16.6233 11.0803 16.6142 12.6248C16.5967 13.7643 17.6749 14.3972 18.4814 14.7771C19.3056 15.1654 19.5858 15.4188 19.5858 15.7649C19.5774 16.2964 18.9198 16.5414 18.3064 16.5414C17.4558 16.5414 17 16.4151 16.3074 16.1194L16.0269 15.9926L15.7288 17.7735C16.2284 17.9927 17.149 18.1873 18.1048 18.1958C20.3403 18.1958 21.7956 17.1322 21.8128 15.4863C21.8214 14.5832 21.252 13.8911 20.0245 13.3257C19.2794 12.9626 18.8231 12.7179 18.8231 12.3464C18.8318 12.0088 19.209 11.6629 20.0502 11.6629C20.7428 11.646 21.2517 11.8063 21.6372 11.9667L21.8299 12.051L22.1196 10.3378Z" fill="#CCCCCC"/>
<path fill-rule="evenodd" clip-rule="evenodd" d="M25.9333 10.1439H27.5813L29.3 18.0775H27.3274C27.3274 18.0775 27.1344 17.166 27.0732 16.8874H24.3379L23.8907 18.0775H21.6553L24.8198 10.8022C25.0391 10.2873 25.4252 10.1439 25.9333 10.1439ZM25.8021 13.0472C25.8021 13.0472 25.127 14.8112 24.9515 15.267H26.7224C26.6348 14.8703 26.2313 12.9713 26.2313 12.9713L26.0824 12.2876C26.0197 12.4637 25.929 12.7057 25.8679 12.8689C25.8264 12.9796 25.7985 13.054 25.8021 13.0472Z" fill="#CCCCCC"/>
<path d="M3.03507 10.1439H6.46279C6.9274 10.1606 7.3044 10.3041 7.42708 10.8108L8.17194 14.4557C8.17205 14.456 8.17183 14.4553 8.17194 14.4557L8.40026 15.554L10.4867 10.1439H12.7395L9.39076 18.0692H7.13784L5.23896 11.1755C4.58378 10.8067 3.83603 10.5101 3 10.3042L3.03507 10.1439Z" fill="#CCCCCC"/>
<path fill-rule="evenodd" clip-rule="evenodd" d="M18.5942 22.4051C18.5659 22.4104 18.5298 22.413 18.4861 22.413C18.365 22.413 18.2788 22.376 18.2273 22.3019C18.1758 22.2279 18.1501 22.1195 18.1501 21.9767V19.5411H18.4667V22.0005C18.4667 22.0534 18.4758 22.0904 18.4938 22.1115C18.5118 22.1327 18.5324 22.1433 18.5556 22.1433H18.5845C18.5935 22.1433 18.6071 22.1406 18.6251 22.1353L18.6676 22.3813C18.647 22.3918 18.6225 22.3998 18.5942 22.4051ZM17.6442 22.0838V22.3654H16.1458V19.7633H17.6056V20.041H16.4663V20.8581H17.428V21.1397H16.4663V22.0838H17.6442ZM19.8958 22.413C20.0246 22.413 20.1391 22.3931 20.2395 22.3535C20.34 22.3138 20.4314 22.2675 20.5137 22.2146L20.4017 22.0004C20.3322 22.0454 20.2595 22.0818 20.1835 22.1095C20.1076 22.1373 20.0246 22.1512 19.9344 22.1512C19.7542 22.1512 19.6081 22.091 19.4961 21.9707C19.3841 21.8504 19.3217 21.6871 19.3088 21.4808H20.5755C20.5807 21.457 20.5839 21.4286 20.5852 21.3955C20.5865 21.3625 20.5871 21.3288 20.5871 21.2944C20.5871 21.1569 20.5704 21.0326 20.5369 20.9215C20.5034 20.8105 20.4552 20.7153 20.3921 20.6359C20.329 20.5566 20.2505 20.4958 20.1565 20.4535C20.0625 20.4111 19.9563 20.39 19.8379 20.39C19.7297 20.39 19.6255 20.4131 19.5251 20.4594C19.4246 20.5057 19.3352 20.5725 19.2566 20.6597C19.1781 20.747 19.115 20.8534 19.0674 20.979C19.0198 21.1046 18.996 21.2468 18.996 21.4054C18.996 21.5641 19.0191 21.7056 19.0655 21.8299C19.1118 21.9542 19.1755 22.0593 19.2566 22.1452C19.3377 22.2312 19.433 22.2973 19.5424 22.3436C19.6519 22.3898 19.7697 22.413 19.8958 22.413ZM19.3049 21.2468H20.309C20.309 21.0511 20.2685 20.9023 20.1874 20.8005C20.1063 20.6987 19.9923 20.6478 19.8456 20.6478C19.7786 20.6478 19.7149 20.661 19.6544 20.6875C19.5939 20.7139 19.5392 20.7529 19.4903 20.8045C19.4413 20.8561 19.4008 20.9189 19.3686 20.9929C19.3364 21.0669 19.3152 21.1516 19.3049 21.2468ZM21.7921 22.413C21.9054 22.413 22.0135 22.3912 22.1165 22.3475C22.2195 22.3039 22.3135 22.2437 22.3984 22.167L22.2594 21.9489C22.2002 22.0018 22.1339 22.0474 22.0605 22.0857C21.9871 22.1241 21.9067 22.1432 21.8191 22.1432C21.7342 22.1432 21.6556 22.1254 21.5835 22.0897C21.5115 22.054 21.4503 22.0038 21.4001 21.939C21.3499 21.8742 21.3106 21.7968 21.2823 21.7069C21.254 21.617 21.2398 21.5165 21.2398 21.4054C21.2398 21.2944 21.2546 21.1932 21.2842 21.102C21.3138 21.0108 21.3544 20.9321 21.4059 20.866C21.4574 20.7999 21.5192 20.749 21.5913 20.7133C21.6634 20.6776 21.7419 20.6597 21.8269 20.6597C21.9015 20.6597 21.9691 20.6756 22.0296 20.7073C22.0901 20.7391 22.1474 20.78 22.2015 20.8303L22.3637 20.6161C22.2967 20.5553 22.2195 20.5024 22.132 20.4574C22.0444 20.4125 21.9389 20.39 21.8153 20.39C21.6943 20.39 21.579 20.4125 21.4696 20.4574C21.3602 20.5024 21.2643 20.5685 21.1819 20.6558C21.0995 20.743 21.0338 20.8495 20.9849 20.9751C20.936 21.1007 20.9115 21.2441 20.9115 21.4054C20.9115 21.5641 20.9341 21.7063 20.9791 21.8319C21.0242 21.9575 21.086 22.0633 21.1645 22.1492C21.243 22.2351 21.3364 22.3006 21.4445 22.3455C21.5526 22.3905 21.6685 22.413 21.7921 22.413ZM23.5437 22.3912C23.4832 22.4058 23.4233 22.413 23.3641 22.413C23.2637 22.413 23.1793 22.3972 23.1111 22.3654C23.0429 22.3337 22.9875 22.2901 22.945 22.2345C22.9026 22.179 22.8723 22.1116 22.8543 22.0322C22.8363 21.9529 22.8272 21.8656 22.8272 21.7704V20.7034H22.5492V20.4575L22.8427 20.4376L22.8813 19.8982H23.1478V20.4376H23.6537V20.7034H23.1478V21.7744C23.1478 21.8934 23.169 21.9853 23.2115 22.0501C23.254 22.1149 23.3293 22.1473 23.4375 22.1473C23.4709 22.1473 23.507 22.142 23.5456 22.1314C23.5842 22.1208 23.619 22.1089 23.6499 22.0957L23.7117 22.3416C23.6602 22.3601 23.6042 22.3767 23.5437 22.3912ZM24.3951 22.3654V21.1278C24.4595 20.9638 24.5348 20.8488 24.6211 20.7827C24.7073 20.7166 24.7904 20.6835 24.8702 20.6835C24.9088 20.6835 24.941 20.6862 24.9667 20.6915C24.9925 20.6967 25.0208 20.7047 25.0517 20.7153L25.1135 20.4297C25.0543 20.4032 24.9873 20.39 24.9127 20.39C24.8045 20.39 24.7048 20.4257 24.6133 20.4971C24.5219 20.5685 24.4441 20.665 24.3797 20.7867H24.3681L24.3411 20.4376H24.0785V22.3654H24.3951ZM26.4401 22.3455C26.3359 22.3905 26.2258 22.413 26.1099 22.413C25.9941 22.413 25.884 22.3905 25.7797 22.3455C25.6754 22.3006 25.5834 22.2351 25.5036 22.1492C25.4238 22.0633 25.36 21.9575 25.3124 21.8319C25.2648 21.7063 25.241 21.5641 25.241 21.4054C25.241 21.2441 25.2648 21.1007 25.3124 20.9751C25.36 20.8495 25.4238 20.743 25.5036 20.6558C25.5834 20.5685 25.6754 20.5024 25.7797 20.4574C25.884 20.4125 25.9941 20.39 26.1099 20.39C26.2258 20.39 26.3359 20.4125 26.4401 20.4574C26.5444 20.5024 26.6365 20.5685 26.7163 20.6558C26.7961 20.743 26.8598 20.8495 26.9074 20.9751C26.9551 21.1007 26.9789 21.2441 26.9789 21.4054C26.9789 21.5641 26.9551 21.7063 26.9074 21.8319C26.8598 21.9575 26.7961 22.0633 26.7163 22.1492C26.6365 22.2351 26.5444 22.3006 26.4401 22.3455ZM26.1099 22.1433C26.0301 22.1433 25.9567 22.1254 25.8898 22.0897C25.8228 22.054 25.7656 22.0038 25.7179 21.939C25.6703 21.8742 25.6336 21.7969 25.6079 21.7069C25.5821 21.617 25.5692 21.5165 25.5692 21.4055C25.5692 21.2944 25.5821 21.1933 25.6079 21.102C25.6336 21.0108 25.6703 20.9321 25.7179 20.866C25.7656 20.7999 25.8228 20.749 25.8898 20.7133C25.9567 20.6776 26.0301 20.6597 26.1099 20.6597C26.1897 20.6597 26.2631 20.6776 26.3301 20.7133C26.397 20.749 26.4543 20.7999 26.5019 20.866C26.5496 20.9321 26.5862 21.0108 26.612 21.102C26.6377 21.1933 26.6506 21.2944 26.6506 21.4055C26.6506 21.5165 26.6377 21.617 26.612 21.7069C26.5862 21.7969 26.5496 21.8742 26.5019 21.939C26.4543 22.0038 26.397 22.054 26.3301 22.0897C26.2631 22.1254 26.1897 22.1433 26.1099 22.1433ZM27.79 20.9691V22.3654H27.4733V20.4376H27.7359L27.7629 20.7153H27.7745C27.8646 20.6227 27.9593 20.5453 28.0584 20.4832C28.1575 20.4211 28.2727 20.39 28.404 20.39C28.6023 20.39 28.7471 20.4535 28.8385 20.5804C28.9299 20.7073 28.9756 20.8951 28.9756 21.1436V22.3654H28.6589V21.1873C28.6589 21.0048 28.6306 20.8733 28.574 20.7926C28.5173 20.7119 28.4272 20.6716 28.3036 20.6716C28.2058 20.6716 28.1195 20.6967 28.0449 20.747C27.9702 20.7972 27.8852 20.8713 27.79 20.9691Z" fill="#CCCCCC"/>
</svg>
