<svg width="218" height="58" viewBox="0 0 218 58" fill="none" xmlns="http://www.w3.org/2000/svg">
<path d="M0.331223 34.7046H0V21.8955H14.5409L18.3471 26.1364C20.513 28.4521 22.6869 30.7937 23.1683 31.3292L24.1832 32.4543V34.7046H23.7603C23.1683 34.7046 1.00788 34.7046 0.331223 34.7046Z" fill="#1A3C7B"/>
<path d="M26.5515 34.7046C26.5515 34.5315 26.5515 34.4915 26.5515 33.4929V32.4543L27.5056 31.4476C32.0356 26.4833 35.8406 22.1271 36.0246 21.8955C36.7013 21.8955 37.5471 21.8955 43.2141 21.8955H50.4035L50.3964 28.2924V34.7185H38.8307C32.4603 34.704 26.7207 34.7046 26.5515 34.7046Z" fill="#1A3C7B"/>
<path d="M23.6835 27.7134C22.5794 27.4095 21.9282 27.0187 20.9655 26.1069C19.7481 24.9635 18.9978 23.4004 18.8704 21.7794C18.7289 19.7387 19.3234 17.973 20.6258 16.5836C21.9282 15.1797 23.5561 14.4705 25.3965 14.4705C27.2792 14.4705 28.8789 15.1508 30.153 16.4823C31.5261 17.9296 32.0782 19.5361 31.9508 21.7505C31.8942 22.8504 31.8093 23.1833 31.3704 24.0951C29.9406 27.0476 26.7413 28.5528 23.6835 27.7134ZM27.1235 24.8622C28.5958 24.1675 29.3744 22.8649 29.3602 21.1281C29.3602 20.2019 29.3036 19.9269 28.9497 19.2611C27.6473 16.8296 24.6037 16.381 22.6218 18.3348C20.7107 20.2308 21.277 23.6899 23.7119 24.8333C24.6745 25.2964 26.2034 25.3109 27.1235 24.8622Z" fill="#1A3C7B"/>
<path d="M6.25194 20.5107C6.30856 20.4383 10.6597 15.9468 15.8692 10.5918C21.0787 5.22226 25.1982 1.12444 25.3674 0.951172C25.5365 1.12429 32.1914 7.55243 39.4677 14.9626L44.9903 20.5203H40.5295L36.0246 20.5107L30.8182 15.0929C27.8737 12.0825 25.3957 9.63466 25.3674 9.60572C25.3391 9.57677 22.9332 12.0101 19.9462 15.035L14.5102 20.5493L10.3964 20.5107C8.10312 20.5107 6.59026 20.5107 6.25194 20.5107Z" fill="#1A3C7B"/>
<path d="M66.8168 33.4208C64.113 33.4208 62.1833 32.7133 61.0275 31.2984C59.8717 29.8623 59.2938 27.7504 59.2938 24.9628V15.4276C59.2938 12.64 59.8717 10.5492 61.0275 9.15539C62.1833 7.74043 64.113 7.03295 66.8168 7.03295C69.5411 7.03295 71.4812 7.74043 72.637 9.15539C73.8134 10.5703 74.4016 12.6611 74.4016 15.4276V24.9628C74.4016 27.7504 73.8134 29.8623 72.637 31.2984C71.4812 32.7133 69.5411 33.4208 66.8168 33.4208ZM66.8168 29.3977C67.601 29.3977 68.117 29.1337 68.3647 28.6057C68.6123 28.0566 68.7362 27.3175 68.7362 26.3883V14.0338C68.7362 13.0835 68.6123 12.3443 68.3647 11.8163C68.117 11.2884 67.601 11.0244 66.8168 11.0244C66.0738 11.0244 65.5784 11.2989 65.3307 11.848C65.0831 12.376 64.9592 13.1046 64.9592 14.0338V26.3883C64.9592 27.3175 65.0728 28.0566 65.2998 28.6057C65.5268 29.1337 66.0325 29.3977 66.8168 29.3977Z" fill="#1A3C7B"/>
<path d="M84.9565 33.4208C82.2528 33.4208 80.323 32.7133 79.1673 31.2984C78.0115 29.8623 77.4336 27.7504 77.4336 24.9628V15.4276C77.4336 12.64 78.0115 10.5492 79.1673 9.15539C80.323 7.74043 82.2528 7.03295 84.9565 7.03295C87.6809 7.03295 89.6209 7.74043 90.7767 9.15539C91.9531 10.5703 92.5413 12.6611 92.5413 15.4276V24.9628C92.5413 27.7504 91.9531 29.8623 90.7767 31.2984C89.6209 32.7133 87.6809 33.4208 84.9565 33.4208ZM84.9565 29.3977C85.7408 29.3977 86.2568 29.1337 86.5044 28.6057C86.7521 28.0566 86.8759 27.3175 86.8759 26.3883V14.0338C86.8759 13.0835 86.7521 12.3443 86.5044 11.8163C86.2568 11.2884 85.7408 11.0244 84.9565 11.0244C84.2135 11.0244 83.7182 11.2989 83.4705 11.848C83.2228 12.376 83.099 13.1046 83.099 14.0338V26.3883C83.099 27.3175 83.2125 28.0566 83.4395 28.6057C83.6666 29.1337 84.1722 29.3977 84.9565 29.3977Z" fill="#1A3C7B"/>
<path d="M103.096 33.4208C100.393 33.4208 98.4628 32.7133 97.307 31.2984C96.1512 29.8623 95.5733 27.7504 95.5733 24.9628V15.4276C95.5733 12.64 96.1512 10.5492 97.307 9.15539C98.4628 7.74043 100.393 7.03295 103.096 7.03295C105.821 7.03295 107.761 7.74043 108.916 9.15539C110.093 10.5703 110.681 12.6611 110.681 15.4276V24.9628C110.681 27.7504 110.093 29.8623 108.916 31.2984C107.761 32.7133 105.821 33.4208 103.096 33.4208ZM103.096 29.3977C103.881 29.3977 104.397 29.1337 104.644 28.6057C104.892 28.0566 105.016 27.3175 105.016 26.3883V14.0338C105.016 13.0835 104.892 12.3443 104.644 11.8163C104.397 11.2884 103.881 11.0244 103.096 11.0244C102.353 11.0244 101.858 11.2989 101.61 11.848C101.363 12.376 101.239 13.1046 101.239 14.0338V26.3883C101.239 27.3175 101.352 28.0566 101.579 28.6057C101.806 29.1337 102.312 29.3977 103.096 29.3977Z" fill="#1A3C7B"/>
<path d="M121.975 7.38141H136.99V33.0407H131.541V11.4362H127.423V33.0407H121.975V7.38141Z" fill="#1A3C7B"/>
<path d="M140.812 7.38141H146.354V17.5501H146.911L150.595 7.38141H156.105L151.524 19.4191L156.26 33.0407H150.564L146.911 21.8583H146.354V33.0407H140.812V7.38141Z" fill="#1A3C7B"/>
<path d="M164.716 29.0492C165.892 29.0703 166.697 28.912 167.131 28.5741C167.564 28.2362 167.863 27.5392 168.028 26.4833C168.214 25.4062 168.42 23.2944 168.647 20.1477L168.74 18.8489L169.545 7.38141H182.827V33.0407H177.316V11.7213H174.561L174.065 19.9259C173.797 23.8751 173.508 26.6628 173.198 28.289C172.889 29.894 172.228 31.0977 171.217 31.9003C170.226 32.6816 168.586 33.0723 166.295 33.0723C165.614 33.0723 165.087 33.0618 164.716 33.0407V29.0492Z" fill="#1A3C7B"/>
<path d="M193.577 33.3574C190.956 33.3574 189.098 32.7133 188.004 31.4251C186.91 30.1157 186.364 28.289 186.364 25.9448V24.5826H191.781V26.2616C191.781 27.2753 191.884 28.0461 192.091 28.5741C192.297 29.0809 192.793 29.3343 193.577 29.3343C194.361 29.3343 194.867 29.0598 195.094 28.5107C195.341 27.9405 195.465 27.1485 195.465 26.1348V21.6366H191.317V18.7855H195.465V14.0972C195.465 13.0835 195.331 12.3126 195.063 11.7847C194.815 11.2356 194.32 10.961 193.577 10.961C192.813 10.961 192.318 11.2356 192.091 11.7847C191.884 12.3126 191.781 13.0835 191.781 14.0972V15.8711H186.364V14.604C186.364 12.1965 186.91 10.3169 188.004 8.96532C189.098 7.61372 190.956 6.93792 193.577 6.93792C196.301 6.93792 198.231 7.67707 199.366 9.15539C200.522 10.6126 201.1 12.735 201.1 15.5227V24.741C201.1 27.5709 200.522 29.7145 199.366 31.1717C198.231 32.6289 196.301 33.3574 193.577 33.3574Z" fill="#1A3C7B"/>
<path d="M210.858 33.5158C208.36 33.5158 206.585 32.8189 205.533 31.4251C204.48 30.0312 203.954 28.0461 203.954 25.4696V24.5509H209.155V25.533C209.155 26.8212 209.279 27.7293 209.527 28.2573C209.795 28.7852 210.27 29.0492 210.951 29.0492C211.611 29.0492 212.055 28.7852 212.282 28.2573C212.529 27.7293 212.653 26.8634 212.653 25.6597C212.653 24.287 212.447 23.2944 212.034 22.6819C211.642 22.0484 210.889 21.721 209.774 21.6999C209.712 21.6788 209.248 21.6682 208.381 21.6682V18.2153H209.65C210.806 18.1942 211.59 17.8774 212.003 17.265C212.437 16.6525 212.653 15.66 212.653 14.2872C212.653 13.2735 212.499 12.5133 212.189 12.0064C211.879 11.4784 211.384 11.2145 210.703 11.2145C210.063 11.2145 209.599 11.4784 209.31 12.0064C209.042 12.5344 208.897 13.2947 208.876 14.2872V15.7128H203.675V14.1605C203.675 11.8797 204.305 10.1163 205.564 8.87028C206.843 7.62428 208.567 7.00128 210.734 7.00128C212.942 7.00128 214.655 7.5926 215.873 8.77525C217.111 9.9579 217.731 11.6791 217.731 13.9388C217.731 15.396 217.442 16.642 216.864 17.6768C216.286 18.7116 215.553 19.3557 214.666 19.6092C215.636 19.9893 216.389 20.644 216.926 21.5732C217.462 22.4813 217.731 23.7907 217.731 25.5013C217.731 28.0144 217.184 29.9785 216.09 31.3934C214.996 32.8084 213.252 33.5158 210.858 33.5158Z" fill="#1A3C7B"/>
<path d="M1.16502 39.438H4.63881L6.24905 48.1577L7.98594 39.438H11.3331L11.5864 54.4337H9.28861L9.01722 44.4551L7.31652 54.4337H5.27205L3.46278 44.381L3.24567 54.4337H0.911723L1.16502 39.438Z" fill="#1A3C7B"/>
<path d="M14.6278 43.7331H17.5769V48.0281H17.6673C19.1871 48.0281 20.3028 48.2626 21.0145 48.7316C21.7382 49.2006 22.1 50.0275 22.1 51.2124C22.1 52.3725 21.7563 53.1995 21.0688 53.6931C20.3933 54.1868 19.2655 54.4337 17.6854 54.4337H14.6278V43.7331ZM23.2218 43.7331H26.1709V54.4337H23.2218V43.7331ZM17.6312 52.7119C18.2945 52.7119 18.7589 52.607 19.0243 52.3972C19.2896 52.1751 19.4223 51.7925 19.4223 51.2494C19.4223 50.694 19.2896 50.3176 19.0243 50.1201C18.771 49.9226 18.3187 49.8177 17.6673 49.8054H17.5769V52.7119H17.6312Z" fill="#1A3C7B"/>
<path d="M40.1918 52.6009C40.9758 52.2183 41.5669 51.6073 41.9649 50.7681C42.375 49.9165 42.6223 48.7316 42.7067 47.2135L43.0143 43.7331H48.7677V52.5823H50.2875V57.3402H48.1707L47.9717 54.4337H42.5077L42.3448 57.3402H40.1918V52.6009ZM46.0719 52.5823V45.5288H45.2035L44.9864 47.9355C44.914 49.2068 44.7391 50.2003 44.4617 50.9162C44.1963 51.632 43.8345 52.1874 43.3761 52.5823H46.0719Z" fill="#1A3C7B"/>
<path d="M56.0305 54.6188C54.8846 54.6188 53.9921 54.3102 53.3528 53.6931C52.7135 53.0637 52.3939 52.1812 52.3939 51.0458V47.121C52.3939 45.9855 52.7135 45.1092 53.3528 44.4921C53.9921 43.8626 54.8846 43.5479 56.0305 43.5479C57.1884 43.5479 58.0569 43.8503 58.6358 44.4551C59.2148 45.0598 59.5043 45.9485 59.5043 47.121V49.2685H55.3068V51.3235C55.3068 52.0887 55.548 52.4713 56.0305 52.4713C56.5371 52.4713 56.7904 52.1257 56.7904 51.4345V50.3052H59.5043V51.342C59.5043 52.4157 59.1967 53.2303 58.5816 53.7857C57.9785 54.3411 57.1281 54.6188 56.0305 54.6188ZM56.7904 47.8615V46.7877C56.7904 46.3928 56.718 46.1151 56.5733 45.9546C56.4406 45.7818 56.2536 45.6955 56.0124 45.6955C55.7832 45.6955 55.6083 45.788 55.4877 45.9731C55.3671 46.1583 55.3068 46.4853 55.3068 46.9543V47.8615H56.7904Z" fill="#1A3C7B"/>
<path d="M61.5076 52.4157C62.0383 52.4157 62.4364 52.3047 62.7017 52.0825C62.9671 51.848 63.1661 51.453 63.2988 50.8977C63.4315 50.3423 63.54 49.4906 63.6245 48.3428L63.9682 43.7331H70.6082V54.4337H67.6591V45.7695H66.465L66.2117 48.9353C66.1032 50.478 65.9162 51.6382 65.6508 52.4157C65.3975 53.1933 64.9935 53.7425 64.4386 54.0634C63.8838 54.3843 63.0757 54.5447 62.0142 54.5447H61.5076V52.4157Z" fill="#1A3C7B"/>
<path d="M75.6992 54.6188C75.1926 54.6188 74.7523 54.4954 74.3784 54.2485C74.0166 53.9894 73.7391 53.6623 73.5461 53.2673C73.3652 52.86 73.2748 52.4404 73.2748 52.0084C73.2748 51.1815 73.4798 50.5027 73.8899 49.972C74.3 49.4413 74.7885 49.0278 75.3554 48.7316C75.9344 48.4354 76.6762 48.1268 77.5808 47.806V46.7322C77.5808 46.4236 77.5326 46.1891 77.4361 46.0287C77.3516 45.8682 77.1948 45.788 76.9657 45.788C76.7365 45.788 76.5737 45.8621 76.4772 46.0102C76.3807 46.1583 76.3264 46.3681 76.3143 46.6396L76.242 47.4172L73.4919 47.3061C73.5401 46.0225 73.8718 45.0783 74.487 44.4736C75.1021 43.8565 76.0188 43.5479 77.237 43.5479C78.2623 43.5479 79.0463 43.8441 79.5891 44.4366C80.1319 45.0166 80.4033 45.7942 80.4033 46.7692V51.7678C80.4033 52.8539 80.4636 53.7425 80.5842 54.4337H77.9427C77.8341 53.6067 77.7557 53.1007 77.7075 52.9156C77.5627 53.4093 77.3215 53.8166 76.9838 54.1375C76.646 54.4584 76.2178 54.6188 75.6992 54.6188ZM76.7485 52.5823C77.0501 52.5823 77.3275 52.4034 77.5808 52.0455V49.1204C77.038 49.4413 76.6279 49.7807 76.3505 50.1386C76.0731 50.4842 75.9344 50.91 75.9344 51.416C75.9344 51.7739 76.0067 52.0578 76.1515 52.2676C76.2962 52.4774 76.4952 52.5823 76.7485 52.5823Z" fill="#1A3C7B"/>
<path d="M86.6558 54.6188C85.51 54.6188 84.6174 54.3102 83.9781 53.6931C83.3388 53.0637 83.0192 52.1812 83.0192 51.0458V47.121C83.0192 45.9855 83.3388 45.1092 83.9781 44.4921C84.6174 43.8626 85.51 43.5479 86.6558 43.5479C87.8138 43.5479 88.6822 43.8503 89.2612 44.4551C89.8401 45.0598 90.1296 45.9485 90.1296 47.121V49.2685H85.9321V51.3235C85.9321 52.0887 86.1734 52.4713 86.6558 52.4713C87.1624 52.4713 87.4157 52.1257 87.4157 51.4345V50.3052H90.1296V51.342C90.1296 52.4157 89.822 53.2303 89.2069 53.7857C88.6038 54.3411 87.7534 54.6188 86.6558 54.6188ZM87.4157 47.8615V46.7877C87.4157 46.3928 87.3433 46.1151 87.1986 45.9546C87.0659 45.7818 86.879 45.6955 86.6377 45.6955C86.4086 45.6955 86.2337 45.788 86.113 45.9731C85.9924 46.1583 85.9321 46.4853 85.9321 46.9543V47.8615H87.4157Z" fill="#1A3C7B"/>
<path d="M92.8386 43.7331H95.0097L97.1446 48.8612L99.2976 43.7331H101.469L101.505 54.4337H99.2072V48.8057L97.5969 52.7675H96.7285L95.1001 48.7871V54.4337H92.8024L92.8386 43.7331Z" fill="#1A3C7B"/>
<path d="M117.151 49.0463L115.197 43.7331H117.748L119.412 48.8057H119.629V43.7331H122.09V48.8057H122.289L124.062 43.7331H126.649L124.569 49.0463L126.758 54.4337H124.315L122.289 49.2685H122.09V54.4337H119.629V49.2685H119.412L117.512 54.4337H115.07L117.151 49.0463Z" fill="#1A3C7B"/>
<path d="M128.895 43.7331H131.229V49.4536L133.961 43.7331H136.259V54.4337H133.871V48.7686L131.211 54.4337H128.895V43.7331Z" fill="#1A3C7B"/>
<path d="M142.281 54.6373C141.364 54.6373 140.658 54.4707 140.164 54.1375C139.681 53.8042 139.356 53.3661 139.187 52.823C139.018 52.28 138.933 51.632 138.933 50.8791H141.267C141.267 51.4592 141.352 51.885 141.521 52.1565C141.702 52.4281 141.979 52.5638 142.353 52.5638C142.739 52.5638 143.004 52.4404 143.149 52.1936C143.294 51.9344 143.366 51.5765 143.366 51.1198C143.366 50.5891 143.221 50.2188 142.932 50.009C142.642 49.7869 142.136 49.6758 141.412 49.6758V48.1207C141.895 48.1207 142.257 48.0775 142.498 47.9911C142.751 47.9047 142.926 47.7689 143.022 47.5838C143.119 47.3987 143.167 47.1333 143.167 46.7877C143.167 46.0102 142.854 45.6214 142.226 45.6214C141.852 45.6214 141.587 45.7325 141.43 45.9546C141.286 46.1768 141.213 46.5532 141.213 47.0839H138.897C138.897 45.9978 139.151 45.1401 139.657 44.5106C140.176 43.8688 141.08 43.5479 142.371 43.5479C143.541 43.5479 144.41 43.8256 144.976 44.381C145.555 44.9241 145.845 45.6461 145.845 46.5471C145.845 47.2135 145.7 47.7381 145.411 48.1207C145.133 48.4909 144.765 48.744 144.307 48.8797C144.814 49.0772 145.206 49.3672 145.483 49.7498C145.76 50.1201 145.899 50.7002 145.899 51.4901C145.899 52.4528 145.598 53.218 144.995 53.7857C144.403 54.3534 143.499 54.6373 142.281 54.6373Z" fill="#1A3C7B"/>
<path d="M148.399 43.7331H151.349V47.88H153.104V43.7331H156.071V54.4337H153.104V49.9535H151.349V54.4337H148.399V43.7331Z" fill="#1A3C7B"/>
<path d="M158.991 43.7331H161.94V48.0281H162.03C163.55 48.0281 164.666 48.2626 165.377 48.7316C166.101 49.1883 166.463 50.0028 166.463 51.1753C166.463 52.3355 166.119 53.1686 165.432 53.6746C164.756 54.1807 163.628 54.4337 162.048 54.4337H158.991V43.7331ZM161.994 52.7119C162.658 52.7119 163.122 52.607 163.387 52.3972C163.653 52.1751 163.785 51.7925 163.785 51.2494C163.785 50.694 163.653 50.3176 163.387 50.1201C163.134 49.9226 162.682 49.8177 162.03 49.8054H161.94V52.7119H161.994Z" fill="#1A3C7B"/>
<path d="M181.424 49.9905C181.002 49.7683 180.682 49.3981 180.465 48.8797C180.248 48.3613 180.139 47.7628 180.139 47.0839C180.139 46.0472 180.447 45.2326 181.062 44.6402C181.689 44.0354 182.672 43.7331 184.011 43.7331H187.901V54.4337H184.97V50.62C184.669 50.62 184.373 50.6076 184.084 50.5829L182.907 54.4337H179.796L181.424 49.9905ZM184.97 48.8427V45.4363H184.843C184.18 45.4363 183.673 45.5782 183.324 45.8621C182.986 46.1336 182.817 46.5347 182.817 47.0654C182.817 48.2256 183.492 48.818 184.843 48.8427H184.97Z" fill="#1A3C7B"/>
<path d="M190.825 43.7331H193.774V44.5106C194.112 44.1897 194.48 43.949 194.878 43.7886C195.276 43.6281 195.662 43.5479 196.036 43.5479C196.796 43.5479 197.357 43.838 197.719 44.418C198.092 44.9981 198.279 45.7572 198.279 46.6952V51.3049C198.279 52.3293 198.08 53.1377 197.682 53.7302C197.284 54.3226 196.723 54.6188 196 54.6188C195.264 54.6188 194.522 54.2856 193.774 53.6191V57.9512H190.825V43.7331ZM194.552 52.6749C194.818 52.6749 195.011 52.5638 195.131 52.3417C195.264 52.1195 195.33 51.8295 195.33 51.4716V46.473C195.33 46.1521 195.27 45.8868 195.149 45.6769C195.029 45.4671 194.848 45.3622 194.607 45.3622C194.317 45.3622 194.04 45.4856 193.774 45.7325V52.3972C194.052 52.5824 194.311 52.6749 194.552 52.6749Z" fill="#1A3C7B"/>
<path d="M205.225 50.1201C204.899 50.1571 204.58 50.1756 204.266 50.1756C202.987 50.1756 202.095 49.9535 201.588 49.5092C201.082 49.0525 200.828 48.3799 200.828 47.4912V43.7331H203.759V47.3061C203.759 47.7134 203.832 48.0096 203.977 48.1947C204.133 48.3675 204.429 48.4601 204.863 48.4724L205.225 48.4539V43.7331H208.174V54.4337H205.225V50.1201Z" fill="#1A3C7B"/>
<path d="M214.526 54.6188C213.38 54.6188 212.488 54.3102 211.849 53.6931C211.209 53.0637 210.89 52.1812 210.89 51.0458V47.121C210.89 45.9855 211.209 45.1092 211.849 44.4921C212.488 43.8626 213.38 43.5479 214.526 43.5479C215.684 43.5479 216.553 43.8503 217.132 44.4551C217.711 45.0598 218 45.9485 218 47.121V49.2685H213.803V51.3235C213.803 52.0887 214.044 52.4713 214.526 52.4713C215.033 52.4713 215.286 52.1257 215.286 51.4345V50.3052H218V51.342C218 52.4157 217.692 53.2303 217.077 53.7857C216.474 54.3411 215.624 54.6188 214.526 54.6188ZM215.286 47.8615V46.7877C215.286 46.3928 215.214 46.1151 215.069 45.9546C214.936 45.7818 214.749 45.6955 214.508 45.6955C214.279 45.6955 214.104 45.788 213.983 45.9731C213.863 46.1583 213.803 46.4853 213.803 46.9543V47.8615H215.286Z" fill="#1A3C7B"/>
</svg>
