<svg width="218" height="68" viewBox="0 0 218 68" fill="none" xmlns="http://www.w3.org/2000/svg">
<path d="M14.7243 57.9709C5.50661 57.9709 0.5 51.3758 0.5 43.1125C0.5 34.7649 6.39315 27.917 16.0693 27.917C18.638 27.917 20.8664 28.2513 22.8035 29.2541V34.6385C20.2349 33.1358 18.1764 32.8406 16.2819 32.8406C9.71773 32.8406 7.29489 37.6438 7.29489 42.6939C7.29489 48.3282 10.3462 52.7942 15.6898 52.7942C18.0489 52.7942 19.9465 52.1468 22.2176 50.9362L23.8541 55.2998C20.4505 57.4287 17.5419 57.9709 14.7243 57.9709ZM118.375 57.9709C111.556 57.9709 108.064 53.0051 108.064 47.0786C108.064 40.4415 112.695 36.0568 118.879 36.0568C121.615 36.0568 123.045 36.5989 124.18 37.2675V42.0285C122.665 40.9413 121.445 40.5648 119.763 40.5648C116.271 40.5648 114.021 43.1125 114.021 46.7864C114.021 50.0839 115.764 53.2971 119.678 53.2971C120.771 53.2971 122.219 52.8274 123.773 52.0354L125.231 55.9683C123.467 57.1367 120.522 57.9709 118.375 57.9709ZM137.342 41.2333V57.5553H131.282V41.2333H125.392V36.4754H143.994L142.68 41.2333H137.342ZM166.647 38.9388C166.647 46.2836 166.352 50.1262 165.007 51.8788C164.333 52.7551 163.283 53.3422 162.187 53.5049L163.869 57.9709C165.256 57.9286 167.406 57.3444 168.878 55.884C170.815 54.0048 171.444 51.6258 171.738 49.1203C171.991 46.9912 172.161 44.4888 172.161 42.2753V41.2305H176.9V57.5523H182.959V36.4724H166.647V38.9388ZM97.9329 36.0568C95.5768 36.0568 93.7672 37.186 92.2097 38.3967L91.5357 36.4754H86.4442V67.8242L92.5043 65.9873V57.0945C93.6003 57.6787 95.0303 57.9709 96.5879 57.9709C102.858 57.9709 106.644 52.6708 106.644 46.41C106.644 39.7307 102.815 36.0568 97.9329 36.0568ZM95.1153 53.6314C94.0193 53.6314 93.1782 53.255 92.5043 52.7972V42.8205C93.2207 41.7363 95.1153 40.4415 96.7123 40.4415C99.1534 40.4415 100.583 41.9862 100.583 46.3288C100.583 49.9183 99.2383 53.6314 95.1153 53.6314ZM152.702 36.0568C149.839 36.0568 147.067 36.4964 144.158 38.3636L145.995 42.0013C147.422 41.2033 149.259 40.583 151.408 40.583C153.51 40.583 155.389 41.5045 155.389 43.7208V44.0792L151.715 44.2178C146.353 44.3955 142.731 46.7022 142.731 51.1379C142.731 55.3118 145.767 57.9709 149.793 57.9709C152.526 57.9709 154.402 56.953 155.787 55.7092L156.728 57.5553H161.47V43.8654C161.47 38.3185 158.34 36.0568 152.702 36.0568ZM155.389 52.3365C154.809 52.7792 153.598 53.3122 151.988 53.3122C149.927 53.3122 148.767 52.2912 148.767 50.6983C148.767 49.0993 150.018 48.2139 152.614 48.1234L155.389 48.0362V52.3365ZM194.731 43.3204H191.616V35.5569L185.556 37.168V57.5553H193.301C198.939 57.5553 204.202 56.0496 204.202 50.2495C204.202 45.326 199.95 43.3204 194.731 43.3204ZM193.721 53.3965H191.616V47.5123H193.637C195.782 47.5123 198.14 47.8465 198.14 50.3489C198.14 52.8123 196.118 53.3965 193.721 53.3965ZM59.219 46.0758V45.9071C61.1955 45.4916 62.838 44.1966 62.838 41.4412C62.838 38.1527 60.0539 36.9542 57.3184 36.5898C56.4804 36.4785 54.6435 36.4754 53.6204 36.4754H44.9583V57.5553H52.2328C53.0374 57.5553 54.2367 57.5523 55.1718 57.5251C58.9975 57.3444 63.7216 55.9894 63.7216 51.0838C63.7216 48.0783 62.079 46.5756 59.219 46.0758ZM51.1368 40.4896H53.6204C56.1009 40.4896 57.03 41.2425 57.03 42.5373C57.03 44.1635 55.515 44.6634 52.9889 44.6634H51.1368V40.4896ZM53.4929 53.5562H51.0093V48.3795H53.1983C56.1009 48.3795 57.6584 49.048 57.6584 50.9272C57.6584 52.9297 55.5969 53.5562 53.4929 53.5562ZM42.9635 46.8286C42.9635 40.3149 38.9224 36.0568 33.1142 36.0568C26.7596 36.0568 23.183 41.1492 23.183 47.0786C23.183 52.6286 26.2981 57.9709 33.8734 57.9709C36.4388 57.9709 39.2989 57.3897 42.247 55.5497L40.8989 51.7523C38.5004 52.8815 36.9428 53.255 34.8813 53.255C32.0607 53.255 29.3677 51.5024 29.24 48.6625H42.9635V46.8286ZM29.1156 44.5339C29.1156 42.6127 30.5062 40.4415 32.9442 40.4415C35.5159 40.4415 36.6483 42.5283 36.7759 44.5339H29.1156ZM84.7105 46.8286C84.7105 40.3149 80.6695 36.0568 74.8613 36.0568C68.5066 36.0568 64.9301 41.1492 64.9301 47.0786C64.9301 52.6286 68.0451 57.9709 75.6202 57.9709C78.1859 57.9709 81.0488 57.3897 83.9939 55.5497L82.646 51.7523C80.2505 52.8815 78.6899 53.255 76.6282 53.255C73.8108 53.255 71.1177 51.5024 70.9902 48.6625H84.7105V46.8286ZM70.8627 44.5339C70.8627 42.6127 72.2531 40.4415 74.6913 40.4415C77.2598 40.4415 78.3953 42.5283 78.5228 44.5339H70.8627Z" fill="#002F6C"/>
<path d="M214.988 21.5821C214.641 21.82 214.287 22.0068 213.925 22.1212C212.726 22.4977 211.247 22.1514 209.92 21.6093C208.974 21.2209 207.981 20.718 206.94 20.0825C207.482 18.7665 207.992 17.2638 208.426 15.6016C209.101 13.0208 209.422 10.7472 209.489 8.75059C209.531 7.51592 209.471 6.38663 209.334 5.35974C209.146 3.94739 208.708 2.51095 207.78 1.66474C207.486 1.40275 207.128 1.18292 206.726 1.00223C208.623 0.797457 210.308 0.782402 211.797 0.890812C213.361 1.02331 214.95 1.40576 215.88 2.30919C216.809 3.2126 217.22 4.78757 217.383 6.33243C217.535 7.80802 217.547 9.47934 217.372 11.3705C217.191 13.2346 216.828 15.3064 216.229 17.6041H216.233C215.856 19.0256 215.424 20.3837 214.988 21.5821ZM192.073 20.4137C192.037 19.9982 192.053 19.5978 192.135 19.2302C192.404 18.0107 193.446 16.9175 194.585 16.0442C195.399 15.4269 196.33 14.8246 197.408 14.2464C198.287 15.3727 199.343 16.5592 200.578 17.7637C202.495 19.6339 204.319 21.0461 206.028 22.1002C207.084 22.7536 208.099 23.2655 209.064 23.6631C210.392 24.2052 211.864 24.5515 213.068 24.175C213.446 24.0516 213.815 23.8558 214.175 23.6028C213.403 25.3344 212.574 26.7919 211.735 28.0146C210.837 29.2914 209.712 30.4688 208.457 30.8121C207.204 31.1584 205.625 30.7249 204.195 30.0925C202.831 29.4871 201.364 28.659 199.8 27.5629C198.265 26.4787 196.634 25.1296 194.929 23.4644C193.874 22.4375 192.9 21.3896 192.073 20.4137ZM204.518 1.31241C204.902 1.49008 205.242 1.70389 205.522 1.95685C206.449 2.80005 206.883 4.24251 207.079 5.65486C207.213 6.66067 207.27 7.76585 207.236 8.97945C205.813 9.16917 204.249 9.48236 202.58 9.9431C199.988 10.6538 197.842 11.5151 196.066 12.4576C194.967 13.0388 194.012 13.6532 193.185 14.2855C192.046 15.1528 191.008 16.246 190.735 17.4686C190.654 17.8541 190.637 18.2696 190.683 18.7032C189.558 17.1765 188.697 15.734 188.051 14.403C187.382 12.9937 186.921 11.4368 187.247 10.187C187.57 8.93729 188.74 7.79597 190.006 6.88653C191.218 6.01622 192.672 5.17002 194.411 4.37802C196.128 3.60108 198.122 2.87533 200.426 2.24293C201.853 1.84543 203.256 1.53525 204.518 1.31241Z" fill="#002F6C"/>
</svg>
