<svg width="220" height="43" viewBox="0 0 220 43" fill="none" xmlns="http://www.w3.org/2000/svg">
<path d="M0.446505 42.7118C0.488737 42.571 1.263 39.6716 2.16395 36.2655C3.06491 32.8594 4.10664 28.9325 4.47265 27.5391C5.26099 24.6397 7.02067 17.9542 9.6813 7.90477C10.6949 4.07642 11.5395 0.881438 11.5536 0.825139C11.5677 0.76884 14.4113 3.30231 17.8603 6.45506C21.3093 9.60782 24.6738 12.6761 25.3213 13.2673L26.5038 14.351L27.1514 13.8303C27.4893 13.5488 29.8402 11.5783 32.346 9.453C34.8658 7.3277 38.1318 4.58311 39.5959 3.34453C41.074 2.10595 42.3691 1.02219 42.4958 0.909588C42.6929 0.74069 42.8055 1.05034 43.5094 3.71048C43.9458 5.35723 45.3817 10.7901 46.705 15.7867C48.0283 20.7832 49.8724 27.7784 50.8156 31.3393C51.7447 34.9003 52.8146 38.9679 53.1947 40.3894L53.8704 42.9511L51.3787 42.9229L48.887 42.8807L47.6059 37.9545C46.9021 35.2521 44.9734 27.9051 43.3405 21.6277C41.7075 15.3644 40.3138 10.0441 40.2575 9.83302C40.159 9.43893 40.0886 9.48115 33.5003 14.9C29.8402 17.8979 26.7572 20.4173 26.6446 20.4877C26.5038 20.5862 26.0393 20.2343 24.8568 19.1505C23.984 18.3342 21.7457 16.3074 19.9015 14.6466C18.0433 12.9999 15.988 11.142 15.3264 10.5508C14.6788 9.94562 14.1157 9.48115 14.0875 9.5093C14.0031 9.57967 11.6662 18.5876 6.92213 36.9974L5.38769 42.9511H2.8819C0.559124 42.9511 0.376117 42.937 0.446505 42.7118Z" fill="#0A4183"/>
<path d="M7.90756 42.7118C7.94979 42.5711 9.28715 37.3915 10.8779 31.1986C12.4687 25.0057 14.1579 18.4046 14.6366 16.5327C15.5094 13.1266 15.5094 13.1266 15.805 13.3799C17.9589 15.3504 26.6306 22.9649 26.7009 22.9649C26.7713 22.9649 27.5737 22.3456 28.5169 21.5996C30.9805 19.601 36.6115 15.0267 37.808 14.0414C38.3711 13.591 38.8638 13.2392 38.9061 13.2814C38.9483 13.3236 39.1595 14.0837 39.3847 14.9563C39.61 15.843 41.2429 22.3878 43.0449 29.5096C44.8327 36.6315 46.3249 42.5711 46.3671 42.7118C46.4375 42.937 46.2545 42.9511 43.9317 42.9511H41.4259L40.9895 41.431C40.7361 40.6006 39.9337 37.8419 39.1736 35.2803C38.4275 32.7328 37.4702 29.4393 37.0479 27.9614C36.6255 26.4976 36.161 24.9072 36.0061 24.4427C35.8654 23.9782 35.6401 23.2323 35.5134 22.796C35.4008 22.3456 35.2459 21.9796 35.1896 21.9796C35.1192 21.9796 33.1484 23.6264 30.7975 25.625C28.2776 27.7784 26.4475 29.2422 26.3631 29.1859C26.2645 29.1296 24.35 27.7644 22.0976 26.1598C19.8452 24.5412 17.9589 23.2182 17.9025 23.2041C17.8462 23.1901 16.6778 27.6096 15.3264 33.0284L12.8487 42.8807L10.343 42.9229C7.99203 42.9511 7.83717 42.937 7.90756 42.7118Z" fill="#0A4183"/>
<path d="M15.3686 42.7118C15.4108 42.5711 15.6642 41.417 15.9317 40.1361C16.2132 38.8553 16.7904 36.167 17.2127 34.1543C17.6491 32.1416 18.2263 29.4252 18.5078 28.1022C18.7753 26.7932 19.0287 25.6813 19.0569 25.6532C19.085 25.625 19.5918 25.9769 20.1971 26.4273C23.0689 28.5666 23.9136 29.2 23.9558 29.2845C23.9981 29.3267 23.7447 30.7201 23.4209 32.3668C23.083 34.0136 22.8578 35.3366 22.9282 35.3226C22.9845 35.2944 23.7869 34.6188 24.7019 33.7884C30.9945 28.1725 33.9226 25.625 33.979 25.6813C34.0212 25.7235 34.3309 26.8354 34.6547 28.1444L35.26 30.5512L32.8105 32.9861C31.4732 34.3232 30.3751 35.4633 30.3751 35.5055C30.3751 35.5618 32.2897 37.2367 34.6124 39.2354L38.8638 42.8807L35.809 42.923L32.7542 42.9511L29.8683 40.671C28.2776 39.4043 26.8699 38.2923 26.7291 38.1938C26.5038 38.039 26.1237 38.3064 23.3927 40.488L20.3098 42.9511H17.804C15.4812 42.9511 15.2982 42.937 15.3686 42.7118Z" fill="#0A4183"/>
<path d="M187.057 24.2315H190.576L190.605 30.0163L190.647 35.8151L195.095 30.34C197.531 27.328 199.713 24.6256 199.952 24.3301L200.36 23.7952L202.753 23.8797V41.6139H199.375L199.234 29.9741L196.404 33.4787C194.856 35.3929 192.674 38.0952 191.548 39.4605L189.521 41.9658H187.057V24.2315Z" fill="#0A4183"/>
<path d="M210.144 41.7407C208.835 41.4029 207.638 40.7273 206.751 39.8406C206.287 39.3761 205.921 38.9257 205.921 38.8413C205.921 38.7427 206.399 38.2079 207.005 37.6449L208.089 36.6456L208.328 37.0115C208.68 37.6027 209.694 38.4472 210.412 38.7709C211.242 39.1368 213.114 39.2635 214.029 39.0101C215.367 38.6301 216.211 37.3212 215.93 36.0685C215.62 34.647 214.621 34.098 212.171 33.9854L210.566 33.901V31.0157L212.087 30.9734C213.509 30.9171 213.663 30.889 214.128 30.523C214.832 29.9882 215.113 29.397 215.029 28.637C214.888 27.3843 214.142 26.8636 212.467 26.8777C211.298 26.8777 210.271 27.2014 209.539 27.7784C209.243 28.0177 208.947 28.1444 208.891 28.0881C208.835 28.0177 208.413 27.4969 207.962 26.9199L207.146 25.8924L207.554 25.5546C210.848 22.8804 216.676 23.4575 218.07 26.6102C218.492 27.5814 218.548 28.9185 218.182 29.8756C217.901 30.6356 217.253 31.466 216.69 31.8179C216.535 31.9164 216.479 32.015 216.549 32.0572C218.647 33.0002 219.717 34.7455 219.548 36.9552C219.351 39.3057 217.69 41.0228 214.86 41.7547C213.804 42.0222 211.2 42.0222 210.144 41.7407Z" fill="#0A4183"/>
<path d="M73.8181 37.2226C71.3686 31.466 71.1997 31.086 71.1434 31.1423C71.1012 31.1705 70.6929 33.5069 70.2143 36.3219C69.7357 39.1509 69.3274 41.5014 69.2852 41.5718C69.1726 41.7407 65.8503 41.7125 65.8503 41.5436C65.8503 41.4029 68.6235 26.385 68.9614 24.6961L69.1022 23.9501H70.3269L71.5517 23.9642L73.5225 28.637C74.5924 31.2127 75.6763 33.7462 75.9157 34.281L76.3521 35.2381L78.4918 30.4104C79.6603 27.7503 80.7865 25.2028 80.9835 24.7664L81.3355 23.9501H82.5321C83.6583 23.9501 83.7286 23.9642 83.799 24.2738C83.8835 24.6398 86.5301 40.3613 86.6427 41.1636L86.7271 41.6984L83.25 41.614L83.1515 41.1214C83.0107 40.4599 82.5321 37.293 82.0816 34.0136C81.8845 32.5498 81.6733 31.2971 81.617 31.2268C81.5748 31.1705 80.4627 33.535 79.1535 36.4767L76.7885 41.8251H75.7749L73.8181 37.2226Z" fill="#0A4183"/>
<path d="M98.6085 41.0932C98.4255 40.685 97.3979 38.2783 96.328 35.7448C95.244 33.2113 94.329 31.1845 94.2867 31.2408C94.2304 31.2971 93.8363 33.5632 93.3858 36.2656C92.9353 38.982 92.5411 41.3043 92.513 41.4451C92.4426 41.6562 92.2314 41.6844 90.7674 41.6844C89.8523 41.6844 89.064 41.6421 89.0359 41.5858C89.0077 41.5155 89.1203 40.7132 89.3033 39.7843C89.6271 38.1094 90.6125 32.8595 90.9785 30.8468C91.0912 30.2697 91.4009 28.5526 91.6824 27.0466C91.9499 25.5405 92.2033 24.2175 92.2455 24.1331C92.2877 24.0064 92.6678 23.9501 93.4984 23.9501H94.6809L95.4974 25.8924C95.9479 26.948 97.0178 29.4956 97.8906 31.5364L99.4672 35.2662L99.8755 34.3514C100.101 33.8588 101.227 31.3112 102.381 28.7074L104.479 23.9501H105.718C106.393 23.9501 106.956 23.9923 106.956 24.0345C106.956 24.1331 109.167 37.3212 109.617 39.925C109.758 40.7836 109.856 41.5155 109.814 41.5858C109.786 41.6421 108.998 41.6844 108.069 41.6844C107.154 41.6844 106.393 41.6421 106.379 41.5858C106.379 41.5155 106.351 41.3466 106.323 41.1917C106.295 41.0369 105.985 38.982 105.633 36.6174C105.267 34.2529 104.929 32.0431 104.873 31.6912L104.746 31.0579L104.507 31.5505C104.38 31.8179 103.296 34.2247 102.114 36.8989L99.9459 41.7547L99.4391 41.797C98.9464 41.8392 98.9182 41.811 98.6085 41.0932Z" fill="#0A4183"/>
<path d="M147.739 41.0932C147.556 40.6851 146.528 38.2783 145.458 35.7448C144.374 33.2113 143.459 31.1845 143.403 31.2408C143.361 31.2971 142.952 33.5491 142.502 36.2515C142.052 38.9539 141.657 41.2762 141.629 41.4169C141.559 41.6562 141.39 41.6844 139.884 41.6844C138.969 41.6844 138.194 41.6421 138.166 41.5858C138.138 41.5155 138.321 40.3613 138.574 39.0101C138.828 37.659 139.518 33.9573 140.109 30.7764C140.686 27.6095 141.221 24.7805 141.277 24.5131L141.39 24.0205L143.797 23.936L145.078 26.934C145.768 28.5807 146.838 31.086 147.429 32.5076C148.034 33.9151 148.555 35.0692 148.612 35.0692C148.682 35.0692 150.104 31.9305 152.722 25.9628L153.609 23.9501H156.03L156.34 25.822C156.509 26.8354 157.171 30.8045 157.818 34.6188C158.466 38.419 158.959 41.5718 158.93 41.614C158.888 41.6562 158.114 41.6844 157.199 41.6844C155.58 41.6844 155.524 41.6703 155.453 41.3747C155.397 41.1073 154.299 33.6758 154.031 31.7335C153.933 31.0157 153.806 30.9734 153.581 31.5927C153.496 31.832 152.441 34.2247 151.258 36.8989L149.09 41.7547L148.583 41.797C148.077 41.8392 148.063 41.8251 147.739 41.0932Z" fill="#0A4183"/>
<path d="M113.108 41.5999C113.052 41.5436 113.01 37.6167 113.01 32.8594V24.2316H116.529L116.557 27.8347L116.599 31.4379L123.019 24.2316H127.411L126.58 25.1183C126.116 25.5968 124.427 27.3984 122.808 29.1296L119.88 32.2542L120.372 32.8594C120.64 33.1832 122.385 35.2522 124.258 37.4619C126.116 39.6717 127.65 41.5155 127.65 41.5858C127.65 41.6421 126.651 41.6844 125.44 41.6844H123.216L120.119 37.8419C118.415 35.7448 116.923 34.0136 116.811 34.0136C116.628 34.0136 116.585 34.5907 116.529 37.8138L116.459 41.614L114.826 41.6562C113.939 41.6703 113.165 41.6421 113.108 41.5999Z" fill="#0A4183"/>
<path d="M162.239 41.5858C162.182 41.5436 162.14 37.6167 162.14 32.8594V24.2316H171.994V27.1873H165.659V30.9875L168.658 31.0156L171.642 31.0579L171.727 33.9432H165.659V38.7286H172.008L171.924 41.614L167.123 41.6562C164.491 41.6703 162.295 41.6421 162.239 41.5858Z" fill="#0A4183"/>
<path d="M177.484 27.2014L173.472 27.1169V24.302L179.216 24.2597L184.945 24.2316V27.1873H181.004L180.976 34.4077L180.933 41.614L177.484 41.6984V27.2014Z" fill="#0A4183"/>
<path d="M128.917 34.2246H135.956V37.0396H128.917V34.2246Z" fill="#0A4183"/>
<path d="M68.7782 20.0238C67.8913 19.8971 66.9341 19.3904 66.0472 18.5741C64.7662 17.3918 64.2875 15.4072 64.8365 13.5775C65.2166 12.353 65.7797 11.5648 66.7229 10.9314C68.1306 10.0166 70.3549 9.76323 71.8752 10.3684L72.4665 10.6077V11.6493C72.4665 12.2263 72.4383 12.6908 72.3961 12.6908C72.3679 12.6908 72.1146 12.536 71.833 12.353C70.4957 11.4381 68.7501 11.607 67.6098 12.7471C66.9341 13.4368 66.6948 14.056 66.6948 15.1961C66.6948 16.1532 66.9622 16.7725 67.6661 17.4481C68.3277 18.0814 69.0175 18.3207 70.0874 18.3207C70.8335 18.3207 71.9034 17.9548 72.1005 17.6311C72.3398 17.251 72.4665 17.5607 72.4665 18.5178V19.5593L71.9315 19.7704C71.2558 20.0378 69.8059 20.1504 68.7782 20.0238Z" fill="#05A4E7"/>
<path d="M90.5279 19.9112C90.4153 19.869 90.3449 19.5593 90.3449 19.0808V18.3207H90.8235C91.4429 18.3207 91.9919 17.8703 92.175 17.2229C92.2453 16.9414 92.3157 15.2665 92.3157 13.5072V10.2981H99.2137V19.869H97.2428L97.2147 15.8999L97.1724 11.9167L94.2866 11.8323V14.4361C94.2866 17.7296 94.174 18.3489 93.3715 19.1089C92.9211 19.5453 92.5832 19.7423 92.0342 19.8549C91.2881 20.0238 90.8235 20.0379 90.5279 19.9112Z" fill="#05A4E7"/>
<path d="M75.7043 11.8463H73.4519V10.2981H79.9276V11.8463H77.6752V19.869H75.7043V11.8463Z" fill="#05A4E7"/>
<path d="M79.5052 19.7845C79.5052 19.7423 80.1106 18.3348 80.8567 16.6599C81.6028 14.985 82.5319 12.8738 82.9261 11.9871C83.3202 11.1004 83.7003 10.284 83.7707 10.1996C83.8552 10.087 84.2212 10.0166 84.6576 10.0166C85.3051 10.0166 85.4178 10.0588 85.5022 10.3403C85.5726 10.5937 87.5435 15.1539 88.7964 17.9689C88.9371 18.2785 89.1764 18.8274 89.3313 19.2075L89.6269 19.869H87.4449L87.1071 19.0667C86.9241 18.6163 86.727 18.1659 86.6425 18.0815C86.544 17.9548 85.9386 17.8985 84.4887 17.8985H82.4615L82.0251 18.8837L81.5746 19.869H80.547C79.9698 19.869 79.5052 19.8267 79.5052 19.7845ZM85.9527 16.2377C85.9386 16.1814 85.6289 15.4495 85.277 14.6191C84.9391 13.7887 84.6013 13.1131 84.545 13.1131C84.4746 13.1131 84.3901 13.2257 84.3338 13.3664C84.2916 13.4931 84.01 14.1827 83.7003 14.8865C83.4047 15.5902 83.1654 16.2095 83.1654 16.2658C83.1654 16.308 83.7989 16.3503 84.5872 16.3503C85.3615 16.3503 85.9809 16.294 85.9527 16.2377Z" fill="#05A4E7"/>
<path d="M101.325 10.2981H103.296V13.9153L104.605 13.9857C106.027 14.0701 106.801 14.3235 107.421 14.9146C108.012 15.4776 108.265 16.0406 108.265 16.8429C108.265 17.814 108.026 18.4615 107.477 18.9963C106.731 19.7282 106.083 19.869 103.564 19.869H101.325V10.2981ZM105.689 17.9266C106.393 17.4059 106.421 16.4206 105.746 15.9843C105.534 15.8295 104.985 15.7169 104.338 15.6747L103.296 15.6043V16.871C103.296 17.5607 103.338 18.18 103.409 18.2363C103.592 18.4333 105.309 18.1941 105.689 17.9266Z" fill="#05A4E7"/>
</svg>
