<svg width="200" height="53" viewBox="0 0 200 53" fill="none" xmlns="http://www.w3.org/2000/svg">
<path d="M171.536 52.7367C171.205 52.6759 170.927 52.6063 170.91 52.589C170.858 52.5455 171.935 46.6785 171.996 46.6003C172.022 46.5742 172.3 46.6003 172.613 46.6698C173.335 46.8176 173.813 46.8176 174.56 46.6611C176.42 46.27 177.185 45.1053 177.872 41.6198C178.028 40.8115 178.68 37.3174 179.315 33.8667L180.479 27.5825H199.471L199.462 27.7824C199.462 27.8867 198.437 33.5104 197.185 40.2726L194.899 52.5716L191.353 52.5976L187.807 52.615L187.859 52.3803C187.954 51.9284 191.301 33.8146 191.301 33.7363C191.301 33.7016 190.206 33.6668 188.867 33.6668H186.433L186.39 33.8667C186.364 33.971 185.99 35.9788 185.564 38.3169C184.512 44.0101 184.382 44.6794 184.069 45.7485C182.852 49.8858 180.332 52.0935 176.047 52.7541C175.038 52.9105 172.344 52.9019 171.536 52.7367Z" fill="#1F1A17"/>
<path d="M67.216 47.5564C68.1374 44.7663 69.9974 39.134 71.3533 35.0401L73.8218 27.5825H80.8796L81.6532 35.127L82.4354 42.6803L89.5627 27.5912L93.109 27.5825H96.6553L96.6031 28.4778C96.5336 29.712 95.6905 51.5372 95.6905 52.137V52.615H88.9109V52.1196C88.9195 51.8415 89.0847 48.6429 89.2933 45.0097C89.5019 41.3765 89.667 38.3952 89.6584 38.3865C89.6497 38.3778 88.1199 41.5764 86.2598 45.4964L82.87 52.615H80.5928C78.8196 52.615 78.3068 52.589 78.3068 52.5107C78.3068 52.3369 76.8205 38.4126 76.8031 38.3952C76.7944 38.3865 75.7862 41.5677 74.5693 45.4703L72.3442 52.5716L68.9457 52.5976L65.5472 52.615L67.216 47.5564Z" fill="#1F1A17"/>
<path d="M101.288 52.3803C101.366 52.0153 105.86 27.6868 105.86 27.6347C105.86 27.5564 120.897 27.5738 120.897 27.6521C120.897 27.6868 120.653 29.0514 120.358 30.6855L119.81 33.6668L115.812 33.6842L111.814 33.7103L111.536 35.1879C111.388 36.0049 111.258 36.7524 111.258 36.8654L111.249 37.0566H118.437L118.159 38.5603C118.002 39.3773 117.768 40.629 117.637 41.3417L117.403 42.6194H110.162L109.806 44.5577L109.458 46.4873L113.439 46.5134C115.63 46.522 117.42 46.5394 117.42 46.5568C117.42 46.609 116.377 52.2326 116.334 52.4238L116.29 52.615H101.236L101.288 52.3803Z" fill="#1F1A17"/>
<path d="M135.238 52.5542C135.238 52.5107 135.63 50.3378 136.116 47.7215C136.603 45.1053 136.985 42.941 136.968 42.9236C136.951 42.9062 136.507 42.9497 135.977 43.0192C133.778 43.3061 130.614 43.2626 128.98 42.9236C126.651 42.4282 125.243 41.2722 124.799 39.4903C124.626 38.795 124.669 36.9784 124.895 35.6659C125.095 34.5012 126.26 28.104 126.329 27.7824L126.373 27.5825H129.893C131.831 27.5825 133.413 27.6173 133.413 27.6521C133.413 27.6955 133.135 29.2079 132.796 31.0245C132.092 34.8141 131.996 35.7702 132.266 36.3874C132.561 37.0566 133.309 37.4043 134.76 37.5347C135.377 37.5955 137.924 37.3695 138.028 37.2478C138.055 37.2131 138.454 35.0923 138.924 32.5369C139.393 29.9815 139.793 27.8172 139.81 27.739C139.854 27.5912 140.097 27.5825 143.383 27.5825H146.903L146.851 27.8693C146.625 29.1644 142.357 52.2674 142.322 52.4238L142.279 52.615H138.759C136.82 52.615 135.238 52.589 135.238 52.5542Z" fill="#1F1A17"/>
<path d="M149.928 52.5803C149.928 52.5281 154.421 28.1736 154.5 27.8259L154.552 27.5825H162.061C168.015 27.5825 169.571 27.6086 169.571 27.6955C169.562 27.7477 169.319 29.1123 169.024 30.7116L168.485 33.6234L164.478 33.6494L160.479 33.6668L159.871 37.0132L163.461 37.0392C166.59 37.0566 167.051 37.074 167.051 37.187C167.051 37.2652 166.833 38.4821 166.572 39.8902C166.312 41.3069 166.094 42.4977 166.094 42.5412C166.094 42.5846 164.504 42.6194 162.461 42.6194H158.828L158.489 44.4708C158.307 45.479 158.141 46.3656 158.115 46.4264C158.089 46.5047 158.924 46.5307 162.096 46.5307H166.112L166.068 46.7306C166.042 46.835 165.799 48.1127 165.529 49.5729C165.269 51.0331 165.025 52.3108 165.008 52.4238L164.964 52.615H157.446C153.309 52.615 149.928 52.5976 149.928 52.5803Z" fill="#1F1A17"/>
<path d="M46.6953 52.3553C43.4185 51.4948 41.9669 47.9399 42.7144 42.577C43.0534 40.1085 43.9313 37.275 45.348 34.0156C48.9378 25.7844 54.3789 18.9004 61.6192 13.4507C70.7022 6.61887 82.5839 2.07303 95.1349 0.638878C97.4209 0.378123 97.4122 0.369431 95.9085 1.08216C81.1584 8.00087 71.3888 16.6753 65.122 28.4093C63.4358 31.5645 62.358 34.1807 60.9064 38.6048C59.7417 42.1598 58.803 44.2458 57.3776 46.4449C55.2567 49.7217 52.8317 51.7295 50.2242 52.3553C49.242 52.59 47.5818 52.59 46.6953 52.3553Z" fill="#1F1A17"/>
<path d="M5.15621 52.5215C3.15709 52.1912 1.70555 50.8874 1.00151 48.7927C0.601684 47.5845 0.48869 46.611 0.540841 44.7162C0.601684 42.3433 0.975433 40.3355 1.80985 37.9192C6.08624 25.542 14.2913 15.8854 26.2426 9.14918C32.8919 5.403 41.0709 2.58684 49.1891 1.2396C51.2056 0.909314 55.0039 0.431263 55.0822 0.50949C55.0995 0.526873 54.7171 0.726786 54.2217 0.961466C49.0935 3.30826 44.0609 6.22872 40.0627 9.15787C37.2204 11.2352 35.2648 12.9127 32.8484 15.3291C28.433 19.7358 25.1648 24.2469 22.4269 29.7402C21.0362 32.5129 20.3061 34.3468 19.0284 38.1886C18.5069 39.7445 17.8463 41.5871 17.5508 42.2738C15.1084 48.0713 11.5013 51.8348 7.77246 52.4867C6.95542 52.6258 5.87763 52.6432 5.15621 52.5215Z" fill="#969593"/>
<path d="M25.851 52.4854C22.8002 51.8248 21.2096 48.9565 21.4008 44.4889C21.5138 42.0725 22.0527 39.6388 23.1131 36.7966C24.921 31.9465 27.1896 27.7484 30.1448 23.8023C32.6741 20.4125 36.4811 16.5794 40.0187 13.8414C48.389 7.3747 59.3233 2.88971 71.092 1.0818C72.8565 0.812357 75.9595 0.438607 76.0203 0.490758C76.0377 0.508142 75.3945 0.82974 74.5949 1.20349C72.1524 2.32474 69.1364 3.91534 66.7896 5.31473C55.9856 11.7467 48.3542 19.6824 43.3303 29.7214C41.9135 32.5637 40.9922 34.867 39.7058 38.8392C38.6106 42.1942 37.4894 44.6366 36.0465 46.7922C33.9866 49.8517 31.7267 51.6944 29.1539 52.3985C28.4064 52.5984 26.6159 52.6505 25.851 52.4854V52.4854Z" fill="#0080C1"/>
</svg>
