<svg width="180" height="40" viewBox="0 0 180 40" fill="none" xmlns="http://www.w3.org/2000/svg">
<path fill-rule="evenodd" clip-rule="evenodd" d="M32.4697 12.802C32.6876 13.8657 32.9424 14.6838 33.2408 15.2592C33.5354 15.826 34.0379 16.1102 34.7445 16.1102L32.8705 20.6138C32.1324 22.3749 31.35 25.0504 30.5032 28.621C29.67 32.207 29.4052 34.7551 29.7117 36.2819C30.014 37.7889 30.7245 38.7743 31.8322 39.2469C32.935 39.708 33.9931 39.9425 35.0168 39.9425C36.5769 39.9425 38.3742 39.7709 40.4065 39.4092C42.4329 39.0568 43.9603 38.6873 44.9882 38.3045C45.4706 38.1283 45.771 37.8455 45.9164 37.4731C46.0495 37.105 46.0011 36.3371 45.7679 35.1751C45.6427 34.5601 45.3648 34.2524 44.911 34.2524C44.2862 34.2524 43.5684 34.3886 42.7667 34.6649C41.9622 34.9338 41.1473 35.1534 40.3235 35.3141C39.4961 35.488 38.1935 35.5677 36.4104 35.5677C35.9577 35.5677 35.6575 35.5159 35.5057 35.4111C35.3584 35.3141 35.2555 35.1309 35.2015 34.8681C35.0591 34.1625 35.2015 32.9331 35.6239 31.1701C36.038 29.4023 36.4659 27.9475 36.8905 26.7919L40.5176 26.7025C42.0567 26.6655 43.0821 26.6249 43.6014 26.5631C44.1212 26.505 44.4525 26.3806 44.592 26.19C44.7306 25.9914 44.781 25.6383 44.7257 25.1222C44.6849 24.6439 44.6794 24.2898 44.6977 24.0549C44.7031 23.9957 44.7164 23.9117 44.7374 23.8149C44.7547 23.7004 44.7632 23.6073 44.7461 23.5234C44.6098 22.8503 43.6971 22.5102 42.0136 22.5102C40.7121 22.5102 39.2722 22.5976 37.6888 22.7829C38.1334 21.3416 38.7604 19.6177 39.5736 17.6139C39.9702 16.6043 40.2953 15.9298 40.5398 15.5805C40.7833 15.226 41.127 15.0128 41.5717 14.9195C42.0168 14.8295 42.8728 14.7869 44.1542 14.7869C44.5039 14.7869 45.6326 14.8603 47.5541 15.0128C47.6248 15.0128 47.7573 15.0236 47.953 15.0375C48.1427 15.0519 48.29 15.0596 48.3779 15.0596C48.9388 15.0596 49.1805 14.8829 49.1069 14.5244C49.0578 14.2856 48.8177 13.8148 48.3866 13.1187C47.618 11.8699 46.9715 11.0821 46.4335 10.7408C45.8965 10.4008 45.122 10.2315 44.1124 10.2315C41.8692 10.2315 39.3183 10.4008 36.4585 10.7408C33.5909 11.0823 32.2642 11.7646 32.4697 12.802Z" fill="#ED1C24"/>
<path fill-rule="evenodd" clip-rule="evenodd" d="M139.231 37.2319C139.708 36.515 140.106 35.955 140.422 35.5556C140.753 35.1446 141.381 34.3681 142.288 33.2177C143.204 32.0721 144.107 30.9406 144.996 29.8372C145.881 28.7348 146.73 27.7093 147.528 26.7498C148.341 25.7964 149.238 24.7603 150.231 23.6447L149.029 28.7732C148.595 30.6962 148.313 31.9737 148.19 32.6036C148.072 33.2315 147.99 33.8723 147.945 34.5165C147.902 35.1694 147.927 35.7466 148.027 36.2532C148.157 36.9059 148.534 37.5119 149.134 38.0615C149.741 38.6226 150.398 39.0624 151.116 39.396C151.839 39.7289 152.387 39.8947 152.772 39.8947C153.29 39.8947 153.622 39.4705 153.756 38.6145C153.887 37.7608 154.042 35.9893 154.202 33.2989C154.379 30.6182 154.657 27.9957 155.051 25.4431C155.441 22.885 156.089 20.2316 157.005 17.4832C158.925 15.8668 159.806 14.67 159.651 13.8854C159.55 13.3846 159.209 12.7778 158.632 12.0607C158.044 11.3451 157.48 10.9879 156.933 10.9879C156.412 10.9879 155.357 11.7391 153.756 13.248C152.153 14.7596 150.391 16.5584 148.459 18.6554C146.536 20.7561 144.771 22.7283 143.169 24.5827C141.559 26.4284 140.589 27.5944 140.238 28.0598C140.788 25.5323 141.283 23.4545 141.719 21.8333C142.168 20.2165 142.63 18.6533 143.104 17.1297C143.584 15.6106 143.877 14.618 144.002 14.153C144.119 13.6838 144.148 13.3039 144.091 13.0152C144.043 12.7776 143.758 12.4247 143.248 11.9591C142.741 11.4916 142.189 11.0694 141.598 10.6901C141.013 10.312 140.602 10.1185 140.365 10.1185C139.95 10.1185 139.573 10.5113 139.23 11.2892C138.887 12.0692 138.524 13.2188 138.162 14.7382C137.792 16.2515 137.595 17.0451 137.577 17.1095C135.593 24.4974 134.363 29.4716 133.881 32.0273C133.404 34.58 133.208 36.0962 133.303 36.591C133.382 36.9507 133.881 37.4643 134.826 38.1059C135.758 38.7465 136.526 39.068 137.129 39.068C137.521 39.068 137.847 38.9436 138.114 38.6898C138.375 38.4361 138.747 37.9521 139.231 37.2319Z" fill="#ED1C24"/>
<path fill-rule="evenodd" clip-rule="evenodd" d="M179.134 13.4332C178.617 12.9852 178.073 12.5735 177.491 12.2008C176.906 11.8275 176.543 11.641 176.392 11.641C175.929 11.641 175.378 12.3453 174.758 13.7349C174.135 15.1329 173.565 16.6426 173.054 18.2688C172.538 19.8956 172.179 21.0825 171.989 21.8143L170.555 22.2301C170.091 22.3845 169.412 22.5307 168.524 22.6936C167.647 22.858 167.006 22.9395 166.619 22.9395C166.066 22.9395 165.723 22.6003 165.592 21.9434C165.507 21.5193 165.629 20.7261 165.939 19.5643C166.26 18.3967 166.599 17.3731 166.95 16.483C167.231 15.8475 167.467 15.2914 167.685 14.8456C167.886 14.3885 168.037 14.0394 168.116 13.7854C168.202 13.5321 168.222 13.2948 168.181 13.0936C168.141 12.8951 167.884 12.5479 167.397 12.0553C166.921 11.5676 166.411 11.1162 165.867 10.7172C165.33 10.3201 164.943 10.1185 164.716 10.1185C164.329 10.1185 163.736 10.9879 162.936 12.7172C162.128 14.4463 161.439 16.3129 160.87 18.3309C160.29 20.3402 160.103 21.7996 160.279 22.6856C160.47 23.639 161.039 24.6474 161.977 25.733C162.924 26.8178 163.842 27.3588 164.732 27.3588C165.209 27.3588 166.21 27.1608 167.737 26.771C169.261 26.3856 170.423 26.0564 171.236 25.7886C171.093 26.2442 170.824 27.335 170.432 29.0436C170.035 30.7529 169.702 32.3592 169.437 33.852C169.164 35.3478 169.073 36.3271 169.164 36.7813C169.298 37.4421 169.92 38.0189 171.02 38.5189C171.577 38.7733 172.117 39.0659 172.624 39.3935C173.141 39.7145 173.468 39.8802 173.613 39.8802C174.044 39.8802 174.353 39.5921 174.517 39.0251C174.679 38.4433 174.8 37.5189 174.881 36.2518C174.957 34.9819 175 34.2963 175.014 34.1736C175.38 31.3176 175.714 29.0643 176.012 27.4055C176.31 25.7501 176.64 24.3062 177.013 23.0559C177.383 21.8143 177.953 20.1156 178.714 17.9741C178.977 17.2153 179.272 16.4913 179.574 15.8085C179.882 15.1327 180.021 14.7219 179.997 14.5813C179.931 14.2743 179.644 13.8883 179.134 13.4332Z" fill="#ED1C24"/>
<path fill-rule="evenodd" clip-rule="evenodd" d="M30.5276 7.96169C30.5568 7.89526 30.5883 7.79902 30.6145 7.75184C31.2538 5.96854 32.263 7.18706 32.8133 7.09414C33.6808 6.83069 34.1771 6.07222 34.36 5.00001C34.473 4.35806 34.5397 3.04062 34.1891 2.49282C33.9782 2.16211 33.2342 1.60873 31.925 1.36266C29.0423 0.815485 23.9549 0.822729 19.5541 1.33245C16.2851 1.71882 11.9977 2.62713 6.30765 4.6809C4.36306 5.38288 1.32287 5.75911 0.422435 8.04446C-0.306973 9.89004 -0.0301112 10.8844 0.781848 11.3519C2.5715 12.379 6.96318 10.8534 8.94737 10.2375C9.00219 10.2808 9.06018 10.324 9.14337 10.3871C8.41522 14.4138 6.80655 19.2554 6.31463 23.7131C5.30541 26.6236 3.36166 33.8466 4.98388 36.7035C8.33098 38.6964 10.3736 33.0465 10.1209 32.8562C10.9684 30.3673 13.6216 19.4642 13.9353 16.5146C14.0102 15.772 14.0741 15.1764 14.1917 14.4058C14.418 12.9078 14.446 11.4171 14.7045 10.0097C14.7755 9.61728 15.0058 9.29319 15.3344 9.03141C16.7913 7.86338 20.2098 7.84579 20.7916 7.84579C21.2444 7.73859 22.504 7.55005 23.5078 7.23549C23.9512 7.09808 23.955 7.72472 23.8351 8.45132C23.7148 9.17316 23.4739 9.99579 23.4195 10.2506C23.2927 10.8555 23.1695 11.3735 23.0235 12.0113C22.841 12.8103 22.4636 14.4407 21.5986 18.0786C19.6387 26.8587 18.1234 34.6682 19.7918 38.9068C20.1926 39.4802 21.5516 40.0932 21.9447 39.922C22.9504 39.7401 23.6738 39.312 24.1959 38.7306C25.1095 37.7139 25.3946 36.2234 25.4709 34.7509C25.6084 32.0545 25.9983 27.9247 26.6288 23.8496C27.0473 21.1452 28.3694 15.1271 29.4531 11.2118C29.8657 9.7251 30.2581 8.56183 30.5276 7.96169Z" fill="#ED1C24"/>
<path fill-rule="evenodd" clip-rule="evenodd" d="M57.5751 39.9421C57.9421 39.9421 58.1871 39.672 58.3054 39.1339C58.4158 38.5961 58.6711 37.0193 59.0601 34.4107C59.4504 31.8108 59.9807 29.0096 60.6527 26.0021C61.3244 23.001 62.3042 19.4435 63.6004 15.3194C64.0913 15.1873 65.0228 15.0924 66.3811 15.0187C67.7409 14.9491 68.7435 14.8207 69.3885 14.6389C70.0305 14.4459 70.287 14.0474 70.1606 13.4365C70.076 13.0038 69.8162 12.5173 69.3841 12.0038C68.9501 11.4811 68.361 11.0371 67.6075 10.6735C66.8609 10.3027 66.0191 10.1185 65.0888 10.1185C64.8474 10.1185 64.4773 10.146 63.9818 10.2048C63.4336 10.2625 62.5953 10.3182 61.4753 10.3817C60.3431 10.4386 59.5016 10.496 58.9444 10.5446C55.7426 10.7797 53.5 11.0419 52.2038 11.3335C50.9109 11.6191 50.3284 12.1075 50.467 12.8016C50.8862 14.8788 51.7658 15.9137 53.1203 15.9137C53.3311 15.9137 54.8408 15.7993 57.6467 15.5718C57.3172 16.7965 56.8465 18.619 56.2322 21.05C55.6271 23.4904 55.0821 25.764 54.6041 27.8796C54.1118 29.9929 53.7098 31.9564 53.3862 33.7629C53.0525 35.5785 52.9416 36.7249 53.0405 37.2153C53.1349 37.6794 53.4777 38.1109 54.0722 38.539C54.6716 38.9538 55.328 39.2912 56.0509 39.5522C56.7754 39.8138 57.2885 39.9421 57.5751 39.9421Z" fill="#ED1C24"/>
<path fill-rule="evenodd" clip-rule="evenodd" d="M105.589 24.3904C105.244 26.3664 104.674 28.2042 103.89 29.931C103.095 31.6578 102.224 33.0427 101.277 34.0922C100.325 35.1487 99.4615 35.6774 98.6893 35.6774C98.3603 35.6774 98.0127 35.4414 97.638 34.9648C97.27 34.4887 97.0009 33.8418 96.8328 33.0321C96.4492 31.1113 96.4271 29.0956 96.7683 27.0197C97.1072 24.9358 97.6705 23.0315 98.4502 21.2882C99.2393 19.5578 100.105 18.1583 101.048 17.0916C101.992 16.0259 102.82 15.4951 103.54 15.4951C104.449 15.4951 105.128 16.629 105.589 18.9027C105.927 20.5932 105.928 22.4221 105.589 24.3904ZM109.721 15.4319C109.212 14.3009 108.691 13.4309 108.177 12.8194C107.661 12.2157 107.259 11.9101 106.997 11.9101C106.847 11.9101 106.529 12.0278 106.054 12.2774C105.578 12.5175 105.233 12.7101 105.036 12.8457C104.459 12.1861 103.784 11.5669 103.01 10.9842C102.243 10.4053 101.614 10.1185 101.147 10.1185C100.427 10.1185 99.3932 10.7294 98.064 11.957C96.7349 13.1857 95.4542 14.8432 94.2154 16.9174C92.9817 19.003 92.0706 21.3888 91.4793 24.0831C90.8848 26.7812 90.8778 29.5428 91.4476 32.3592C91.7827 34.0429 92.4228 35.4567 93.3451 36.5997C94.2706 37.7455 95.3016 38.5832 96.4273 39.1238C97.5533 39.672 98.5906 39.9422 99.5369 39.9422C101.766 39.9422 103.909 38.9666 105.963 37.0189C108.011 35.0653 109.524 32.4894 110.5 29.2971C111.477 26.1123 111.627 22.8 110.936 19.3754C110.635 17.8849 110.233 16.5672 109.721 15.4319ZM127.383 18.875C126.735 19.7222 125.854 20.5092 124.734 21.2435C123.62 21.986 122.45 22.5671 121.224 22.9835C121.892 19.3559 122.151 17.1401 121.992 16.3461C121.902 15.9001 121.594 15.4601 121.078 15.0256C122.126 14.7117 123.296 14.5582 124.589 14.5582C125.611 14.5582 126.431 14.7446 127.05 15.1396C127.662 15.528 128.024 16.0133 128.139 16.5958C128.279 17.2766 128.023 18.036 127.383 18.875ZM125.189 31.3495C124.479 32.3245 123.475 33.1245 122.185 33.7485C120.891 34.3851 119.536 34.6935 118.125 34.6935C118.724 32.7104 119.188 31.1802 119.525 30.1232C119.851 29.0573 120.14 28.0101 120.371 26.9465C121.259 26.6923 122.076 26.5626 122.825 26.5626C124.672 26.5626 125.723 27.2087 125.98 28.4751C126.166 29.4114 125.906 30.3729 125.189 31.3495ZM131.9 21.1508C132.886 19.6373 133.218 18.0572 132.886 16.4242C132.515 14.5625 131.43 13.0504 129.629 11.8803C127.84 10.7085 125.633 10.1187 123.031 10.1187C121.897 10.1187 120.346 10.2896 118.395 10.6299C116.521 10.9467 115.132 11.2683 114.217 11.5881C113.312 11.9103 112.927 12.4144 113.07 13.1069C113.216 13.8359 113.58 14.5625 114.171 15.2973C114.757 16.0241 115.534 16.4692 116.508 16.6387C116.107 20.0345 115.627 22.9213 115.046 25.3053C114.466 27.694 113.915 29.5547 113.387 30.8971C112.861 32.2297 112.423 33.3906 112.075 34.3624C111.723 35.3289 111.617 36.1661 111.761 36.8757C111.8 37.0738 112.096 37.4289 112.65 37.9336C113.204 38.4301 113.798 38.8933 114.429 39.3119C115.061 39.7271 115.516 39.9425 115.801 39.9425C116.222 39.9425 116.537 39.7576 116.757 39.3916C116.981 39.0195 117.222 38.3566 117.479 37.3815C118.991 39.0953 120.458 39.9425 121.89 39.9425C123.249 39.9425 124.726 39.3227 126.313 38.0619C127.896 36.8025 129.173 35.2964 130.134 33.5535C131.095 31.7986 131.443 30.2485 131.17 28.9104C131.028 28.201 130.685 27.4566 130.147 26.6923C129.61 25.9197 128.841 25.2463 127.84 24.652C129.555 23.8209 130.908 22.6615 131.9 21.1508ZM84.3328 19.8752C83.4925 20.9473 82.3901 21.956 81.0361 22.9088C79.6668 23.8521 78.3915 24.5096 77.1917 24.8618C77.35 23.6394 77.671 21.8948 78.1618 19.6177C78.451 18.263 78.6749 17.3634 78.8377 16.9098C78.9842 16.4507 79.2337 16.13 79.5633 15.9434C79.9001 15.7519 80.47 15.6308 81.2877 15.5731C81.4999 15.5469 81.8252 15.5281 82.2612 15.5281C84.1145 15.5281 85.1461 16.0706 85.3658 17.159C85.5185 17.9027 85.1733 18.8121 84.3328 19.8752ZM89.0333 13.6671C88.1373 12.6505 86.9308 11.801 85.3838 11.1261C83.8513 10.4517 82.0948 10.1187 80.11 10.1187C78.974 10.1187 77.7791 10.2392 76.5161 10.4804C75.2494 10.7133 74.1968 11.0715 73.35 11.534C72.5018 12.0022 72.1367 12.5342 72.2573 13.147C72.6423 15.0375 73.3462 16.2196 74.3853 16.678C73.4236 20.6399 72.6515 23.7044 72.087 25.8664C71.5241 28.0342 70.9356 30.2135 70.333 32.4248C69.7271 34.623 69.3732 36.0011 69.2663 36.5338C69.1694 37.0731 69.1473 37.5176 69.214 37.8574C69.32 38.3783 69.5442 38.7184 69.8982 38.8834C70.2414 39.0497 70.825 39.2166 71.6331 39.391C72.0421 39.4828 72.4813 39.596 72.9317 39.7368C73.3798 39.8715 73.691 39.9419 73.8618 39.9419C74.361 39.9419 74.7375 39.6716 74.9798 39.1409C75.2137 38.61 75.4154 37.7919 75.5801 36.6987C75.7407 35.6026 75.953 34.1324 76.2267 32.2952C76.499 30.4638 76.8609 28.6804 77.2913 26.9458C78.6061 28.8506 79.6897 29.8022 80.5406 29.8022C81.5433 29.8022 82.9347 28.9862 84.6986 27.3525C86.4698 25.7186 87.9726 23.8638 89.2111 21.7849C90.4483 19.7065 90.9397 18.0236 90.6741 16.7196C90.4766 15.7123 89.9251 14.6938 89.0333 13.6671Z" fill="#ED1C24"/>
</svg>
