<svg width="190" height="70" viewBox="0 0 190 70" fill="none" xmlns="http://www.w3.org/2000/svg">
<path d="M152.224 57.3816C158.929 57.3816 164.363 51.9468 164.363 45.2426C164.363 38.5383 158.929 33.1035 152.224 33.1035C145.52 33.1035 140.085 38.5383 140.085 45.2426C140.085 51.9468 145.52 57.3816 152.224 57.3816Z" fill="white" fill-opacity="0.09"/>
<path d="M149.955 38.2501L152.656 35.0723L155.358 38.2501H154.069L156.314 41.1189H154.61L157.146 43.3699H152.989V44.9147H152.282V43.3699H147.959L150.495 41.1189H148.832L151.326 38.2501H149.955Z" fill="#2E2E2C"/>
<path d="M62.0019 32.2056H71.6875C73.6048 32.2056 75.032 32.2906 75.969 32.4607C76.9165 32.6194 77.7597 32.9596 78.4979 33.4812C79.2472 34.0028 79.8699 34.7001 80.3653 35.5732C80.8614 36.435 81.1094 37.4044 81.1094 38.4816C81.1094 39.6496 80.801 40.7211 80.1835 41.6962C79.5779 42.6714 78.7511 43.4027 77.7046 43.8903C79.1809 44.3325 80.3161 45.0865 81.1094 46.1524C81.9027 47.2183 82.2997 48.4712 82.2997 49.9112C82.2997 51.0452 82.0405 52.1507 81.5228 53.2279C81.0156 54.2938 80.3161 55.1499 79.4231 55.7962C78.5418 56.4312 77.4506 56.8223 76.1508 56.9697C75.3352 57.0604 73.368 57.1171 70.2499 57.1398H62.0019V32.2056ZM66.8943 36.3556V42.1215H70.1009C72.0071 42.1215 73.1921 42.0931 73.6547 42.0364C74.492 41.9343 75.1481 41.6395 75.6219 41.152C76.1068 40.653 76.3489 40.0011 76.3489 39.196C76.3489 38.425 76.1396 37.8013 75.721 37.3251C75.3128 36.8375 74.7013 36.5427 73.8863 36.4406C73.4014 36.384 72.0071 36.3556 69.7046 36.3556H66.8943ZM66.8943 46.2715V52.9387H71.4231C73.1862 52.9387 74.305 52.8877 74.7787 52.7857C75.5058 52.6496 76.0956 52.3208 76.5471 51.7992C77.0103 51.2663 77.2413 50.5576 77.2413 49.6731C77.2413 48.9248 77.0655 48.2898 76.7124 47.7682C76.3601 47.2466 75.8476 46.8668 75.1757 46.6287C74.5143 46.3905 73.0707 46.2715 70.845 46.2715H66.8943Z" fill="#2E2E2C"/>
<path d="M87.5298 32.2056H92.1078V48.8057L101.926 32.2056H106.802V57.1398H102.224V40.8628L92.4221 57.1398H87.5298V32.2056Z" fill="#2E2E2C"/>
<path d="M112.744 57.381V32.4468H120.066L124.463 49.4551L128.81 32.4468H136.148V57.381H131.603V37.7534L126.793 57.381H122.082L117.289 37.7534V57.381H112.744Z" fill="#2E2E2C"/>
<path fill-rule="evenodd" clip-rule="evenodd" d="M152.595 47.1615C153.82 47.1615 154.813 46.1741 154.813 44.956C154.813 44.9419 154.813 44.9277 154.812 44.9136H162.647L163.707 46.0796L162.426 47.0009L163.219 48.3606L161.774 48.9969L162.266 50.491L160.719 50.8145L160.887 52.3776L159.307 52.3742L159.145 53.938L157.599 53.6079L157.115 55.104L155.672 54.4616L154.884 55.8246L153.607 54.8979L152.552 56.0684L151.497 54.8979L150.22 55.8246L149.433 54.4616L147.99 55.104L147.505 53.6079L145.96 53.938L145.798 52.3742L144.217 52.3776L144.386 50.8145L142.838 50.491L143.33 48.9969L141.885 48.3606L142.678 47.0009L141.397 46.0796L142.458 44.9136H150.378C150.377 44.9277 150.377 44.9419 150.377 44.956C150.377 46.1741 151.37 47.1615 152.595 47.1615Z" fill="#2E2E2C"/>
<path fill-rule="evenodd" clip-rule="evenodd" d="M152.552 56.7139C159.07 56.7139 164.352 51.4309 164.352 44.9139C164.352 38.3969 159.07 33.1139 152.552 33.1139C146.035 33.1139 140.753 38.3969 140.753 44.9139C140.753 51.4309 146.035 56.7139 152.552 56.7139ZM152.552 57.381C159.438 57.381 165.02 51.7993 165.02 44.9139C165.02 38.0285 159.438 32.4468 152.552 32.4468C145.667 32.4468 140.085 38.0285 140.085 44.9139C140.085 51.7993 145.667 57.381 152.552 57.381Z" fill="#2E2E2C"/>
<path d="M185.235 48.1047L189.954 49.6014C189.23 52.233 188.025 54.1902 186.336 55.4732C184.659 56.7451 182.527 57.381 179.94 57.381C176.739 57.381 174.109 56.29 172.048 54.108C169.987 51.915 168.956 48.9216 168.956 45.1277C168.956 41.1146 169.992 38.0005 172.064 35.7856C174.136 33.5597 176.86 32.4468 180.236 32.4468C183.185 32.4468 185.58 33.3185 187.422 35.0619C188.518 36.0926 189.34 37.5729 189.888 39.5027L185.071 40.654C184.785 39.404 184.188 38.4171 183.278 37.6935C182.379 36.9698 181.283 36.608 179.989 36.608C178.202 36.608 176.75 37.2494 175.632 38.5323C174.525 39.8152 173.971 41.893 173.971 44.7659C173.971 47.8141 174.519 49.9852 175.616 51.279C176.712 52.5729 178.137 53.2198 179.891 53.2198C181.184 53.2198 182.297 52.8087 183.229 51.9863C184.16 51.1639 184.829 49.87 185.235 48.1047Z" fill="#2E2E2C"/>
<path fill-rule="evenodd" clip-rule="evenodd" d="M48.6181 25.9942C48.323 27.9387 47.9687 30.2725 42.4393 31.3875C42.5217 31.5135 42.5945 31.6355 42.6645 31.7527C43.2692 32.766 43.6632 33.4262 48.2537 33.2837C48.0379 35.759 47.7199 37.2465 42.9162 37.9278C43.4045 38.4728 43.961 39.0632 44.4039 39.5287H25.1922L25.4271 39.5628L25.2454 47.3521C25.2454 47.3521 16.5123 49.8161 9.68714 49.1121C13.4461 47.9766 14.525 42.9125 14.525 42.9125C14.525 42.9125 12.935 43.8549 8.41524 42.9125C9.42061 42.1687 10.1405 40.7707 10.6038 39.5829C9.06628 39.5801 7.47955 39.5816 6.76879 39.5969C5.01989 40.6302 4.29308 40.914 4.29308 40.914C4.29308 40.914 4.6792 38.1889 5.44008 37.5417C6.20096 36.8945 8.2678 31.4442 8.2678 31.4442C8.2678 31.4442 5.92841 28.8213 1.62433 29.9681C1.65868 29.8852 1.69277 29.8026 1.72674 29.7203C2.93895 26.7833 3.97403 24.2755 10.0167 23.3256L10.2892 20.2258C10.2892 20.2258 6.80284 18.375 5.00854 18.4886C7.50697 15.491 14.5365 15.491 14.5365 15.491L29.6179 10.756L41.985 9.93849V12.7204C41.985 12.7204 45.0398 12.8226 46.8909 9.17773C46.8212 10.1216 46.7863 10.9076 46.756 11.5877C46.6191 14.6709 46.5787 15.579 43.8247 19.1699C46.3913 20.9639 46.8909 21.5316 46.8909 21.5316C46.8909 21.5316 44.6878 22.7239 43.3932 24.7563C46.7772 25.6356 47.3898 25.3694 48.7924 24.7596C48.8207 24.7473 48.8493 24.7349 48.8783 24.7223C48.752 25.1118 48.6867 25.5425 48.6181 25.9942Z" fill="#1F1E1C"/>
<path d="M12.8452 49.554C12.5273 49.554 12.1866 49.361 11.8232 48.9636C10.2787 47.2718 10.5626 44.8532 11.3462 43.15C12.0162 41.6966 14.2307 39.7549 18.3077 37.0525C22.4755 34.282 28.8805 33.0443 32.6508 33.4418C35.8079 33.771 40.0665 38.1767 41.293 39.5165L41.3839 39.6074H22.3733L22.3619 39.596C22.3392 39.5847 22.3165 39.562 22.2937 39.5393C17.5808 42.5936 18.16 45.0462 18.319 45.5118C18.3304 45.5345 18.3304 45.5572 18.319 45.5799L18.3077 45.5912L14.1512 47.7373C14.1058 47.9531 13.7992 49.3156 13.0496 49.5313C12.9929 49.5427 12.9134 49.554 12.8452 49.554ZM31.1518 33.4758C27.3587 33.4758 22.0099 34.7248 18.3758 37.1434C14.3215 39.8345 12.1184 41.7534 11.4598 43.1954C11.1986 43.7745 9.9721 46.7722 11.914 48.8841C12.3229 49.3269 12.6976 49.5086 13.0156 49.4178C13.7424 49.2134 14.0377 47.7032 14.0377 47.6919V47.6692L14.0604 47.6578L18.1827 45.5231C18.0011 44.944 17.5468 42.4573 22.2483 39.4257L22.2824 39.403L22.3165 39.437C22.3392 39.4484 22.3619 39.4824 22.3846 39.4938H41.1114C39.7826 38.0631 35.6716 33.8733 32.6281 33.5553C32.1511 33.4985 31.6514 33.4758 31.1518 33.4758Z" fill="#1F1E1C"/>
<path d="M39.7366 39.5947H24.5871V39.538C24.6666 35.7455 22.9859 34.2694 22.9745 34.2581L22.9064 34.2013L22.9973 34.1672C23.0881 34.1331 25.189 33.361 25.7228 33.8606C26.2338 34.3262 28.5391 38.289 28.7777 38.6978C29.3 38.6978 35.7391 38.6978 36.5454 38.6296C36.7726 38.6069 36.9088 38.5615 36.9543 38.4934C37.011 38.4025 36.9429 38.2322 36.8634 38.0505C36.8066 37.9143 36.7498 37.7667 36.7157 37.6304C36.6136 37.1762 34.558 35.2686 33.7517 34.5646C33.6609 34.5306 33.3202 34.3829 33.3316 34.1786C33.3429 34.031 33.5473 33.9287 33.9675 33.8493H33.9789H33.9902C35.83 34.5306 38.5782 38.0505 39.6684 39.5266L39.7366 39.5947ZM24.7121 39.4812H39.5208C38.3965 37.9711 35.7505 34.6214 33.9675 33.9401C33.4906 34.031 33.4451 34.1445 33.4451 34.1672C33.4337 34.2581 33.6496 34.3829 33.7972 34.4398L33.8085 34.4511C33.9221 34.5533 36.6817 37.0059 36.818 37.585C36.852 37.7212 36.8974 37.8688 36.9543 37.9938C37.0451 38.2095 37.1246 38.4025 37.0337 38.5388C36.9656 38.6523 36.8066 38.7091 36.5341 38.7318C35.7051 38.7999 28.8004 38.7999 28.7322 38.7999H28.6981L28.6868 38.7772C28.6641 38.7318 26.1543 34.4057 25.6432 33.9401C25.2571 33.5881 23.7695 34.0083 23.1221 34.2354C23.4401 34.5646 24.7575 36.1202 24.7121 39.4812Z" fill="#262626"/>
<path d="M16.0702 16.4904C16.0702 16.4904 12.368 21.8839 12.05 28.9578C11.7548 35.4186 11.5163 37.1559 10.5851 39.5971C10.5851 39.5971 10.6759 39.3587 10.5851 39.6085L9.19958 39.5971C6.91698 38.0416 4.85009 36.4974 0.0463257 36.7699C2.37439 33.8631 5.64504 30.5361 10.3466 31.331C7.54158 28.5831 6.32643 27.4704 0.0463257 27.3682C1.26146 23.5076 4.0665 21.1912 10.8236 20.8733C8.33652 16.8084 4.21413 15.9567 4.21413 15.9567C4.21413 15.9567 7.38259 13.788 14.9913 14.9575L16.0702 16.4904Z" fill="#393633"/>
<path d="M32.0151 4.40849C32.0151 4.40849 30.3003 2.10349 26.019 2.14891C25.6555 1.25189 24.5767 0.479773 23.407 1.29731C22.2373 2.11485 21.9193 2.83019 21.9193 3.23895C20.8405 3.8294 15.5597 6.71348 14.1061 13.3219C13.5383 15.888 13.5383 16.2855 14.9692 16.9441C16.0707 17.4437 18.8077 16.3082 20.0228 15.184C21.5559 14.1508 25.9735 13.2878 25.9735 13.2878C25.9735 13.2878 32.742 10.9828 34.9565 15.2295C36.9438 14.0713 38.8971 12.845 40.7142 11.4257C42.8151 9.76785 45.4611 7.72403 45.0977 4.66964C44.9955 3.76127 44.564 2.87561 43.8712 2.27381C43.0877 1.58118 42.0315 1.41086 41.0208 1.41086C38.6019 1.41086 36.1602 2.28517 34.0139 3.32979C33.8435 3.40927 32.0151 4.39713 32.0151 4.40849Z" fill="#42994A"/>
<path d="M41.2587 39.5397C39.9868 38.1544 35.7849 33.817 32.6506 33.4876C28.9143 33.0903 22.5093 34.3166 18.3415 37.0871C14.1737 39.8576 12.05 41.7652 11.4027 43.1619C10.7554 44.5584 10.2103 47.1133 11.8683 48.9186C13.5264 50.724 14.0942 47.6923 14.0942 47.6923L18.262 45.5349C18.2734 45.5349 17.0468 42.8552 22.2708 39.4716L21.1579 44.0588L25.973 41.8674L25.4279 39.5397H38.6354L38.5673 39.5511L40.6001 51.2236L43.4051 51.042C43.4051 51.042 43.9843 50.8603 45.2789 47.9421C45.3584 44.127 42.3376 40.6525 41.2587 39.5397Z" fill="#F4E835"/>
<path fill-rule="evenodd" clip-rule="evenodd" d="M25.6373 34.0091C28.2335 33.4042 30.7796 33.1953 32.6608 33.3954C33.4618 33.4796 34.3245 33.8187 35.1844 34.2963C36.0452 34.7743 36.9086 35.3941 37.7118 36.0455C39.3173 37.3477 40.6888 38.7815 41.3264 39.4759C41.869 40.0357 42.8985 41.1878 43.7832 42.6801C44.6677 44.1722 45.412 46.012 45.3717 47.9437L45.3714 47.9623L45.3639 47.9793C44.7151 49.4416 44.2434 50.2235 43.931 50.6414C43.7747 50.8505 43.6571 50.9701 43.5758 51.0384C43.5349 51.0727 43.5029 51.0944 43.4794 51.1081C43.4676 51.1149 43.4578 51.1198 43.4502 51.1233C43.4463 51.125 43.443 51.1263 43.4401 51.1275C43.4388 51.128 43.4374 51.1284 43.4363 51.1288L43.4347 51.1294L43.4339 51.1296L43.4336 51.1298C43.4334 51.1298 43.4332 51.1299 43.4056 51.0416L43.4332 51.1299L43.4226 51.1332L40.5237 51.321L38.488 39.6319H25.545L26.0808 41.9198L21.0237 44.2214L22.1262 39.677C19.6716 41.3092 18.731 42.7607 18.4002 43.7999C18.2305 44.3333 18.2204 44.7611 18.251 45.0535C18.2663 45.1998 18.2917 45.3126 18.3128 45.3881C18.3233 45.4258 18.3327 45.4544 18.3393 45.4734C18.3417 45.4803 18.3436 45.4856 18.3452 45.4902C18.3459 45.4922 18.3466 45.4942 18.3473 45.4961C18.3481 45.4984 18.3495 45.5022 18.3505 45.5056C18.3508 45.5067 18.3524 45.5117 18.3535 45.5178L18.3535 45.518C18.3539 45.5201 18.3557 45.53 18.3546 45.5424C18.3536 45.5505 18.3473 45.5714 18.3409 45.5837C18.3335 45.5928 18.3186 45.6037 18.3026 45.6123L18.305 45.6167L14.1764 47.7538C14.1718 47.7756 14.1653 47.8048 14.157 47.84C14.1379 47.921 14.1087 48.0344 14.0684 48.1648C13.9881 48.4243 13.8623 48.7563 13.6808 49.0329C13.5007 49.3073 13.2536 49.5456 12.9258 49.5803C12.5963 49.6152 12.2231 49.4408 11.8007 48.9809C10.9521 48.0568 10.6689 46.9419 10.679 45.8858C10.6891 44.8308 10.9914 43.83 11.3193 43.1226C11.6511 42.4066 12.3556 41.5703 13.4913 40.57C14.6285 39.5683 16.2052 38.3962 18.2907 37.0098C20.3865 35.6167 23.0408 34.6139 25.6373 34.0091ZM14.0121 47.6306L18.1497 45.4888C18.1451 45.4739 18.1399 45.4568 18.1346 45.4377C18.1111 45.3534 18.0835 45.2304 18.067 45.0726C18.034 44.7568 18.046 44.3033 18.224 43.7438C18.5803 42.6243 19.5974 41.093 22.221 39.3937L22.4158 39.2674L21.293 43.8957L25.8662 41.8143L25.3118 39.4469H38.6358L38.6433 39.5376L38.6588 39.5349L40.6774 51.1257L43.3825 50.9505C43.3836 50.9498 43.385 50.949 43.3865 50.9482C43.3996 50.9406 43.423 50.9252 43.4568 50.8969C43.5244 50.84 43.6326 50.7318 43.7829 50.5307C44.0826 50.1298 44.5453 49.3662 45.1872 47.9214C45.2214 46.0446 44.4969 44.2466 43.6241 42.7744C42.7489 41.2981 41.7293 40.1571 41.1928 39.6037L41.1919 39.6028L41.1911 39.6019C40.5564 38.9107 39.1915 37.4838 37.5953 36.1892C36.7972 35.5418 35.9429 34.929 35.0946 34.4579C34.2454 33.9863 33.4076 33.6598 32.6414 33.5793H32.6412C30.7862 33.382 28.2616 33.5875 25.6793 34.1891C23.0973 34.7907 20.4652 35.7863 18.3931 37.1638C16.3109 38.5479 14.7419 39.7149 13.6135 40.7087C12.4835 41.704 11.8025 42.5198 11.487 43.2004C11.1676 43.8896 10.8737 44.8645 10.8639 45.8875C10.8542 46.9092 11.1275 47.9745 11.9369 48.8558C12.3435 49.2986 12.663 49.4222 12.9063 49.3964C13.1513 49.3704 13.357 49.1893 13.5262 48.9315C13.6939 48.6759 13.8136 48.3628 13.8917 48.1102C13.9305 47.9846 13.9587 47.8752 13.977 47.7975C13.9862 47.7586 13.993 47.7277 13.9974 47.7067C13.9996 47.6961 14.0012 47.688 14.0023 47.6827L14.0034 47.6768L14.0037 47.6753L14.0038 47.675L14.0121 47.6306Z" fill="black"/>
<path d="M39.9985 54.2328C39.9985 54.2328 40.0553 54.9255 40.6117 55.4251C40.6685 56.1631 40.9752 56.9693 40.1916 58.1389C39.76 58.6385 40.078 59.7512 40.8843 59.7853C41.2704 60.739 41.6906 61.9313 43.8824 60.6936C44.9499 61.0797 46.006 60.9548 46.3581 58.9791C48.4022 58.1956 48.9359 57.1169 48.6407 55.5727C48.3568 54.0284 46.9486 50.6448 46.0968 50.043C44.5297 51.326 43.1669 52.7113 40.8275 53.1428C38.4994 53.5629 39.9985 54.2328 39.9985 54.2328Z" fill="#FDFADD"/>
<path fill-rule="evenodd" clip-rule="evenodd" d="M46.093 49.9258L46.1505 49.9664C46.3806 50.129 46.6367 50.4686 46.8932 50.895C47.152 51.3253 47.4185 51.8565 47.6665 52.4159C48.1617 53.5329 48.5879 54.7723 48.7318 55.5546C48.882 56.3405 48.8237 57.0223 48.4552 57.6093C48.0938 58.1847 47.4434 58.6541 46.4399 59.0456C46.2586 60.0137 45.9016 60.5581 45.4314 60.803C44.9671 61.0448 44.4208 60.9791 43.8911 60.7938C42.8086 61.3971 42.1247 61.4257 41.658 61.139C41.4259 60.9963 41.2591 60.7818 41.1271 60.548C41.0073 60.3359 40.9127 60.1015 40.8246 59.8829C40.8232 59.8793 40.8217 59.8757 40.8203 59.8722C40.4019 59.8284 40.116 59.5193 39.9871 59.1674C39.854 58.8038 39.8771 58.3649 40.1179 58.0818C40.4976 57.5135 40.611 57.0379 40.6246 56.6161C40.6315 56.4032 40.6129 56.2022 40.5887 56.0063C40.5815 55.9487 40.5738 55.891 40.5661 55.8334C40.5496 55.7102 40.5332 55.5876 40.5227 55.4677C40.2471 55.2101 40.094 54.9092 40.0095 54.6715C39.9658 54.5486 39.9402 54.4418 39.9255 54.3653C39.92 54.3368 39.916 54.3124 39.9131 54.2929C39.9077 54.2902 39.9019 54.2872 39.8958 54.284C39.8574 54.2638 39.805 54.2344 39.7496 54.1975C39.644 54.1271 39.5069 54.0166 39.4538 53.8772C39.4255 53.8029 39.4208 53.7194 39.4574 53.6346C39.4929 53.5524 39.5631 53.4787 39.6655 53.4119C39.8685 53.2794 40.2267 53.1563 40.8111 53.0508C42.8118 52.6817 44.0859 51.6092 45.4148 50.4905C45.6204 50.3174 45.8274 50.1432 46.0385 49.9703L46.093 49.9258ZM40.0908 54.2243L40.0909 54.2252C40.091 54.2261 40.0912 54.2277 40.0914 54.2299C40.0919 54.2344 40.0927 54.2412 40.0939 54.2504C40.0963 54.2686 40.1004 54.2958 40.107 54.3303C40.1203 54.3993 40.1437 54.4969 40.1838 54.6095C40.264 54.8354 40.4101 55.1186 40.6737 55.3552L40.7013 55.38L40.7041 55.4169C40.7138 55.543 40.7308 55.6697 40.7486 55.803C40.7565 55.8617 40.7645 55.9217 40.7722 55.9836C40.7969 56.183 40.8167 56.395 40.8094 56.6221C40.7946 57.0792 40.6701 57.59 40.2685 58.1893L40.2654 58.1939L40.2617 58.1982C40.0746 58.4148 40.042 58.7795 40.1607 59.1038C40.2784 59.425 40.5334 59.6768 40.8884 59.6918L40.9479 59.6944L40.9702 59.7495C40.9786 59.7704 40.9871 59.7914 40.9956 59.8124C41.0845 60.0329 41.1746 60.2561 41.2881 60.4571C41.412 60.6765 41.5597 60.8615 41.7548 60.9814C42.1374 61.2165 42.7492 61.2264 43.8371 60.6121L43.8741 60.5912L43.914 60.6056C44.4395 60.7957 44.9392 60.8509 45.346 60.639C45.7506 60.4283 46.0934 59.9373 46.2672 58.9618L46.2764 58.9104L46.3252 58.8917C47.3383 58.5034 47.9617 58.0475 48.2986 57.511C48.634 56.9767 48.6951 56.3471 48.5501 55.589L48.55 55.5884C48.4099 54.8265 47.9901 53.602 47.4974 52.4908C47.2514 51.9359 46.9884 51.412 46.7347 50.9903C46.5024 50.604 46.2837 50.3137 46.0989 50.16C45.9102 50.3153 45.7237 50.4723 45.5377 50.6291C44.2097 51.7479 42.8966 52.8542 40.8444 53.2327L40.8441 53.2327C40.2647 53.3373 39.9372 53.4554 39.7666 53.5667C39.6821 53.6218 39.6433 53.6705 39.6272 53.7079C39.6122 53.7427 39.613 53.7758 39.6266 53.8114C39.6573 53.892 39.7494 53.9752 39.8521 54.0436C39.9008 54.076 39.9474 54.1022 39.9818 54.1203C39.999 54.1293 40.013 54.1363 40.0225 54.1409C40.0273 54.1431 40.0309 54.1449 40.0333 54.146L40.0359 54.1472L40.0364 54.1473L40.0864 54.1697L40.0908 54.2241V54.2243Z" fill="black"/>
<path d="M42.8727 53.8003C42.8727 53.8003 43.009 54.8223 43.6904 55.1515C44.3604 55.4694 44.8714 55.265 44.8714 55.265C44.8714 55.265 44.3945 56.6503 44.5875 57.5474C44.7806 58.4557 45.1326 58.9326 46.3705 58.978" fill="#FDFADD"/>
<path fill-rule="evenodd" clip-rule="evenodd" d="M42.7807 53.8131C42.7807 53.8131 42.7807 53.813 42.8723 53.8008C42.964 53.7886 42.964 53.7886 42.964 53.7886L42.964 53.7889L42.9642 53.7907C42.9645 53.7923 42.9649 53.7949 42.9654 53.7984C42.9665 53.8052 42.9682 53.8157 42.9705 53.8293C42.9754 53.8565 42.983 53.8961 42.9943 53.9447C43.017 54.0424 43.054 54.1756 43.1114 54.3185C43.2275 54.6073 43.4204 54.9189 43.7299 55.0687C44.0491 55.22 44.3285 55.2464 44.5268 55.2357C44.6262 55.2304 44.7054 55.2157 44.7589 55.2027C44.7857 55.1962 44.806 55.1901 44.8192 55.1858C44.8258 55.1837 44.8306 55.182 44.8336 55.1809C44.8344 55.1806 44.835 55.1804 44.8355 55.1802C44.836 55.18 44.8363 55.1799 44.8366 55.1798L44.8368 55.1797L44.837 55.1796L45.0242 55.1048L44.9584 55.2957V55.2958L44.9582 55.2965L44.9573 55.2993C44.9564 55.3018 44.9552 55.3055 44.9535 55.3105C44.9501 55.3206 44.9452 55.3355 44.939 55.355C44.9266 55.3939 44.909 55.4508 44.8884 55.5218C44.8472 55.664 44.7942 55.8628 44.7472 56.0891C44.6526 56.5454 44.5853 57.0999 44.6775 57.5284L44.6776 57.5286C44.7729 57.9775 44.904 58.2996 45.1484 58.5179C45.3922 58.7357 45.7642 58.8638 46.3735 58.8862L46.3667 59.071C45.7381 59.0479 45.3153 58.9149 45.0252 58.6558C44.7359 58.3973 44.5944 58.0267 44.4967 57.5672C44.396 57.0987 44.4707 56.5122 44.5662 56.0516C44.6144 55.8195 44.6686 55.6159 44.7107 55.4703C44.7184 55.4441 44.7256 55.4197 44.7323 55.3974C44.6781 55.4075 44.6123 55.4163 44.5367 55.4204C44.3121 55.4324 44.0012 55.402 43.6504 55.2355L43.6498 55.2353C43.2781 55.0557 43.0622 54.6918 42.9399 54.3875C42.878 54.2336 42.8384 54.0909 42.8142 53.9865C42.8021 53.9343 42.7938 53.8915 42.7884 53.8615C42.7858 53.8465 42.7839 53.8347 42.7827 53.8264C42.782 53.8224 42.7816 53.8191 42.7812 53.8169L42.7808 53.8142L42.7808 53.8134L42.7807 53.8131Z" fill="black"/>
<path d="M43.2237 56.3896C43.2123 56.7416 43.2237 57.3662 43.1556 57.7181C43.042 58.3313 43.0874 58.036 42.9739 58.6379C42.8376 59.2964 43.076 60.5455 43.8823 60.7044" fill="#FDFADD"/>
<path fill-rule="evenodd" clip-rule="evenodd" d="M43.1252 56.684C43.1268 56.5753 43.1282 56.4736 43.131 56.3877L43.3158 56.3937C43.313 56.4778 43.3117 56.578 43.3101 56.6876L43.31 56.6985C43.3084 56.812 43.3066 56.9347 43.303 57.0576C43.2959 57.3015 43.2817 57.5523 43.246 57.7364C43.1892 58.0432 43.172 58.1236 43.1547 58.203C43.1541 58.2056 43.1536 58.2082 43.153 58.2108C43.1367 58.2855 43.1191 58.3661 43.0644 58.656L43.0642 58.6568L43.0641 58.6576C42.9995 58.9694 43.0233 59.4293 43.1617 59.8293C43.3008 60.2314 43.5447 60.5447 43.8999 60.6147L43.8642 60.7961C43.4131 60.7072 43.1346 60.3165 42.9869 59.8897C42.8386 59.4611 42.8113 58.9677 42.8829 58.6209C42.9378 58.3293 42.9557 58.2475 42.9724 58.1709L42.9741 58.1635C42.9908 58.0868 43.0077 58.0084 43.0644 57.7023L43.0645 57.7016C43.097 57.5337 43.1111 57.2963 43.1182 57.0522C43.1217 56.9309 43.1235 56.8095 43.1251 56.6959C43.1251 56.692 43.1252 56.688 43.1252 56.684Z" fill="black"/>
<path d="M42.0769 55.834C42.0769 55.834 42.1451 59.1836 40.8846 59.7854L42.0769 55.834Z" fill="#FDFADD"/>
<path fill-rule="evenodd" clip-rule="evenodd" d="M41.9846 55.8348L42.077 55.8329C42.1694 55.831 42.1694 55.8311 42.1694 55.8311L42.1695 55.8337L42.1696 55.8412C42.1697 55.8477 42.1698 55.8574 42.1699 55.87C42.1701 55.895 42.1702 55.9318 42.1699 55.9786C42.1693 56.0723 42.1671 56.2066 42.1604 56.3695C42.1469 56.6951 42.1158 57.1362 42.0449 57.597C41.974 58.057 41.8629 58.5407 41.6877 58.9495C41.5133 59.3562 41.2695 59.703 40.9244 59.8678L40.8448 59.7009C41.13 59.5647 41.3503 59.2672 41.5177 58.8766C41.6843 58.4881 41.7925 58.0215 41.8621 57.5688C41.9317 57.117 41.9623 56.6831 41.9756 56.3619C41.9822 56.2014 41.9844 56.0692 41.985 55.9774C41.9853 55.9315 41.9852 55.8956 41.985 55.8713C41.9849 55.8593 41.9848 55.85 41.9847 55.8439L41.9846 55.8369V55.8353V55.8348Z" fill="black"/>
<path d="M41.8154 50.5651C41.8154 50.5651 43.8596 49.4637 44.7226 48.4645C45.5857 47.4653 45.6879 47.4198 45.9605 47.7946C46.233 48.1693 47.0507 49.8157 45.9605 50.5538C44.8702 51.2918 42.3491 53.4152 40.8955 53.506C39.4305 53.6195 41.8154 50.5651 41.8154 50.5651Z" fill="#FDFADD"/>
<path fill-rule="evenodd" clip-rule="evenodd" d="M45.3082 47.9507C45.1752 48.0874 45.0086 48.2757 44.7928 48.5256C44.3519 49.036 43.6153 49.5671 42.9957 49.9678C42.6847 50.1689 42.4009 50.3386 42.1948 50.4581C42.0917 50.5178 42.0081 50.565 41.9501 50.5972C41.9211 50.6134 41.8985 50.6259 41.8831 50.6342C41.8808 50.6355 41.8787 50.6367 41.8768 50.6377C41.873 50.6427 41.8682 50.6489 41.8625 50.6562C41.8456 50.6783 41.8209 50.7108 41.79 50.7522C41.7281 50.8349 41.6411 50.9531 41.5414 51.0945C41.3416 51.3778 41.0915 51.7529 40.8872 52.1234C40.6806 52.4982 40.5297 52.8533 40.5137 53.101C40.5057 53.2232 40.5317 53.3006 40.5789 53.3464C40.6266 53.3926 40.7177 53.4277 40.8886 53.4144L40.89 53.4144C41.2352 53.3928 41.6524 53.2493 42.1065 53.0277C42.559 52.8069 43.0405 52.5125 43.513 52.1964C43.9853 51.8804 44.4466 51.544 44.8588 51.2399C44.9273 51.1894 44.9944 51.1398 45.06 51.0912C45.3888 50.8482 45.68 50.6328 45.9088 50.4778C46.4094 50.139 46.4801 49.5904 46.3808 49.0555C46.2815 48.5201 46.0152 48.0274 45.8859 47.8496C45.8167 47.7545 45.7703 47.7043 45.73 47.6828C45.7129 47.6737 45.698 47.6705 45.6819 47.6713C45.6647 47.6723 45.6406 47.6785 45.6067 47.6965C45.5366 47.7339 45.4429 47.8124 45.3082 47.9507ZM41.8155 50.5657L41.7717 50.4844L41.7731 50.4837L41.7774 50.4813C41.7812 50.4793 41.7869 50.4762 41.7944 50.472C41.8093 50.4638 41.8315 50.4516 41.8601 50.4357C41.9173 50.4039 42.0001 50.3572 42.1021 50.298C42.3063 50.1797 42.5874 50.0116 42.8953 49.8125C43.5136 49.4127 44.2306 48.8935 44.6529 48.4047C44.8686 48.155 45.0384 47.9629 45.1758 47.8217C45.3116 47.6822 45.4223 47.5854 45.5197 47.5334C45.5695 47.5068 45.62 47.4896 45.6716 47.4868C45.7245 47.4838 45.7729 47.4961 45.8172 47.5198C45.8998 47.5639 45.9684 47.6486 46.0354 47.7408C46.1787 47.9377 46.4575 48.4556 46.5626 49.0217C46.6678 49.5881 46.6021 50.2318 46.0125 50.631C45.7871 50.7835 45.4998 50.9959 45.171 51.2391C45.1052 51.2878 45.0376 51.3377 44.9686 51.3886C44.5561 51.693 44.0919 52.0316 43.6159 52.3501C43.1401 52.6684 42.6507 52.9679 42.1876 53.1939C41.7263 53.4189 41.2835 53.5748 40.9022 53.5989C40.7072 53.6138 40.5524 53.5783 40.4503 53.4792C40.3476 53.3798 40.3195 53.2372 40.3291 53.089C40.3482 52.796 40.5188 52.4087 40.7253 52.0341C40.9342 51.6552 41.1886 51.2738 41.3903 50.9879C41.4912 50.8448 41.5791 50.7253 41.6419 50.6414C41.6734 50.5994 41.6984 50.5664 41.7157 50.5438C41.7244 50.5325 41.7311 50.5238 41.7356 50.518L41.7409 50.5112L41.7426 50.5089C41.7426 50.5089 41.7427 50.5089 41.8155 50.5657ZM41.8155 50.5657L41.7426 50.5089L41.7547 50.4936L41.7717 50.4844L41.8155 50.5657Z" fill="black"/>
<path d="M39.3627 64.5312C39.022 64.4972 38.863 64.4972 38.7948 64.5085L38.8289 64.0543C38.8289 64.0543 37.8068 63.6456 38.1021 55.8676C38.3974 48.0897 30.8454 58.536 30.8454 58.536C30.8454 58.536 34.2636 59.7964 35.1154 61.931C35.5924 63.1233 35.8422 63.7478 35.9671 64.0657V64.8946C35.9671 64.8946 34.8201 65.3261 35.1835 66.5867C39.1015 66.0982 40.6005 66.0641 40.6005 66.0641C40.6005 66.0641 40.1803 64.588 39.3627 64.5312Z" fill="#42994A"/>
<path fill-rule="evenodd" clip-rule="evenodd" d="M37.961 53.7163C38.1461 54.1925 38.2314 54.8948 38.1943 55.8718C38.0468 59.7582 38.2287 61.7963 38.4452 62.86C38.5534 63.3918 38.6693 63.6755 38.7539 63.8238C38.796 63.8976 38.8296 63.9365 38.8495 63.9557C38.8588 63.9647 38.8651 63.9693 38.8678 63.9711L38.926 63.9943L38.8948 64.41C38.9947 64.409 39.1455 64.4173 39.3703 64.4398C39.6025 64.4564 39.8008 64.5731 39.9644 64.7283C40.1283 64.8836 40.2628 65.0825 40.3689 65.275C40.4754 65.4682 40.5553 65.6588 40.6084 65.8008C40.6351 65.872 40.6552 65.9312 40.6686 65.9728C40.6754 65.9936 40.6804 66.0101 40.6839 66.0214C40.6856 66.0271 40.6869 66.0315 40.6878 66.0345L40.6888 66.038L40.6891 66.039L40.6892 66.0393C40.6892 66.0393 40.6892 66.0395 40.6677 66.0456L40.6892 66.0395L40.722 66.1545L40.6024 66.1572H40.6022L40.6015 66.1573L40.5983 66.1573L40.5853 66.1577C40.5737 66.158 40.5559 66.1586 40.5318 66.1596C40.4836 66.1615 40.4102 66.1647 40.3098 66.1701C40.1089 66.1808 39.7999 66.2003 39.3684 66.235C38.5054 66.3044 37.1526 66.4349 35.1948 66.6792L35.1163 66.6884L35.0944 66.6129C34.9029 65.9484 35.1099 65.4928 35.3704 65.2063C35.4989 65.065 35.6389 64.9662 35.7463 64.9027C35.7976 64.8725 35.8418 64.8501 35.8744 64.8347V64.0839C35.7476 63.7615 35.4984 63.1386 35.0296 61.9667L35.0293 61.966C34.6152 60.9283 33.5706 60.0927 32.6129 59.5127C32.1362 59.2242 31.6857 59.0015 31.3544 58.8511C31.1887 58.7759 31.053 58.7189 30.9589 58.6807C30.9118 58.6615 30.8752 58.6471 30.8504 58.6376C30.838 58.6328 30.8286 58.6292 30.8223 58.6269L30.8153 58.6242L30.8136 58.6236L30.8132 58.6234L30.6989 58.5813L30.7702 58.4825L30.8452 58.5366C30.7702 58.4825 30.7702 58.4824 30.7703 58.4823L30.7758 58.4748C30.7795 58.4697 30.785 58.4622 30.7922 58.4523C30.8065 58.4327 30.8279 58.4037 30.8556 58.3662C30.9111 58.2913 30.9923 58.1826 31.0955 58.0469C31.302 57.7758 31.5965 57.3973 31.949 56.9673C32.6535 56.1082 33.5919 55.041 34.523 54.2165C34.9883 53.8044 35.4547 53.4503 35.8915 53.2133C36.3259 52.9775 36.7443 52.8503 37.1083 52.9128C37.4817 52.9769 37.7744 53.236 37.961 53.7163ZM30.9909 58.4942C30.9952 58.4884 30.9996 58.4824 31.0042 58.4763C31.0592 58.4019 31.1399 58.2939 31.2426 58.1589C31.448 57.8892 31.7412 57.5124 32.092 57.0845C32.7943 56.2281 33.7255 55.1698 34.6455 54.355C35.1057 53.9474 35.5602 53.6034 35.9797 53.3758C36.4015 53.1469 36.7744 53.0431 37.077 53.095C37.3699 53.1453 37.6188 53.3462 37.7886 53.7833C37.9602 54.2247 38.0463 54.8973 38.0095 55.8648C37.8617 59.7564 38.0432 61.8117 38.264 62.8968C38.3744 63.4394 38.4955 63.744 38.5933 63.9154C38.6424 64.0014 38.6863 64.0552 38.7212 64.0888C38.7251 64.0926 38.7289 64.0962 38.7327 64.0995L38.6936 64.6197L38.8098 64.6004C38.864 64.5914 39.0109 64.5897 39.3533 64.6239L39.3546 64.6241L39.356 64.6241C39.5321 64.6363 39.6925 64.7252 39.8372 64.8625C39.9821 64.9999 40.1059 65.1807 40.207 65.3643C40.3079 65.5472 40.3842 65.7291 40.4353 65.8657C40.451 65.9076 40.4643 65.9451 40.4751 65.9769C40.4298 65.9788 40.3716 65.9815 40.2999 65.9854C40.0973 65.9963 39.7867 66.0159 39.3536 66.0507C38.4994 66.1194 37.169 66.2476 35.2518 66.4854C35.1163 65.932 35.2946 65.5645 35.5072 65.3308C35.62 65.2067 35.7441 65.1188 35.8404 65.062C35.8883 65.0336 35.929 65.0132 35.9573 65.0001C35.9715 64.9935 35.9825 64.9888 35.9897 64.9857C35.9933 64.9842 35.996 64.9831 35.9976 64.9825L35.9994 64.9818L35.9995 64.9817L36.0593 64.9592V64.0489L36.053 64.0325C35.928 63.7145 35.6782 63.0902 35.2018 61.8995L35.2011 61.8974C34.7633 60.8005 33.673 59.9385 32.7086 59.3545C32.2242 59.0612 31.767 58.8353 31.4308 58.6828C31.2626 58.6064 31.1246 58.5484 31.0285 58.5093C31.0151 58.5039 31.0027 58.4988 30.9909 58.4942Z" fill="black"/>
<path d="M42.0425 44.1626C41.5769 42.2777 39.8621 39.95 39.5555 39.5413H39.6236C38.363 37.8381 35.7397 34.5452 33.9681 33.8866C32.7757 34.1137 33.7751 34.4998 33.7751 34.4998C33.7751 34.4998 36.6369 37.0318 36.7618 37.5996C36.8867 38.1673 37.3751 38.6102 36.5347 38.6783C35.6943 38.7464 28.7328 38.7464 28.7328 38.7464C28.7328 38.7464 26.2003 34.3749 25.6779 33.898C25.1556 33.4211 23.0092 34.2159 23.0092 34.2159C23.0092 34.2159 24.724 35.6693 24.6445 39.5413H24.7127C24.7694 40.0067 24.9625 42.9703 21.1694 43.7084C19.307 47.5576 19.0345 49.8172 19.0345 49.8172C19.0345 49.8172 21.2036 56.3007 21.8622 58.0948C22.5209 59.8888 22.2937 63.034 20.8628 64.056L20.5221 64.2036C20.5221 64.2036 19.6591 63.8743 19.3865 64.2831C19.1139 64.6918 18.6937 65.305 18.6937 65.305L21.0218 66.5086L22.112 66.7017C22.112 66.7017 22.9411 66.0657 22.4186 65.3163C23.0205 64.2603 23.7928 63.3065 23.7928 63.3065C23.7928 63.3065 26.9498 58.4354 32.0035 58.4467C37.0571 58.4581 38.9536 55.8806 40.6003 54.0411C42.2469 52.2017 42.5536 46.2292 42.0425 44.1626Z" fill="#42994A"/>
<path fill-rule="evenodd" clip-rule="evenodd" d="M25.4328 33.6841C25.5508 33.7101 25.6585 33.7551 25.74 33.8294C25.8132 33.8963 25.915 34.0242 26.0338 34.1888C26.1543 34.3557 26.2969 34.5669 26.4528 34.8059C26.7644 35.2841 27.1306 35.8762 27.48 36.4528C27.8295 37.0295 28.1626 37.5912 28.4083 38.0087C28.5312 38.2175 28.6322 38.3902 28.7025 38.5108C28.7377 38.571 28.7651 38.6183 28.7838 38.6504L28.7857 38.6536H28.8108C28.862 38.6536 28.9372 38.6536 29.0332 38.6535C29.2251 38.6534 29.5003 38.6531 29.8332 38.6526C30.4989 38.6515 31.3952 38.6494 32.3178 38.6452C34.1661 38.6366 36.1112 38.6195 36.5268 38.5858C36.7335 38.569 36.835 38.5301 36.882 38.4901C36.9184 38.4591 36.932 38.4186 36.9188 38.3416C36.9049 38.261 36.8652 38.1642 36.815 38.042L36.8113 38.0328C36.7613 37.9109 36.7043 37.7699 36.6711 37.6192C36.6602 37.5691 36.613 37.4815 36.5226 37.3576C36.435 37.2377 36.3154 37.0948 36.1734 36.9373C35.8897 36.6225 35.5221 36.2546 35.1571 35.9031C34.7924 35.5519 34.4314 35.2182 34.1616 34.9723C34.0267 34.8494 33.9146 34.7484 33.8362 34.6783C33.7971 34.6431 33.7664 34.6157 33.7454 34.5971L33.7253 34.5792C33.7179 34.5762 33.7083 34.5721 33.6969 34.567C33.6704 34.5554 33.6339 34.5385 33.5939 34.5173C33.5174 34.4768 33.4152 34.4142 33.3521 34.3361C33.32 34.2962 33.2908 34.2435 33.2902 34.181C33.2896 34.115 33.3207 34.0571 33.3719 34.0099C33.4214 33.9644 33.4926 33.9255 33.5849 33.8912C33.6781 33.8565 33.7983 33.8245 33.9505 33.7955L33.9758 33.7907L34 33.7997C34.4573 33.9697 34.9629 34.3066 35.4807 34.737C35.9996 35.1685 36.536 35.6981 37.055 36.2591C38.0931 37.381 39.0663 38.633 39.6976 39.4859L39.8067 39.6334H39.7388C39.959 39.9337 40.3817 40.5285 40.8182 41.2502C41.3446 42.1209 41.8957 43.1837 42.1319 44.1401C42.3912 45.1888 42.4412 47.2112 42.2221 49.1969C42.1124 50.1912 41.9348 51.1805 41.6805 52.0382C41.4268 52.8938 41.0941 53.6275 40.6688 54.1025C40.5567 54.2277 40.4432 54.3567 40.3273 54.4883C39.5964 55.3187 38.7732 56.2541 37.6303 57.0147C36.3028 57.8981 34.5471 58.5447 32.0029 58.5389C29.5067 58.5333 27.4748 59.7336 26.0628 60.9423C25.3574 61.5462 24.8085 62.1507 24.4362 62.604C24.25 62.8306 24.1081 63.0193 24.0129 63.1511C23.9653 63.217 23.9294 63.2686 23.9055 63.3037C23.8935 63.3212 23.8846 63.3346 23.8786 63.3434C23.8757 63.3479 23.8735 63.3513 23.8721 63.3534L23.8705 63.3559L23.8701 63.3564L23.87 63.3565L23.8673 63.3606L23.8643 63.3644L23.8642 63.3646L23.8622 63.367L23.8558 63.375C23.8501 63.3822 23.8416 63.3928 23.8305 63.4067C23.8085 63.4346 23.7762 63.4757 23.7355 63.5283C23.6542 63.6336 23.5395 63.785 23.406 63.9694C23.1471 64.3267 22.8187 64.8066 22.5269 65.3125C22.7744 65.706 22.6891 66.0723 22.5415 66.335C22.4654 66.4704 22.3725 66.5795 22.2992 66.6549C22.2625 66.6923 22.2303 66.7218 22.207 66.7422C22.1954 66.7527 22.1859 66.7606 22.1792 66.7658C22.1759 66.7684 22.1733 66.7704 22.1713 66.7717L22.1691 66.7737L22.1683 66.7743H22.1681H22.168C22.168 66.7743 22.1679 66.7743 22.1117 66.7015L22.168 66.7743L22.1357 66.7993L20.9915 66.5972L18.558 65.3387L18.6172 65.2524L18.6172 65.2523L18.6174 65.252L18.6357 65.2253C18.6477 65.2077 18.6652 65.1822 18.687 65.1503C18.7306 65.0865 18.7916 64.9971 18.8611 64.895C19.0002 64.6906 19.1732 64.4354 19.3092 64.2314C19.3944 64.1037 19.5237 64.0377 19.6584 64.0077C19.7921 63.9778 19.9373 63.9817 20.0676 63.998C20.1988 64.0144 20.3201 64.044 20.4082 64.0694C20.4524 64.082 20.4886 64.0938 20.5139 64.1024C20.5155 64.1029 20.517 64.1034 20.5185 64.1039L20.8166 63.9748C21.4957 63.4843 21.9025 62.4783 22.0542 61.3522C22.2058 60.2259 22.0983 59.0067 21.775 58.1264C21.4452 57.2279 20.7378 55.1573 20.1134 53.3125C19.8011 52.3899 19.5094 51.5234 19.2956 50.8874C19.1888 50.5695 19.1015 50.3092 19.0409 50.1284C19.0106 50.038 18.987 49.9675 18.971 49.9195L18.9465 49.8465L18.9464 49.8463C18.9464 49.8463 18.9464 49.8462 19.0341 49.8169C18.9423 49.8059 18.9423 49.8058 18.9423 49.8057L18.9424 49.8056V49.8052L18.9426 49.8038L18.9433 49.7984C18.9439 49.7937 18.9448 49.7868 18.946 49.7778C18.9486 49.7597 18.9525 49.733 18.9582 49.6977C18.9695 49.6272 18.9876 49.5227 19.0151 49.3855C19.0703 49.1111 19.1632 48.7059 19.3143 48.1804C19.6167 47.1294 20.1523 45.5973 21.0859 43.6678L21.106 43.6262L21.1515 43.6174C23.021 43.2535 23.8954 42.3459 24.3007 41.483C24.6697 40.6976 24.6553 39.9381 24.6289 39.6334H24.5498L24.5517 39.5391C24.5912 37.6175 24.1854 36.3009 23.7734 35.4672C23.5673 35.0502 23.3593 34.7533 23.2038 34.5614C23.1259 34.4655 23.0613 34.3958 23.0166 34.3506C22.9942 34.3279 22.9769 34.3115 22.9653 34.3008C22.9595 34.2954 22.9553 34.2916 22.9525 34.2892L22.9496 34.2866L22.9491 34.2861L22.949 34.2861L22.8284 34.1838L22.9767 34.1289L23.0089 34.2156C22.9767 34.1289 22.9767 34.1289 22.9767 34.1289L22.9785 34.1283L22.9833 34.1265C22.9875 34.125 22.9937 34.1227 23.0018 34.1198C23.0179 34.114 23.0415 34.1056 23.0717 34.0951C23.132 34.0741 23.2187 34.0446 23.3242 34.0108C23.5351 33.9433 23.8223 33.858 24.1265 33.7877C24.43 33.7176 24.7541 33.6614 25.0377 33.6537C25.1796 33.6499 25.3143 33.6581 25.4328 33.6841ZM23.1799 34.2533C23.225 34.3008 23.282 34.3643 23.3474 34.445C23.5109 34.6467 23.7266 34.9551 23.9392 35.3853C24.3578 36.2324 24.7633 37.5489 24.7382 39.4485H24.7942L24.8041 39.5297C24.8335 39.7705 24.8974 40.6478 24.4681 41.5616C24.0393 42.4742 23.1249 43.4096 21.2323 43.7898C20.3158 45.6901 19.7894 47.1979 19.492 48.2315C19.3423 48.7521 19.2506 49.1524 19.1964 49.4219C19.1693 49.5567 19.1516 49.6588 19.1407 49.7269C19.1353 49.761 19.1315 49.7865 19.1292 49.8034C19.129 49.8049 19.1288 49.8065 19.1286 49.8078L19.1463 49.8608C19.1623 49.9087 19.1859 49.9792 19.2162 50.0696C19.2769 50.2504 19.3641 50.5106 19.471 50.8286C19.6846 51.4644 19.9763 52.3308 20.2886 53.2533C20.9133 55.0989 21.6198 57.1669 21.9486 58.0626C22.2841 58.9763 22.3923 60.2267 22.2374 61.3769C22.083 62.5232 21.6633 63.5973 20.9162 64.1309L20.9082 64.1366L20.524 64.3031L20.4889 64.2897L20.4885 64.2896L20.4871 64.289C20.4857 64.2885 20.4835 64.2877 20.4805 64.2866C20.4747 64.2845 20.4658 64.2814 20.4544 64.2774C20.4315 64.2696 20.3981 64.2589 20.3571 64.2471C20.2748 64.2234 20.1634 64.1963 20.0447 64.1814C19.9252 64.1665 19.8035 64.1647 19.6987 64.1881C19.5949 64.2113 19.5141 64.2574 19.4631 64.3341C19.3265 64.5388 19.1531 64.7946 19.014 64.999C18.9444 65.1012 18.8833 65.1907 18.8397 65.2547C18.8359 65.2602 18.8323 65.2655 18.8288 65.2706L21.0515 66.4197L22.0856 66.6031C22.1056 66.5854 22.1341 66.5593 22.1669 66.5257C22.2328 66.4581 22.3144 66.3616 22.3803 66.2444C22.5105 66.0127 22.5776 65.7062 22.3425 65.3689L22.3091 65.321L22.338 65.2703C22.6412 64.7383 22.9868 64.2329 23.2562 63.8609C23.391 63.6748 23.5069 63.5218 23.5892 63.4153C23.6303 63.362 23.6631 63.3203 23.6856 63.2919C23.6969 63.2777 23.7055 63.2668 23.7114 63.2594L23.7175 63.252C23.7175 63.2519 23.7175 63.2518 23.7175 63.2518C23.7192 63.2494 23.7215 63.2457 23.7247 63.2411C23.731 63.2316 23.7404 63.2176 23.7528 63.1994C23.7776 63.1631 23.8144 63.1101 23.863 63.0429C23.9602 62.9083 24.1044 62.7165 24.2933 62.4866C24.6707 62.027 25.227 61.4143 25.9425 60.8019C27.3725 59.5779 29.4459 58.3483 32.0033 58.354C34.5127 58.3596 36.2322 57.723 37.5279 56.8607C38.6489 56.1147 39.4552 55.199 40.1866 54.3682C40.303 54.2361 40.4174 54.106 40.531 53.9792C40.9291 53.5345 41.2523 52.8318 41.5032 51.9856C41.7535 51.1415 41.9294 50.1636 42.0383 49.1766C42.2564 47.1995 42.2041 45.2023 41.9524 44.1845C41.7231 43.256 41.1839 42.2125 40.6599 41.3459C40.1369 40.481 39.6336 39.7996 39.4812 39.5964L39.3702 39.4485H39.4394C38.8102 38.6056 37.8928 37.4368 36.9193 36.3847C36.4035 35.8272 35.873 35.3037 35.3625 34.8792C34.8603 34.4618 34.3822 34.1443 33.9597 33.9821C33.8263 34.0084 33.725 34.0364 33.6494 34.0645C33.5681 34.0948 33.5217 34.1233 33.4972 34.1459C33.4749 34.1664 33.4751 34.1773 33.4752 34.1791C33.4752 34.184 33.4778 34.1974 33.496 34.22C33.5338 34.2668 33.6068 34.3149 33.6805 34.3539C33.7156 34.3725 33.7479 34.3874 33.7713 34.3978C33.783 34.403 33.7925 34.4069 33.7988 34.4096C33.8021 34.4109 33.8045 34.4118 33.8061 34.4124L33.8077 34.4131L33.808 34.4132L33.8235 34.4192L33.836 34.4302L33.7747 34.4995C33.836 34.4302 33.836 34.4302 33.836 34.4302L33.8361 34.4304L33.8443 34.4376L33.8683 34.459C33.8894 34.4777 33.9203 34.5053 33.9596 34.5405C34.0383 34.611 34.1507 34.7123 34.2861 34.8357C34.5567 35.0823 34.919 35.4171 35.2854 35.7699C35.6515 36.1224 36.0227 36.4939 36.3108 36.8135C36.4547 36.9733 36.5791 37.1214 36.6719 37.2486C36.7619 37.3719 36.8315 37.4875 36.8518 37.5794C36.881 37.7126 36.932 37.8398 36.9824 37.9627C36.9852 37.9694 36.9879 37.9762 36.9907 37.983C37.0367 38.0948 37.0836 38.2089 37.101 38.3103C37.1204 38.4236 37.1064 38.5419 37.0018 38.6309C36.9079 38.7109 36.7553 38.7528 36.5418 38.7702C36.117 38.8045 34.1612 38.8215 32.3187 38.8301C31.3958 38.8343 30.4993 38.8364 29.8335 38.8375C29.5006 38.838 29.2253 38.8383 29.0333 38.8384C28.9373 38.8385 28.8621 38.8385 28.8109 38.8385H28.7325C28.7325 38.8385 28.7325 38.8385 28.7325 38.7461C28.6525 38.7925 28.6525 38.7925 28.6524 38.7924L28.6523 38.7923L28.6239 38.7433C28.6053 38.7112 28.5779 38.6641 28.5428 38.604C28.4726 38.4835 28.3716 38.311 28.2489 38.1025C28.0035 37.6854 27.6708 37.1244 27.3218 36.5487C26.9728 35.9727 26.6079 35.3826 26.2978 34.9069C26.1428 34.6691 26.0019 34.4605 25.8839 34.297C25.7642 34.1313 25.6726 34.0183 25.6153 33.9659C25.5661 33.921 25.4925 33.8866 25.393 33.8647C25.2942 33.843 25.1755 33.835 25.0427 33.8386C24.777 33.8458 24.4665 33.8989 24.1681 33.9679C23.8705 34.0367 23.5885 34.1203 23.3806 34.1869C23.3019 34.2121 23.2339 34.2349 23.1799 34.2533ZM28.7325 38.7461L28.6524 38.7924L28.6792 38.8385H28.7325L28.7325 38.7461ZM19.0341 49.8169L18.9423 49.8057L18.9398 49.8265L18.9464 49.8463L19.0341 49.8169Z" fill="black"/>
<path d="M42.0652 44.1269C41.5996 42.2421 39.8848 39.9143 39.5781 39.5056H39.6462C38.3857 37.8024 35.7623 34.5095 33.9908 33.851C32.7983 34.078 33.7977 34.4641 33.7977 34.4641C33.7977 34.4641 36.6595 36.9962 36.7844 37.564C36.9094 38.1317 37.3977 38.5745 36.5573 38.6426C35.7169 38.7107 28.7555 38.7107 28.7555 38.7107C28.7555 38.7107 26.2343 34.3392 25.7119 33.8623C25.1896 33.3854 23.0432 34.1803 23.0432 34.1803C23.0432 34.1803 24.5472 36.0426 24.6127 39.1216C24.6127 39.1216 24.9965 42.9347 21.2034 43.6727C19.341 47.522 19.0685 49.7815 19.0685 49.7815C19.0685 49.7815 21.2376 56.265 21.8962 58.0591C22.5549 59.8531 22.3278 62.9984 20.8968 64.0203L20.5561 64.168C20.5561 64.168 19.6931 63.8386 19.4205 64.2474C19.1479 64.6562 18.7277 65.2693 18.7277 65.2693L21.0558 66.4729L22.146 66.6658C22.146 66.6658 22.9751 66.0301 22.4526 65.2807C23.0545 64.2247 23.8268 63.2709 23.8268 63.2709C23.8268 63.2709 26.9838 58.3997 32.0375 58.4111C37.0911 58.4224 38.9876 55.845 40.6342 54.0055C42.2809 52.1661 42.5762 46.1935 42.0652 44.1269Z" fill="#42994A"/>
<path fill-rule="evenodd" clip-rule="evenodd" d="M25.4671 33.6485C25.5851 33.6744 25.6928 33.7195 25.7742 33.7937C25.8475 33.8607 25.9491 33.9886 26.0677 34.1532C26.1878 34.3202 26.3301 34.5314 26.4853 34.7704C26.7959 35.2486 27.1607 35.8408 27.5087 36.4173C27.8568 36.994 28.1885 37.5557 28.4331 37.9732C28.5554 38.182 28.656 38.3547 28.726 38.4753C28.761 38.5356 28.7884 38.5828 28.807 38.615L28.8087 38.618H28.8337C28.8849 38.618 28.9601 38.618 29.0561 38.6179C29.248 38.6178 29.5232 38.6175 29.8561 38.6169C30.5218 38.6159 31.4182 38.6138 32.3407 38.6095C34.189 38.601 36.1342 38.5839 36.5498 38.5502C36.7564 38.5335 36.858 38.4945 36.9049 38.4545C36.9413 38.4236 36.9549 38.3829 36.9417 38.306C36.9278 38.2253 36.8881 38.1286 36.838 38.0064L36.8342 37.9972C36.7842 37.8753 36.7273 37.7343 36.6941 37.5835C36.6831 37.5335 36.6359 37.4458 36.5455 37.322C36.458 37.202 36.3383 37.0592 36.1963 36.9017C35.9126 36.5869 35.545 36.2189 35.18 35.8674C34.8153 35.5162 34.4544 35.1826 34.1845 34.9367C34.0496 34.8137 33.9375 34.7128 33.8592 34.6426C33.82 34.6075 33.7893 34.5801 33.7684 34.5614L33.7482 34.5436C33.7409 34.5405 33.7312 34.5364 33.7198 34.5314C33.6933 34.5198 33.6568 34.5028 33.6168 34.4817C33.5403 34.4412 33.4381 34.3786 33.375 34.3005C33.3429 34.2607 33.3138 34.2079 33.3132 34.1454C33.3125 34.0794 33.3436 34.0214 33.3949 33.9742C33.4443 33.9288 33.5155 33.8899 33.6078 33.8555C33.701 33.8209 33.8212 33.7888 33.9734 33.7599L33.9987 33.755L34.0229 33.764C34.4802 33.934 34.9858 34.271 35.5036 34.7015C36.0225 35.1328 36.5589 35.6625 37.0779 36.2234C38.116 37.3454 39.0893 38.5974 39.7205 39.4503L39.8297 39.5978H39.7617C39.982 39.898 40.4047 40.4928 40.8411 41.2146C41.3675 42.0853 41.9186 43.1481 42.1549 44.1045C42.4142 45.1532 42.4669 47.1754 42.2507 49.1611C42.1424 50.1554 41.9663 51.1448 41.713 52.0025C41.4604 52.8581 41.1283 53.5918 40.7031 54.0668C40.5909 54.1921 40.4774 54.3211 40.3616 54.4527C39.6307 55.2831 38.8074 56.2185 37.6646 56.979C36.337 57.8625 34.5815 58.509 32.0372 58.5033C29.541 58.4977 27.5091 59.698 26.0971 60.9067C25.3916 61.5106 24.8427 62.115 24.4704 62.5684C24.2843 62.7949 24.1424 62.9837 24.0472 63.1155C23.9996 63.1814 23.9637 63.233 23.9397 63.268C23.9278 63.2856 23.9189 63.2989 23.9129 63.3078C23.9099 63.3123 23.9078 63.3156 23.9063 63.3178L23.9044 63.3208L23.9043 63.3209L23.9017 63.325L23.8986 63.3288L23.8985 63.3289L23.8965 63.3314L23.8901 63.3394C23.8844 63.3465 23.8759 63.3571 23.8648 63.3711C23.8427 63.3989 23.8105 63.44 23.7698 63.4926C23.6885 63.598 23.5737 63.7494 23.4403 63.9337C23.1814 64.2911 22.8529 64.7709 22.5612 65.2769C22.5508 65.2605 22.5399 65.244 22.5285 65.2275L22.4526 65.2804L22.5329 65.3262C22.5423 65.3097 22.5517 65.2933 22.5612 65.2769C22.8087 65.6704 22.7233 66.0367 22.5758 66.2993C22.4997 66.4348 22.4067 66.5441 22.3335 66.6189C22.2968 66.657 22.2645 66.6865 22.2412 66.7069C22.2296 66.7167 22.2202 66.7246 22.2135 66.7298C22.2102 66.7325 22.2075 66.7351 22.2056 66.7364L22.2033 66.7384L22.2027 66.739H22.2024H22.2023C22.2023 66.739 22.2022 66.739 22.146 66.6655L22.1621 66.5743L22.1199 66.5671C22.1399 66.5497 22.1683 66.5237 22.2012 66.4901C22.267 66.4225 22.3487 66.326 22.4145 66.2088C22.5447 65.9771 22.6119 65.6705 22.3767 65.3332L22.3433 65.2853L22.3723 65.2346C22.6755 64.7027 23.0211 64.1972 23.2905 63.8253C23.4253 63.6392 23.5412 63.4861 23.6235 63.3797C23.6646 63.3264 23.6973 63.2847 23.7199 63.2562C23.7311 63.2421 23.7399 63.2312 23.7458 63.2237L23.7517 63.2163L23.7498 63.2192L23.7493 63.22L23.7492 63.2202C23.7492 63.2203 23.7491 63.2203 23.8267 63.2706C23.7548 63.2125 23.7548 63.2125 23.7548 63.2125L23.7547 63.2127L23.7525 63.2154L23.7519 63.2161C23.7535 63.2137 23.7559 63.2101 23.759 63.2054C23.7653 63.1959 23.7746 63.1819 23.787 63.1638C23.8118 63.1275 23.8487 63.0745 23.8973 63.0072C23.9945 62.8726 24.1387 62.6809 24.3275 62.451C24.705 61.9913 25.2613 61.3787 25.9769 60.7662C27.4068 59.5422 29.4802 58.3126 32.0376 58.3184C34.547 58.324 36.2664 57.6874 37.5622 56.8251C38.6832 56.0791 39.4894 55.1634 40.2209 54.3326C40.3373 54.2004 40.4518 54.0704 40.5653 53.9435C40.9634 53.4989 41.2858 52.7963 41.5356 51.9501C41.7849 51.106 41.9594 50.1281 42.0669 49.1411C42.2822 47.164 42.227 45.1668 41.9753 44.1489C41.746 43.2203 41.2068 42.1768 40.6828 41.3103C40.1598 40.4453 39.6565 39.764 39.5041 39.5608L39.3931 39.4129H39.4623C39.4914 39.4519 39.52 39.4903 39.5479 39.5279C39.5559 39.5388 39.5639 39.5496 39.5719 39.5603L39.578 39.5557L25.4671 33.6485ZM33.9825 33.9464C34.4052 34.1087 34.8832 34.4261 35.3854 34.8437C35.896 35.2681 36.4264 35.7916 36.9422 36.349C37.9157 37.4011 38.8332 38.5699 39.4623 39.4129H39.6462V39.4542L33.9825 33.9464ZM33.9825 33.9464C33.9909 33.9448 33.9994 33.9431 34.008 33.9415L33.9907 33.8507L33.9585 33.9374C33.9665 33.9403 33.9745 33.9433 33.9825 33.9464ZM33.9825 33.9464C33.8493 33.9728 33.7479 34.0007 33.6723 34.0289C33.591 34.0591 33.5447 34.0877 33.5201 34.1103C33.4978 34.1308 33.498 34.1417 33.4981 34.1435C33.4981 34.1483 33.5007 34.1618 33.5189 34.1843C33.5567 34.2312 33.6298 34.2793 33.7034 34.3183C33.7385 34.3368 33.7708 34.3519 33.7943 34.3622C33.8059 34.3673 33.8154 34.3713 33.8218 34.3739C33.825 34.3752 33.8274 34.3762 33.829 34.3768L33.8306 34.3775L33.8309 34.3776L33.7976 34.4638C33.8589 34.3946 33.8589 34.3946 33.859 34.3946L33.859 34.3947L33.8672 34.4019L33.8913 34.4233C33.9123 34.4421 33.9432 34.4696 33.9825 34.5049C34.0612 34.5754 34.1737 34.6767 34.309 34.8C34.5796 35.0466 34.942 35.3815 35.3083 35.7343C35.6744 36.0868 36.0456 36.4583 36.3337 36.7779C36.4776 36.9376 36.602 37.0857 36.6948 37.2129C36.7849 37.3362 36.8544 37.4518 36.8747 37.5438C36.904 37.6769 36.9549 37.8041 37.0053 37.927C37.0081 37.9338 37.0109 37.9406 37.0136 37.9473C37.0596 38.0592 37.1065 38.1733 37.1239 38.2747C37.1433 38.3879 37.1293 38.5063 37.0248 38.5953C36.9309 38.6753 36.7782 38.7172 36.5647 38.7345C36.1399 38.769 34.1842 38.7859 32.3416 38.7944C31.4188 38.7987 30.5222 38.8008 29.8564 38.8018C29.5235 38.8024 29.2482 38.8027 29.0562 38.8028C28.9602 38.8029 28.885 38.8029 28.8338 38.8029L28.7555 38.803C28.7555 38.803 28.7554 38.803 28.7554 38.7105C28.6753 38.7567 28.6753 38.7566 28.6753 38.7566L28.6469 38.7075C28.6284 38.6755 28.6011 38.6283 28.5661 38.5681C28.4962 38.4478 28.3957 38.2753 28.2736 38.0667C28.0291 37.6496 27.6979 37.0887 27.3504 36.5129C27.0028 35.937 26.6393 35.3468 26.3303 34.8712C26.1757 34.6333 26.0353 34.4248 25.9176 34.2613C25.7983 34.0956 25.7068 33.9826 25.6496 33.9303C25.6004 33.8854 25.5267 33.8509 25.4274 33.8291C25.3284 33.8073 25.2098 33.7993 25.077 33.8029C24.8112 33.8101 24.5008 33.8633 24.2024 33.9322C23.9048 34.001 23.6227 34.0847 23.4149 34.1513C23.3252 34.18 23.2494 34.2055 23.1924 34.2252C23.234 34.283 23.2904 34.3647 23.3571 34.4693C23.5012 34.6953 23.6934 35.0282 23.8876 35.458C24.2756 36.3167 24.6714 37.5632 24.705 39.1159C24.7052 39.118 24.7055 39.1208 24.7057 39.1245C24.7064 39.1322 24.7073 39.1435 24.7083 39.1581C24.7103 39.1873 24.7126 39.2298 24.7141 39.2839C24.7173 39.392 24.7175 39.5467 24.7056 39.7344C24.6819 40.1095 24.6102 40.6183 24.4174 41.1516C24.0332 42.2138 23.1686 43.3686 21.2666 43.7542C20.3501 45.6544 19.8237 47.1623 19.5263 48.1959C19.3766 48.7164 19.2849 49.1167 19.2307 49.3863C19.2036 49.5211 19.1859 49.6232 19.175 49.6913C19.1695 49.7253 19.1658 49.7509 19.1634 49.7678C19.1632 49.7694 19.1631 49.7708 19.1629 49.7722L19.1806 49.8251C19.1966 49.8731 19.2202 49.9436 19.2505 50.034C19.3111 50.2148 19.3984 50.475 19.5052 50.7929C19.7188 51.4287 20.0106 52.2951 20.3228 53.2176C20.9476 55.0632 21.654 57.1313 21.9829 58.0269C22.3183 58.9406 22.4266 60.191 22.2716 61.3413C22.1173 62.4875 21.6976 63.5617 20.9505 64.0953L20.9425 64.101L20.5583 64.2674L20.5231 64.2541L20.5228 64.2539L20.5214 64.2533C20.5199 64.2528 20.5178 64.252 20.5148 64.251C20.509 64.2489 20.5001 64.2457 20.4887 64.2418C20.4657 64.234 20.4324 64.2232 20.3914 64.2114C20.3092 64.1878 20.1977 64.1607 20.079 64.1459C19.9595 64.1309 19.8378 64.1291 19.733 64.1525C19.6292 64.1756 19.5484 64.2218 19.4974 64.2984C19.3608 64.5032 19.1875 64.759 19.0483 64.9634C18.9787 65.0657 18.9176 65.1551 18.8739 65.219C18.8701 65.2245 18.8665 65.2298 18.8631 65.235L21.0857 66.384L22.1199 66.5671C22.1098 66.5756 22.1019 66.5822 22.0968 66.5868C22.0941 66.5888 22.0922 66.5901 22.0911 66.5914L22.0898 66.592H22.0896C22.0897 66.592 22.0897 66.592 22.146 66.6655L22.2023 66.739L22.1699 66.7639L21.0258 66.5612L18.5923 65.3031L18.6514 65.2168L18.6515 65.2166L18.6517 65.2163L18.6699 65.1897C18.682 65.1721 18.6995 65.1466 18.7213 65.1147C18.7649 65.0508 18.8259 64.9615 18.8954 64.8594C19.0345 64.655 19.2075 64.3999 19.3435 64.1959C19.4287 64.068 19.5581 64.0021 19.6927 63.972C19.8264 63.9422 19.9716 63.946 20.1019 63.9623C20.2331 63.9787 20.3544 64.0084 20.4425 64.0337C20.4867 64.0464 20.5229 64.0581 20.5482 64.0667C20.5498 64.0673 20.5513 64.0678 20.5527 64.0683L20.8509 63.9392C21.53 63.4487 21.9367 62.4426 22.0884 61.3166C22.2401 60.1903 22.1325 58.9711 21.8094 58.0907C21.4795 57.1923 20.7722 55.1216 20.1477 53.2769C19.8354 52.3543 19.5436 51.4877 19.3299 50.8518C19.2231 50.5339 19.1358 50.2736 19.0752 50.0927C19.0449 50.0024 19.0213 49.9318 19.0052 49.8839L18.9808 49.8109L18.9807 49.8107C18.9807 49.8106 18.9807 49.8106 19.0684 49.7813C18.9766 49.7702 18.9766 49.7701 18.9766 49.7701L18.9766 49.77V49.7696L18.9768 49.7681L18.9776 49.7627C18.9781 49.758 18.9791 49.7512 18.9803 49.7421C18.9829 49.724 18.9868 49.6973 18.9924 49.6621C19.0037 49.5915 19.0218 49.4871 19.0494 49.3499C19.1046 49.0755 19.1974 48.6703 19.3486 48.1448C19.651 47.0938 20.1866 45.5616 21.1201 43.6322L21.1403 43.5905L21.1857 43.5817C23.045 43.2199 23.8744 42.1091 24.2435 41.0886C24.4288 40.5763 24.4982 40.0858 24.5211 39.7228C24.5325 39.5415 24.5323 39.3925 24.5293 39.2892C24.5278 39.2377 24.5256 39.1975 24.5238 39.1705C24.5229 39.157 24.5221 39.1467 24.5215 39.14C24.5214 39.1381 24.5212 39.1365 24.5211 39.1352C24.521 39.1342 24.5209 39.1333 24.5208 39.1325L24.5207 39.1308L24.5206 39.1305L24.5203 39.1269L24.5202 39.1232C24.4878 37.5986 24.0992 36.3755 23.7191 35.5341C23.529 35.1133 23.3412 34.7882 23.2012 34.5688C23.1312 34.4591 23.0733 34.3758 23.033 34.3202C23.0129 34.2925 22.9972 34.2716 22.9867 34.2579C22.9814 34.251 22.9774 34.2459 22.9748 34.2426L22.972 34.2389L22.9713 34.2381L22.9712 34.2381L22.8903 34.138L23.011 34.0933L23.0431 34.1799C23.011 34.0933 23.011 34.0933 23.011 34.0933L23.0115 34.0931L23.0128 34.0926L23.0176 34.0908C23.0218 34.0893 23.028 34.087 23.0361 34.0841C23.0521 34.0784 23.0758 34.07 23.1059 34.0594C23.1663 34.0384 23.2529 34.009 23.3584 33.9752C23.5693 33.9076 23.8565 33.8224 24.1608 33.7521C24.4643 33.6819 24.7883 33.6258 25.072 33.6181C25.2139 33.6143 25.3486 33.6224 25.4671 33.6485L33.9825 33.9464ZM19.0684 49.7813L18.9766 49.7701L18.9741 49.7909L18.9807 49.8107L19.0684 49.7813ZM28.7554 38.7105L28.6753 38.7566L28.702 38.803H28.7555L28.7554 38.7105ZM33.8309 34.3776L33.8464 34.3836L33.859 34.3946L33.7976 34.4638" fill="black"/>
<path d="M20.3514 26.0004C20.3514 26.0004 20.4309 19.2217 21.7256 17.3482C23.0202 15.4746 24.5079 14.6458 26.4612 15.52C27.699 16.0878 28.8573 16.8145 29.9135 17.6774C29.9135 17.6774 31.0378 15.9742 32.0372 15.9288C32.6731 15.9061 33.2409 15.9288 33.7974 16.2694C34.3311 16.5874 34.7627 17.0643 35.1488 17.5412C36.0232 18.6312 36.7274 19.8575 37.2384 21.1633C37.4882 21.8219 37.6927 22.5032 37.8289 23.1958C37.8971 23.5478 37.9538 23.8998 37.9766 24.2518C37.9879 24.4221 37.9425 24.9899 38.181 25.0466C38.181 25.0466 40.2592 25.5462 40.7134 26.9202C41.0655 27.9875 40.9974 29.2365 40.634 30.2925C40.1115 31.814 38.9078 32.7224 37.545 33.4718C36.2276 34.1985 34.7059 34.8003 33.1842 34.9025C31.8895 35.5269 29.4365 36.4807 26.9041 34.9025C26.7905 34.8344 26.3817 34.9025 26.2454 34.9025C25.9842 34.9025 25.723 34.8911 25.4505 34.8798C24.9507 34.8684 24.4397 34.8117 23.94 34.7548C22.8612 34.6527 21.7937 34.471 20.7489 34.1985C19.1476 33.7556 17.5918 33.0062 16.4562 31.7686C15.7293 30.9738 15.0366 29.9859 15.2751 28.8618C15.3092 28.7142 15.3546 28.5665 15.4 28.419C15.6385 27.6469 16.4789 26.2843 20.3514 26.0004Z" fill="#F1C681"/>
<path d="M38.1924 25.0243C37.954 24.9675 37.9994 24.3997 37.988 24.2294C37.9653 23.8774 37.8972 23.5254 37.8404 23.1734C37.7041 22.4808 37.5111 21.7995 37.2498 21.1409C36.7388 19.8352 36.0347 18.6089 35.1603 17.5188C34.7741 17.0305 34.3426 16.565 33.8089 16.2471C33.2411 15.9178 32.6846 15.8838 32.0486 15.9065C31.9237 15.9065 31.7874 15.9405 31.6739 15.9973C31.6852 16.0086 31.7079 16.02 31.7193 16.0313C31.7193 16.0313 31.7193 24.1499 31.0038 25.3535C33.3659 25.047 35.1262 24.7518 36.8183 25.6033C37.3067 25.4785 37.7723 25.2854 38.1924 25.0243Z" fill="#E4A459"/>
<path d="M40.9636 28.3627L33.6955 27.5225C33.6955 27.5225 27.9491 27.9313 23.5883 29.907C19.341 29.1122 17.6943 28.9305 15.4457 30.2589C15.6729 30.8154 16.0703 31.315 16.4678 31.7577C17.6035 32.9955 19.1593 33.7449 20.7605 34.1876C21.8053 34.4602 22.8729 34.6418 23.9517 34.7441C24.4514 34.8008 24.9624 34.8462 25.4621 34.8689C25.7233 34.8803 25.9845 34.8916 26.257 34.8916C26.3933 34.8916 26.8022 34.8235 26.9158 34.8916C29.4482 36.47 31.9012 35.5162 33.1958 34.8916C34.7062 34.8008 36.2393 34.1876 37.5567 33.4609C38.9194 32.7115 40.1232 31.8032 40.6456 30.2817C40.8728 29.6685 40.9749 29.0213 40.9636 28.3627Z" fill="#E4A459"/>
<path d="M39.6919 25.8304C39.3625 25.5806 38.9878 25.4216 38.5789 25.3535C37.0118 25.0696 35.2402 25.467 33.991 26.4776C33.5821 26.8069 33.2528 27.2497 33.1733 27.772C33.003 28.8167 33.866 29.6455 34.7064 30.0997C35.8421 30.7015 37.148 30.7015 38.3973 30.5312C38.8629 30.463 39.3398 30.3836 39.7487 30.1678C40.3846 29.8386 40.714 29.2367 40.7934 28.5442C40.907 27.5336 40.4982 26.4322 39.6919 25.8304Z" fill="#1F1E1C"/>
<path d="M37.7271 27.2719C38.4108 27.2719 38.965 27.0431 38.965 26.761C38.965 26.4787 38.4108 26.25 37.7271 26.25C37.0435 26.25 36.4893 26.4787 36.4893 26.761C36.4893 27.0431 37.0435 27.2719 37.7271 27.2719Z" fill="#FEFDE1"/>
<path d="M26.3482 24.2066C26.3482 24.2066 25.4283 21.3906 26.598 20.9591C27.7677 20.5277 28.4604 21.4701 28.5967 23.6388L28.6535 24.0703C28.5399 23.8546 28.3014 23.7297 28.0516 23.7638C27.5973 23.7978 27.0749 23.8886 26.7229 24.1952C26.3709 24.5018 26.4503 24.3996 26.4503 24.3996L26.3482 24.2066Z" fill="#1F1E1C"/>
<path d="M32.9916 23.559C32.9916 23.559 32.81 21.8103 32.9121 21.3448C33.0484 20.8224 33.5254 20.4591 34.0705 20.4705C34.6838 20.4818 35.0699 20.6976 35.1721 21.6968C35.2743 22.696 35.2857 23.7406 35.2857 23.7406C35.2857 23.7406 34.4452 23.0707 33.7185 23.3092L32.9916 23.559Z" fill="#1F1E1C"/>
<path d="M26.791 22.9248C27.0481 22.9248 27.2566 22.5639 27.2566 22.1187C27.2566 21.6735 27.0481 21.3125 26.791 21.3125C26.5338 21.3125 26.3254 21.6735 26.3254 22.1187C26.3254 22.5639 26.5338 22.9248 26.791 22.9248Z" fill="white"/>
<path d="M33.7976 22.5611C34.0547 22.5611 34.2632 22.2002 34.2632 21.7549C34.2632 21.3097 34.0547 20.9487 33.7976 20.9487C33.5404 20.9487 33.3319 21.3097 33.3319 21.7549C33.3319 22.2002 33.5404 22.5611 33.7976 22.5611Z" fill="white"/>
<path d="M19.0232 31.1914C18.9438 31.1914 18.8756 31.1347 18.8643 31.0552C18.8643 31.0211 18.762 30.1582 19.3185 29.6699C19.7047 29.3407 20.2838 29.2611 21.0447 29.4655C21.1356 29.4769 21.1923 29.5677 21.1696 29.6586C21.1583 29.7494 21.0674 29.8061 20.9766 29.7834C20.9652 29.7834 20.9652 29.7834 20.9539 29.7721C20.2952 29.6018 19.8182 29.6472 19.5229 29.9084C19.0914 30.283 19.1709 31.0097 19.1822 31.0211C19.1936 31.112 19.1255 31.1914 19.0459 31.2028L19.0232 31.1914Z" fill="#1F1E1C"/>
<path d="M33.5477 34.7333C30.7881 34.7333 28.0512 34.1996 25.496 33.1436C23.0203 32.1103 21.6008 30.9181 21.5894 30.9067C21.5439 30.8613 21.5439 30.7932 21.5894 30.7477C21.6235 30.7137 21.6916 30.7023 21.7257 30.7364C21.7824 30.7819 27.3357 35.3805 36.0347 34.3699C36.1029 34.3585 36.1597 34.4039 36.1597 34.4721C36.171 34.5402 36.1256 34.597 36.0574 34.597C35.2398 34.6878 34.3994 34.7333 33.5477 34.7333Z" fill="#1F1E1C"/>
<path d="M26.5297 26.5791C26.4843 26.5791 26.4388 26.545 26.4274 26.4996C26.4047 26.4428 26.4388 26.3747 26.4956 26.352C26.5524 26.3293 32.6394 24.1946 37.1024 25.3641C37.1593 25.3755 37.2047 25.4323 37.2047 25.489C37.2047 25.5458 37.1366 25.5912 37.0797 25.5912C37.0684 25.5912 37.057 25.5912 37.057 25.5798C32.6621 24.4331 26.6432 26.545 26.5864 26.5677C26.5637 26.5791 26.5524 26.5791 26.5297 26.5791Z" fill="#1F1E1C"/>
<path d="M24.3944 18.3831H24.3717C24.3149 18.3717 24.2695 18.315 24.2808 18.2582C24.2922 18.2241 24.4284 17.3498 25.053 17.1C25.4505 16.941 25.9275 17.0887 26.4839 17.5088C26.5294 17.5429 26.5408 17.6223 26.5066 17.6677C26.4726 17.7132 26.3931 17.7245 26.3477 17.6904C25.8593 17.3158 25.4505 17.1908 25.1439 17.3044C24.6443 17.4975 24.508 18.2809 24.508 18.2809C24.4966 18.349 24.4511 18.3831 24.3944 18.3831Z" fill="#1F1E1C"/>
<path d="M34.661 18.4621C34.627 18.4621 34.5929 18.4394 34.5702 18.4167C34.184 17.8149 33.7752 17.4856 33.355 17.4515C33.0371 17.4402 32.7191 17.5538 32.5033 17.7809C32.4692 17.8376 32.4011 17.849 32.3443 17.8149C32.2875 17.7809 32.2762 17.7127 32.3102 17.6559C32.3216 17.6446 32.3216 17.6446 32.3329 17.6332C32.6055 17.3494 32.9802 17.2017 33.3777 17.2244C33.8774 17.2699 34.343 17.6332 34.7632 18.2918C34.7973 18.3486 34.7859 18.4167 34.7292 18.4508C34.7064 18.4621 34.6837 18.4735 34.661 18.4621Z" fill="#1F1E1C"/>
<path d="M22.68 2.88613C22.68 2.88613 24.6674 2.1935 25.4055 2.27298C24.9285 1.64847 24.8036 1.4668 24.2926 1.4668C23.7815 1.4668 22.8844 2.1935 22.68 2.88613Z" fill="#42994A"/>
<path d="M44.632 4.77215C44.5979 4.45422 44.5297 4.13629 44.3935 3.84107C42.9172 0.650407 37.8863 2.41038 35.5696 3.34146C35.0926 3.53449 34.6156 3.73888 34.1614 3.97732C33.9797 4.06816 32.015 5.21498 32.0263 5.21498C30.2888 3.25063 27.4724 2.39902 24.8831 2.78508C22.2939 3.17114 19.9318 4.66996 18.2397 6.66838C16.5476 8.66677 15.446 11.1194 14.7533 13.6515C14.617 14.1625 14.4921 14.6961 14.5715 15.2184C15.0486 18.0685 18.887 15.2752 20.0681 14.628C21.6466 13.7764 23.4522 13.4471 25.2011 13.061C26.9614 12.675 28.7443 12.2322 30.55 12.3343C32.3557 12.4366 34.2181 13.186 35.1834 14.7188C35.2175 14.7756 39.4535 11.812 39.8395 11.5168C41.3273 10.4041 42.8149 9.2686 43.8143 7.66756C44.314 6.85005 44.7228 5.78272 44.632 4.77215ZM44.0528 6.56619C43.9733 6.75921 43.8824 6.95224 43.7916 7.13392C43.1329 8.33751 42.1109 9.27995 41.0774 10.1543C39.9758 11.0853 38.8061 11.9483 37.6251 12.7885C37.0345 13.2087 36.4326 13.6175 35.808 14.0035C35.7285 14.0602 35.6377 14.1057 35.5582 14.1625C35.5469 14.1738 35.2629 14.3555 35.2516 14.3442C34.5702 13.1292 33.2869 12.3343 31.9355 12.0164C30.5841 11.6985 29.1645 11.8007 27.8018 12.0732C27.1317 12.1981 26.4844 12.3684 25.8257 12.5387C25.1898 12.6977 24.4857 12.9816 23.8384 13.027C24.3381 12.2549 25.0876 11.5622 25.7236 10.9037C26.3822 10.2111 27.0749 9.54111 27.7904 8.90522C29.2213 7.63351 30.7544 6.47535 32.3897 5.46479C33.2074 4.96518 34.0478 4.49964 34.8995 4.06816C36.6484 3.20521 38.5222 2.51257 40.4755 2.38767C41.6338 2.30819 42.9172 2.48986 43.7007 3.35282C44.507 4.23848 44.4616 5.49885 44.0528 6.56619Z" fill="#FDF050"/>
<path d="M13.2995 51.8047C13.2995 51.8047 13.1632 51.7706 14.1513 53.3602C15.1393 54.9498 16.9449 57.2549 17.5922 57.5274C18.2396 57.7999 19.8635 58.413 21.1468 57.7091L21.6351 57.2435C21.6351 57.2435 22.8276 57.2435 23.5316 56.4714C24.2357 55.6992 24.2358 55.2792 24.2358 55.2792C24.2358 55.2792 25.1897 55.6425 25.678 55.1202C26.1663 54.5979 26.0414 53.3148 25.2464 52.8493C24.4515 52.3837 23.4635 52.2134 23.2478 51.7819C23.8951 51.4413 24.9398 49.9992 24.0768 48.7389C23.2136 47.4785 21.2604 46.1841 18.9437 46.1614L16.6269 46.1387L13.9923 48.5686L13.2995 51.8047Z" fill="#FDFADD"/>
<path d="M19.7725 58.0932C19.1933 58.0932 18.4666 57.957 17.5694 57.5823C16.8653 57.287 15.0142 54.8798 14.1057 53.3924C13.1972 51.9049 13.2199 51.8141 13.2539 51.7801L13.9467 48.5439L16.6155 46.0913L18.9549 46.1141C21.3057 46.1368 23.2816 47.4766 24.1334 48.7143C24.4514 49.1685 24.5536 49.7475 24.406 50.2812C24.2356 50.9738 23.7359 51.5757 23.3385 51.8141C23.4861 52.0299 23.8722 52.1774 24.3037 52.3591C24.6444 52.484 24.9737 52.643 25.2804 52.8133C25.6665 53.0404 25.9277 53.4718 26.0072 53.9942C26.0753 54.4597 25.9618 54.9139 25.7233 55.1751C25.2804 55.6406 24.5195 55.4476 24.2924 55.3681C24.2583 55.5271 24.1334 55.9245 23.5883 56.5263C22.9182 57.253 21.8507 57.3098 21.669 57.3211L21.1807 57.7753C20.7378 57.991 20.2608 58.1046 19.7725 58.0932ZM13.3562 51.8368C13.3675 51.8936 13.4811 52.1774 14.2079 53.3356C15.1959 54.948 17.0015 57.2189 17.6261 57.4801C19.4205 58.2295 20.5107 58.0024 21.124 57.6617L21.6236 57.1848H21.6463C21.6577 57.1848 22.8274 57.1735 23.4974 56.4354C24.1675 55.6974 24.1902 55.2886 24.1902 55.2773V55.1978L24.2697 55.2319C24.281 55.2319 25.1896 55.5725 25.6552 55.0842C25.8709 54.8458 25.9731 54.4256 25.905 53.9942C25.8596 53.5514 25.6097 53.1426 25.235 52.9041C24.9283 52.7338 24.599 52.5862 24.2697 52.4613C23.7814 52.2683 23.3498 52.098 23.2135 51.8141L23.1908 51.7686L23.2362 51.7459C23.6224 51.5416 24.1334 50.9511 24.3037 50.2585C24.44 49.7475 24.3491 49.2139 24.0425 48.7824C23.2135 47.5674 21.2602 46.2503 18.9549 46.2276L16.6609 46.2049L14.0602 48.6121L13.3562 51.8368Z" fill="#1F1E1C"/>
<path d="M12.3791 51.2929C12.3791 51.2929 11.993 46.8305 16.0699 45.5474C18.239 45.0706 18.6024 45.3998 18.6024 45.3998L18.9545 46.1719C18.9545 46.1719 16.2517 46.558 15.0592 48.5223C14.4119 49.5784 13.8214 50.6684 13.299 51.7925C13.299 51.7925 12.7084 52.1331 12.3791 51.2929Z" fill="#FDFADD"/>
<path d="M13.0269 51.9169C12.9588 51.9169 12.8907 51.9055 12.8338 51.8828C12.6181 51.8147 12.4591 51.6217 12.3342 51.3151V51.3038C12.3342 51.2583 11.9935 46.7846 16.0591 45.5015C18.2055 45.036 18.6029 45.3312 18.6483 45.3653L18.6597 45.388L19.0458 46.2282L18.9663 46.2396C18.9436 46.2396 16.2748 46.6484 15.1165 48.5673C14.4692 49.6233 13.8786 50.7133 13.3563 51.8261L13.3449 51.8374L13.3335 51.8488C13.2427 51.8942 13.1291 51.9282 13.0269 51.9169ZM12.4364 51.2811C12.5386 51.5536 12.6862 51.7125 12.8679 51.7807C12.9928 51.8261 13.1405 51.8147 13.2654 51.758C13.7878 50.6338 14.3783 49.5552 15.0256 48.4991C16.1045 46.7165 18.4439 46.2169 18.8868 46.1374L18.5688 45.4448C18.5121 45.4107 18.0237 45.1836 16.0931 45.6151C12.1865 46.83 12.425 51.0767 12.4364 51.2811Z" fill="#1F1E1C"/>
<path d="M20.4531 49.1343C20.4531 49.1343 22.4518 51.3257 23.2922 51.8934L20.4531 49.1343Z" fill="#FDFADD"/>
<path d="M23.2705 51.9506C22.4301 51.3829 20.4996 49.2709 20.4201 49.18L20.4996 49.1006C20.5223 49.1233 22.4983 51.292 23.3273 51.8484L23.2705 51.9506Z" fill="#1F1E1C"/>
<path d="M18.6487 53.4727C18.6487 53.4727 22.26 55.1078 24.236 55.2667L18.6487 53.4727Z" fill="#FDFADD"/>
<path d="M24.235 55.3235C22.2703 55.1645 18.659 53.5408 18.6249 53.5294L18.6703 53.4272C18.7045 53.4386 22.2931 55.0623 24.235 55.2213V55.3235Z" fill="#1F1E1C"/>
<path d="M17.6147 55.7993C17.6147 55.7993 19.4657 57.2754 21.6688 57.2073L17.6147 55.7993Z" fill="#FDFADD"/>
<path d="M21.5324 57.2748C19.3974 57.2748 17.6031 55.8668 17.5917 55.8555L17.6598 55.7646C17.6825 55.776 19.5223 57.2294 21.68 57.1612V57.2748H21.5324Z" fill="#1F1E1C"/>
<path d="M11.2551 69.7095H11.062L10.9598 69.5389C10.8803 69.4024 10.8463 69.3348 11.3346 68.0743C11.3346 68.0625 11.7661 66.9614 11.8683 66.8027C12.8677 65.2355 14.6279 64.4974 16.6834 64.7699C16.9447 64.804 17.2626 64.838 17.6033 64.8721C19.6361 65.0765 22.7137 65.3831 23.9856 67.0067C24.4626 67.6084 24.6556 68.3466 24.5421 69.1872L24.508 69.4365L24.2468 69.4595C21.4532 69.7095 11.6753 69.7095 11.2551 69.7095ZM12.4248 67.1432C12.3226 67.325 11.8683 68.4713 11.6753 69.0618C13.5264 69.0618 21.2146 69.0395 23.9516 68.8348C23.9856 68.3125 23.8266 67.8013 23.5087 67.3925C22.3957 65.9962 19.4885 65.701 17.5579 65.508C17.2172 65.4739 16.8878 65.4399 16.6267 65.4058C14.7869 65.156 13.2879 65.7805 12.4248 67.1432Z" fill="#353535"/>
<path fill-rule="evenodd" clip-rule="evenodd" d="M11.3346 68.0743C10.8463 69.3348 10.8803 69.4024 10.9598 69.5389L11.062 69.7095H11.2551C11.6753 69.7095 21.4532 69.7095 24.2468 69.4595L24.508 69.4365L24.5421 69.1872C24.6556 68.3466 24.4626 67.6084 23.9856 67.0067C22.7161 65.3862 19.6478 65.0777 17.6149 64.8733L17.6033 64.8721C17.2626 64.838 16.9447 64.804 16.6834 64.7699C14.6279 64.4974 12.8677 65.2355 11.8683 66.8027C11.7661 66.9614 11.3346 68.0625 11.3346 68.0743ZM17.5849 65.0561C17.5849 65.0561 17.5849 65.0561 17.5848 65.0561C17.2437 65.022 16.9236 64.9877 16.6596 64.9533H16.6592C14.6639 64.6887 12.9793 65.4043 12.0242 66.9017L12.0239 66.9024C12.0081 66.9267 11.9682 67.01 11.9113 67.1406C11.8573 67.2639 11.7945 67.4155 11.7344 67.5631C11.6744 67.7108 11.6176 67.8538 11.5758 67.9601C11.5549 68.0139 11.5379 68.0579 11.5261 68.0887C11.5236 68.0953 11.5214 68.1012 11.5195 68.1058V68.1084L11.507 68.1412C11.2619 68.7738 11.1538 69.0927 11.1148 69.2679C11.0955 69.3545 11.0972 69.3899 11.0991 69.4024V69.403C11.1001 69.4096 11.1007 69.4135 11.119 69.445L11.1667 69.5244H11.2551C11.6812 69.5244 21.4473 69.5238 24.2303 69.2751H24.2308L24.3447 69.2652L24.3589 69.1622L17.5849 65.0561ZM11.5111 68.1288C11.511 68.1288 11.511 68.1294 11.511 68.1294L11.511 68.1288H11.5111ZM17.5849 65.0561L17.5908 65.0567C18.6084 65.159 19.8693 65.2858 21.0336 65.5863C22.2052 65.8886 23.2427 66.3582 23.84 67.1209L23.8407 67.1215C24.2837 67.6806 24.4662 68.3669 24.3589 69.1622L17.5849 65.0561ZM12.266 67.0481L12.2686 67.0441C13.1768 65.6103 14.7527 64.9649 16.651 65.2225C16.909 65.2561 17.2355 65.2899 17.5763 65.324C18.5396 65.4203 19.762 65.5433 20.8841 65.8195C21.9986 66.0938 23.0564 66.5286 23.6533 67.2777L23.6539 67.2784L23.6546 67.279C24.0002 67.7239 24.1731 68.279 24.1361 68.8466L24.1256 69.0074L23.9653 69.0192C21.2198 69.2246 13.5228 69.2469 11.6753 69.2469H11.4203L11.4995 69.0047C11.5977 68.7042 11.7611 68.2659 11.912 67.8814C12.0603 67.5041 12.2047 67.157 12.2636 67.0526L12.266 67.0481ZM16.6267 65.4058C14.7869 65.156 13.2879 65.7805 12.4248 67.1432C12.3324 67.3072 11.9526 68.2593 11.7379 68.8768C11.7149 68.9431 11.6939 69.0047 11.6753 69.0618C11.7344 69.0618 11.7994 69.0618 11.8701 69.0618C14.0123 69.0605 21.302 69.033 23.9516 68.8348C23.9856 68.3125 23.8266 67.8013 23.5087 67.3925C22.3957 65.9962 19.4885 65.701 17.5579 65.508C17.2172 65.4739 16.8878 65.4399 16.6267 65.4058Z" fill="black"/>
<path d="M44.4275 69.7088C40.6231 69.7088 33.8887 69.6746 32.5487 69.4135L32.2307 69.3564L32.2875 69.0388C32.3102 68.8794 33.0711 65.178 40.5436 65.4959C45.2225 65.6436 46.2673 66.5749 47.0168 69.3L47.1303 69.7088H46.7101C46.2673 69.7088 45.4496 69.7088 44.4275 69.7088ZM33.037 68.8341C34.9222 69.027 41.1001 69.0841 46.2786 69.0611C45.654 67.0172 44.8363 66.2794 40.5209 66.1318C38.5222 66.0523 35.7853 66.2226 34.0818 67.5513C33.6276 67.8918 33.2756 68.3347 33.037 68.8341Z" fill="#353535"/>
<path fill-rule="evenodd" clip-rule="evenodd" d="M32.5826 69.2317H32.5841C32.9034 69.2941 33.5615 69.3446 34.4435 69.3846C35.3203 69.4246 36.4047 69.4535 37.5673 69.4738C39.8922 69.5152 42.5256 69.5237 44.4275 69.5237H46.887L46.8385 69.3485C46.4672 67.9988 46.0348 67.1418 45.1551 66.588C44.2613 66.0248 42.8756 65.7545 40.5378 65.6808L40.5368 65.6807H40.5358C36.8297 65.523 34.82 66.3631 33.7377 67.2324C33.1956 67.6681 32.8805 68.1149 32.7 68.4594C32.6096 68.6313 32.5528 68.7783 32.5182 68.8846C32.5009 68.9384 32.4891 68.9811 32.4816 69.0126C32.4779 69.0283 32.4752 69.0408 32.4733 69.05C32.4724 69.0546 32.4717 69.0578 32.4712 69.0605C32.4708 69.0637 32.4706 69.0651 32.4706 69.0651L32.4701 69.0677L32.4452 69.2068L32.5826 69.2317ZM32.2307 69.3564L32.2875 69.0388C32.3102 68.8794 33.0711 65.178 40.5436 65.4959C45.2225 65.6436 46.2673 66.5749 47.0168 69.3L47.1303 69.7088H44.4275C40.6231 69.7088 33.8887 69.6746 32.5487 69.4135L32.2307 69.3564ZM32.7571 68.9916L32.8702 68.7547C33.1206 68.2298 33.4908 67.7632 33.9695 67.4043C34.8544 66.7147 35.9971 66.3326 37.1591 66.1313C38.3233 65.9296 39.5211 65.907 40.5277 65.947C42.6849 66.0208 44.0092 66.2416 44.8739 66.7239C45.7588 67.2173 46.1385 67.9699 46.4555 69.0073L46.5281 69.2448L46.2794 69.2462C41.1055 69.2691 34.9156 69.2127 33.0182 69.0185L32.7571 68.9916ZM40.5209 66.1318C38.5222 66.0523 35.7853 66.2226 34.0818 67.5513C33.6819 67.8512 33.3612 68.2298 33.1275 68.6576C33.0958 68.7153 33.0656 68.7744 33.037 68.8341C33.0982 68.8407 33.1639 68.8466 33.234 68.8525C35.2953 69.0283 41.1162 69.0821 46.0854 69.0624C46.1499 69.0618 46.2143 69.0618 46.2786 69.0611C46.2594 68.9988 46.2401 68.9371 46.2204 68.8767C45.6005 66.9725 44.7038 66.2749 40.5209 66.1318Z" fill="black"/>
<path d="M11.2555 69.3798C11.142 69.3798 12.0505 67.1095 12.1413 66.973C13.1407 65.406 14.8442 64.8382 16.6498 65.0767C18.9325 65.3719 24.7129 65.4628 24.2359 69.1305C21.3968 69.3798 11.2669 69.3798 11.2555 69.3798Z" fill="#3B3736"/>
<path d="M32.5939 69.0958C32.5939 69.0958 33.2412 65.5079 40.5207 65.8145C45.2109 65.9621 46.0058 66.8819 46.6986 69.3799C41.3951 69.4028 33.9681 69.3569 32.5939 69.0958Z" fill="#3B3736"/>
<path d="M5.41739 40.1765C5.41739 40.1765 6.31485 39.7893 7.77987 40.0845C9.24482 40.3798 10.3237 41.9581 10.3237 41.9581L11.1047 39.2163L6.74687 39.364L5.41739 40.1765Z" fill="#1F1E1C"/>
<path fill-rule="evenodd" clip-rule="evenodd" d="M35.3533 46.2366C34.831 46.2841 34.3692 45.9017 34.3219 45.3822C34.3214 45.3762 34.3209 45.3702 34.3205 45.3641L30.9796 45.6685L30.5729 46.2068L31.1548 46.55L30.8693 47.1606L31.5104 47.3758L31.3588 48.032L32.0309 48.1099L32.0198 48.7829L32.6937 48.7201L32.8235 49.3806L33.4696 49.1798L33.7347 49.799L34.3248 49.4689L34.7135 50.0196L35.222 49.5748L35.7174 50.0329L36.1219 49.4929L36.7024 49.8384L36.9852 49.2266L37.6253 49.4445L37.7741 48.7877L38.4459 48.8684L38.4542 48.1954L39.1283 48.1354L38.9957 47.4754L39.6428 47.2774L39.3751 46.6594L39.9667 46.3319L39.5756 45.7829L40.086 45.3403L39.5886 44.8843L36.2114 45.1919C36.2121 45.1979 36.2127 45.204 36.2133 45.21C36.2606 45.7294 35.8755 46.189 35.3533 46.2366Z" fill="white"/>
<path d="M36.1934 42.3869L34.8624 41.1689L33.7735 42.6074L34.3505 42.5548L33.4545 43.8454L34.2178 43.7759L33.168 44.8202L35.0294 44.6506L35.0883 45.2963L35.4047 45.2675L35.3459 44.6218L37.2818 44.4454L36.0606 43.608L36.8052 43.5403L35.5791 42.4429L36.1934 42.3869Z" fill="white"/>
<path fill-rule="evenodd" clip-rule="evenodd" d="M35.7612 50.5164C32.9388 50.7735 30.4423 48.6939 30.1852 45.8715C29.9282 43.049 32.0077 40.5526 34.8302 40.2955C37.6526 40.0384 40.149 42.118 40.4061 44.9404C40.6632 47.7629 38.5836 50.2592 35.7612 50.5164ZM35.7875 50.8053C32.8055 51.0769 30.168 48.8798 29.8963 45.8978C29.6247 42.9158 31.8218 40.2782 34.8039 40.0066C37.7858 39.7349 40.4234 41.9321 40.695 44.9141C40.9667 47.8961 38.7695 50.5336 35.7875 50.8053Z" fill="white"/>
</svg>
