<svg width="200" height="69" viewBox="0 0 200 69" fill="none" xmlns="http://www.w3.org/2000/svg">
<rect x="0.5" y="67.5234" width="199" height="1" fill="#5AB215"/>
<path d="M93.5129 41.5181C94.9029 40.868 95.5987 39.911 95.5993 38.6477H91.7634L91.7189 39.175L91.5617 39.4666C91.4116 39.6604 91.2737 39.7713 91.1462 39.7975C91.0187 39.8237 90.8799 39.8368 90.7307 39.8368H90.1134L89.5416 39.7922C89.4072 39.725 89.2763 39.6159 89.1488 39.4666C88.9995 39.3391 88.9244 39.2265 88.9244 39.1296L88.8904 38.6469H85.1322C85.2369 39.3121 85.3644 39.8097 85.5137 40.1388C85.7756 40.5509 86.0968 40.887 86.4783 41.1489C86.8677 41.4474 87.4028 41.6648 88.0829 41.7992C88.7629 41.9337 89.4849 42.0009 90.2479 42.0009L91.2466 41.9782L92.1327 41.8769C92.7761 41.7722 93.2361 41.6526 93.5129 41.5181Z" fill="#FF0000"/>
<path d="M21.5123 54.0898C21.5123 54.5513 21.4881 54.9256 21.4408 55.2116L21.2142 56.0706C21.1984 56.2294 21.178 56.3567 21.1547 56.4523C21.1306 56.548 21.0953 56.6548 21.047 56.7746L20.7006 57.5621C20.5335 58.0236 20.2149 58.5047 19.7459 59.0062C19.3243 59.4993 18.8033 59.9887 18.182 60.4744C17.6248 60.8719 16.8689 61.1867 15.9142 61.417C15.4285 61.5368 14.9354 61.6278 14.4339 61.6919C13.9324 61.756 13.4077 61.7876 12.8589 61.7876C11.3869 61.7876 10.1713 61.639 9.21288 61.34C8.25356 61.0419 7.19394 60.4512 6.03216 59.568C5.24464 58.9319 4.63357 58.0144 4.20081 56.8173C3.76712 55.6202 3.5498 54.1659 3.5498 52.4553C3.5498 49.6386 4.25839 47.2835 5.67462 45.3899C6.39063 44.491 7.34345 43.801 8.53309 43.319C9.72272 42.8379 11.0572 42.5974 12.5375 42.5974C13.0065 42.5974 13.4467 42.6215 13.8563 42.6689C14.2658 42.7163 14.5426 42.7506 14.6856 42.7701C14.8286 42.7905 15.0998 42.8398 15.4972 42.9196C16.5792 43.1109 17.427 43.4128 18.039 43.827C19.4469 44.7658 20.3942 45.7762 20.8799 46.8582C21.1659 47.5426 21.3098 48.5929 21.3098 50.0092H15.8436V49.5671C15.8436 49.3842 15.8297 49.2151 15.8018 49.0601C15.774 48.905 15.6644 48.6756 15.4731 48.3738C15.3774 48.1908 15.2539 48.0357 15.1035 47.9085C14.992 47.7655 14.8286 47.6178 14.6141 47.4664C14.1841 47.1721 13.6 47.0244 12.8598 47.0244C11.7222 47.0244 10.8743 47.4822 10.318 48.397C9.69765 49.3999 9.38747 50.6927 9.38747 52.2761L9.45898 53.4573C9.45898 53.5846 9.46455 53.6979 9.47663 53.7972C9.48777 53.8966 9.5147 54.0025 9.5537 54.1139C9.57785 54.2254 9.66143 54.4677 9.80445 54.842C9.9001 55.1921 10.031 55.4949 10.1982 55.7493C10.3412 55.9963 10.5762 56.2527 10.9021 56.5192C11.2281 56.7857 11.5624 56.9872 11.9051 57.1219C12.2636 57.2491 12.6453 57.3132 13.0511 57.3132C13.7597 57.3132 14.3243 57.134 14.7459 56.7764L15.1518 56.4421C15.3189 56.2749 15.4824 56.0121 15.6412 55.6546L16.0108 54.3897L16.0823 54.0916H21.5123V54.0898Z" fill="#FF0000"/>
<path d="M39.0798 47.5374H33.7929V61.227H28.2672V47.5374H22.9923V43.0853H39.0807L39.0798 47.5374Z" fill="#FF0000"/>
<path d="M57.2839 49.1486C57.2839 50.979 56.8586 52.3228 56.007 53.1828C55.6411 53.597 55.2353 53.9545 54.7895 54.2573C54.4153 54.5043 53.9342 54.743 53.3454 54.9733L52.3907 55.212L50.1712 55.3912H46.841V61.227H41.2912V43.0862H50.9457C52.4576 43.0862 53.8776 43.5199 55.2065 44.3873C55.8909 44.8015 56.4082 45.4116 56.7583 46.2196C57.1084 47.0266 57.2839 48.0026 57.2839 49.1486ZM51.8772 49.0771C51.8772 48.727 51.8298 48.4168 51.7342 48.1466C51.6385 47.8763 51.476 47.6729 51.2448 47.5383C50.8547 47.2439 50.1786 47.0962 49.2156 47.0962H46.841V51.2019H49.2156C49.9957 51.2019 50.6337 51.0589 51.1305 50.7719C51.6283 50.4859 51.8772 49.9203 51.8772 49.0771Z" fill="#FF0000"/>
<path d="M79.0146 52.1559C79.0146 54.5751 78.306 56.7668 76.8898 58.7319C76.1979 59.7107 75.1634 60.4509 73.7871 60.9514C73.111 61.1901 72.395 61.3768 71.6391 61.5124C70.8831 61.648 70.0993 61.7148 69.2876 61.7148C67.7126 61.7148 66.2815 61.4585 64.9972 60.9449C63.7119 60.4314 62.6922 59.6857 61.9362 58.7068C60.5358 56.7659 59.8356 54.5816 59.8356 52.155C59.8356 51.3833 59.8671 50.7611 59.9312 50.2874C59.9953 49.8147 60.1262 49.2789 60.325 48.6827C60.6509 47.585 61.1766 46.5579 61.9 45.6032C62.6244 44.6485 63.6469 43.9046 64.9674 43.3716C65.6277 43.1088 66.314 42.91 67.0263 42.7744C67.7386 42.6389 68.4927 42.572 69.2886 42.572C70.1244 42.572 70.9091 42.6314 71.6456 42.7512C72.3811 42.871 73.0878 43.0577 73.7639 43.3121C75.1002 43.7895 76.1431 44.5371 76.8907 45.5558C78.306 47.5209 79.0146 49.721 79.0146 52.1559ZM73.1305 52.1077C73.1305 51.2644 73.0767 50.5818 72.9689 50.0608C72.8621 49.5399 72.6764 49.0876 72.4145 48.7059C71.9845 48.0298 71.4877 47.5599 70.923 47.298L70.2423 47.0956L69.7529 47.0482H69.4065L68.6784 47.0724L67.8668 47.3231C67.3736 47.5618 66.8759 48.0317 66.3753 48.731C66.1924 49.0012 66.0289 49.4591 65.8859 50.1036C65.7902 50.6923 65.7429 51.3768 65.7429 52.1559L65.7187 52.7169L65.7429 53.1106C65.7429 53.4208 65.7986 53.7913 65.91 54.2204C66.0215 54.6504 66.1524 55.02 66.3038 55.3302C66.3437 55.41 66.3809 55.4834 66.4171 55.5512C66.4524 55.619 66.5063 55.6998 66.5778 55.7954C66.6734 55.9626 66.8202 56.1576 67.0198 56.3805C67.2028 56.6108 67.5287 56.8337 67.9986 57.0491C68.2457 57.129 68.4797 57.1884 68.7026 57.2284C68.9255 57.2683 69.1604 57.2878 69.4065 57.2878C70.3696 57.2878 71.1088 57.0334 71.6261 56.5244C72.1433 56.0155 72.5287 55.4063 72.7841 54.6987L72.9513 53.9706L73.0822 53.2304L73.1305 52.1077Z" fill="#FF0000"/>
<path d="M98.4742 61.2268H92.9244V51.9651L87.0886 61.2268H81.8258V43.086H87.3755V52.1322L93.1166 43.086H98.4751L98.4742 61.2268Z" fill="#FF0000"/>
<path d="M137.741 56.93V65.3318H132.479V61.4174H121.976V65.3318H116.665V56.93H118.67C119.052 56.3728 119.394 55.7441 119.696 55.0439C119.823 54.7337 119.951 54.4031 120.078 54.053C120.205 53.7029 120.332 53.3249 120.46 52.9191L120.674 51.761L120.901 50.1498C120.932 49.847 120.96 49.4718 120.984 49.0214C121.008 48.572 121.021 48.1085 121.021 47.6312L121.068 43.0844H135.294V56.9291L137.741 56.93ZM129.697 56.93V47.5857H126.367L126.343 49.0056C126.343 49.9845 126.307 50.8695 126.235 51.6617C126.164 52.4529 126.048 53.1912 125.889 53.8756C125.697 54.9659 125.319 55.9837 124.755 56.931L129.697 56.93Z" fill="#FF0000"/>
<path d="M159.851 61.227H154.039L152.905 58.0528H147.701L146.604 61.227H140.791L147.701 43.0862H152.905L159.851 61.227ZM152.058 54.3641L150.316 49.2443L148.561 54.3641H152.058Z" fill="#FF0000"/>
<path d="M174.272 61.227H168.758V54.3641L167.267 54.4356L165.333 54.4597C164.195 54.4597 163.105 54.3149 162.063 54.0242C161.021 53.7335 159.855 52.789 159.855 52.789C159.091 51.7471 158.709 50.4302 158.709 48.8384V43.0862H164.234V47.7649C164.234 48.441 164.354 49.0019 164.593 49.4477C164.689 49.6705 164.975 49.8173 165.452 49.8897L166.526 50.0327C166.638 50.0327 166.741 50.0327 166.837 50.0327C166.924 50.0411 167 50.0569 167.063 50.0801H167.361C167.504 50.0801 167.652 50.0801 167.802 50.0801C167.906 50.0559 167.977 50.0401 168.017 50.0327L168.757 49.9371V43.0862H174.271L174.272 61.227Z" fill="#FF0000"/>
<path d="M196.45 61.227H190.638L189.504 58.0528H184.3L183.203 61.227H177.39L184.3 43.0862H189.504L196.45 61.227ZM188.657 54.3641L186.915 49.2443L185.16 54.3641H188.657Z" fill="#FF0000"/>
<path d="M101.144 43.2207H107.506L110.132 50.6335L112.718 43.2207H118.68L112.46 57.1136C111.951 58.2345 111.507 59.0731 111.128 59.6295C110.748 60.1777 110.183 60.6318 109.433 60.9918C108.692 61.3436 107.67 61.5195 106.368 61.5195C105.679 61.5195 104.493 61.4254 102.812 61.2373V57.5186C103.803 57.6168 104.528 57.6659 104.985 57.6659C106.338 57.6659 107.162 57.1872 107.455 56.2299L101.144 43.2207Z" fill="#FF0000"/>
<path d="M198.738 36.3587H1.26245L100 0.523438L198.738 36.3587Z" fill="#5AB215"/>
</svg>
