<svg width="190" height="56" viewBox="0 0 190 56" fill="none" xmlns="http://www.w3.org/2000/svg">
<path d="M178.001 15.3662H175.156V25.7568H166.807V30.952H175.156V41.4663H181.403V18.5823C181.403 18.5205 181.403 15.3662 178.001 15.3662Z" fill="#000C2C"/>
<path d="M162.23 15.3662H159.632V41.4044H165.879V18.8297C165.879 15.3662 162.23 15.3662 162.23 15.3662" fill="#000C2C"/>
<path d="M90.8567 15.3662C88.3827 15.3662 87.455 17.9638 87.455 17.9638L78.6107 40.786L78.3633 41.4663H84.61L91.0422 24.4579L94.2584 32.8693H88.9394L86.9602 38.0028H96.2375L97.4745 41.4044H103.783L93.7636 15.3662H90.8567V15.3662Z" fill="#000C2C"/>
<path d="M79.8476 34.5402C78.4251 35.6535 76.7552 36.272 74.8997 36.272C70.5703 36.272 67.045 32.7466 67.045 28.4172C67.045 24.0878 70.5703 20.5625 74.8997 20.5625C76.817 20.5625 77.6211 21.0573 77.6211 21.0573C78.9817 21.8613 80.899 21.552 81.8886 20.3769L83.5585 18.3978C81.1464 16.2949 78.054 15.1816 74.8997 15.1816C67.5398 15.1816 61.6023 21.1191 61.6023 28.4791C61.6023 35.8391 67.5398 41.7765 74.8997 41.7765C75.6419 41.7765 76.3841 41.7147 77.1263 41.591C77.1881 41.4054 77.3118 41.0343 77.4355 40.8488C77.4974 40.6632 78.054 39.3644 78.6106 37.8801L79.8476 34.5402Z" fill="#000C2C"/>
<path d="M148.438 15.3662H134.831C132.295 15.3662 131.367 17.9639 131.367 17.9639L126.172 28.1689L121.039 17.9639C121.039 17.9639 119.802 15.3662 116.957 15.3662H95.0005L96.9797 20.4996H105.082V41.4044H111.267V20.4996H115.72L122.709 34.3537C123.203 35.0959 122.832 36.271 120.915 36.271H117.452V41.4044H120.915C122.709 41.4044 124.008 41.5281 125.244 40.786C126.543 40.1675 127.533 38.4976 128.832 36.0236L136.686 20.8089V41.4044H142.933V20.4996H148.005C150.541 20.4996 152.582 22.5406 152.582 25.0764C152.582 27.6122 150.541 29.6532 148.005 29.6532H143.923V34.7867H148.5C153.88 34.7867 158.21 30.3954 158.21 25.0764C158.148 19.6956 153.819 15.3662 148.438 15.3662" fill="#000C2C"/>
<path d="M47.9957 14.9346C45.831 14.9346 44.0992 15.4294 44.0992 16.0478L44.0374 24.4592C44.0374 25.0777 45.7691 25.5725 47.9338 25.5725C50.0985 25.5725 51.8303 25.0777 51.8303 24.4592L51.8921 16.1097C51.8921 15.4294 50.0985 14.9346 47.9957 14.9346V14.9346ZM50.8407 16.5426V21.305C50.8407 21.5524 50.717 21.7998 50.4696 21.8616C50.2841 21.9235 50.1604 21.7379 50.1604 21.4905V19.8206C50.1604 19.5732 50.0367 19.4495 49.7893 19.5114C49.6037 19.5732 49.48 19.8206 49.48 20.068V20.1298C49.48 20.3772 49.3563 20.6246 49.1089 20.6865C48.9234 20.7483 48.7378 20.5628 48.7378 20.3154V17.2848L48.3049 17.0374H47.872C46.0165 17.0374 44.4703 16.6663 44.4703 16.1097C44.4703 15.6149 46.0165 15.182 47.872 15.182C49.7274 15.182 51.2736 15.5531 51.2736 16.1097C51.3973 16.2334 51.2118 16.4189 50.8407 16.5426" fill="#ED1C24"/>
<path d="M16.9477 20.7478V13.8208C16.9477 13.8208 16.8859 13.5115 16.4529 13.4497C16.02 13.326 9.89697 11.4705 9.89697 11.4705C9.89697 11.4705 9.77328 11.4087 9.46403 11.5324C9.15479 11.6561 3.83582 13.5115 3.83582 13.5115C3.83582 13.5115 3.58842 13.5734 3.58842 14.0063C3.58842 14.3774 3.46473 20.8097 3.46473 20.8097L1.05263 22.2322L0.990784 24.8917L1.98036 25.2009L4.02136 23.9639L5.38203 24.3969V26.2523L6.37161 26.5616L8.35076 25.2628L10.1444 25.6957V27.5512L11.1339 27.8604L18.3702 23.8402L18.4321 21.1189L16.9477 20.7478ZM4.20691 13.5734C4.578 13.4497 9.46403 11.7179 9.46403 11.7179C9.46403 11.7179 9.64958 11.5942 9.83512 11.6561C10.0207 11.7179 15.9581 13.4497 15.9581 13.4497C15.9581 13.4497 16.0818 13.5115 15.8963 13.5734C15.7107 13.6971 11.505 15.5525 11.505 15.5525C11.505 15.5525 11.2576 15.6762 11.0102 15.6144C10.7629 15.5525 4.14506 13.6971 4.14506 13.6971C4.14506 13.6971 3.89766 13.6971 4.20691 13.5734V13.5734ZM3.83582 14.3156C3.83582 14.13 4.02136 14.13 4.02136 14.13L11.1339 16.171C11.1339 16.171 11.4432 16.2947 11.4432 16.4184C11.4432 16.604 11.3195 16.604 11.3195 16.604L3.83582 14.4393V14.3156V14.3156ZM3.83582 15.4288C3.83582 15.2433 4.02136 15.2433 4.02136 15.2433L11.1339 17.2843C11.1339 17.2843 11.4432 17.408 11.4432 17.5935C11.4432 17.7791 11.3195 17.7791 11.3195 17.7791L3.83582 15.5525V15.4288V15.4288ZM3.83582 16.5421C3.83582 16.2947 4.02136 16.3566 4.02136 16.3566L11.1339 18.3976C11.1339 18.3976 11.4432 18.5213 11.4432 18.7068C11.4432 18.8924 11.3195 18.8924 11.3195 18.8924L3.83582 16.6658V16.5421V16.5421ZM3.77397 17.6554C3.77397 17.408 3.95951 17.4698 3.95951 17.4698L11.1339 19.5108C11.1339 19.5108 11.4432 19.6345 11.4432 19.8201C11.4432 20.0056 11.3195 20.0056 11.3195 20.0056L3.77397 17.7791V17.6554ZM3.77397 18.7687C3.77397 18.5831 3.95951 18.5831 3.95951 18.5831L11.0721 20.6241C11.0721 20.6241 11.3813 20.7478 11.3813 20.9334C11.3813 21.1189 11.2576 21.1189 11.2576 21.1189L3.77397 18.8924V18.7687ZM3.77397 19.8819C3.77397 19.6345 3.95951 19.6964 3.95951 19.6964L11.0721 21.7374C11.0721 21.7374 11.3813 21.8611 11.3813 22.0466C11.3813 22.2322 11.2576 22.2322 11.2576 22.2322L3.77397 20.0056V19.8819ZM3.77397 20.8715C3.77397 20.6241 3.95951 20.686 3.95951 20.686L11.0721 22.727C11.0721 22.727 11.3813 22.8507 11.3813 22.9744C11.3813 23.1599 11.2576 23.1599 11.2576 23.1599L3.77397 20.9952V20.8715ZM2.59885 24.2732V23.4073L3.52657 23.7166L2.59885 24.2732ZM6.99009 25.572V24.7061L7.85597 25.0154L6.99009 25.572ZM11.8761 26.9945V25.572L13.6079 24.5824L13.6697 25.2009L14.4738 25.3865L11.8761 26.9945V26.9945ZM15.3396 25.0154V23.6547L16.7003 22.9125V23.6547H17.5662L15.3396 25.0154ZM11.1339 24.8917L1.85666 22.1703L3.34103 21.3045L11.3813 23.6547L16.5766 20.8715L17.9373 21.1808L11.1339 24.8917V24.8917Z" fill="#ED1C24"/>
<path d="M10.3699 9.00098L10.3463 7.14571L10.8411 7.13943L10.8646 8.9947L10.3699 9.00098Z" fill="#000C2C"/>
<path d="M9.81503 8.95557L9.7915 7.1003L10.2244 7.0948L10.2479 8.95007L9.81503 8.95557Z" fill="#000C2C"/>
<path d="M9.40218 8.68684L9.64957 8.99608V7.14062L9.34033 7.44987L9.40218 8.68684Z" fill="#000C2C"/>
<path d="M14.6593 10.4192C15.9581 10.4192 17.0095 9.30596 17.0095 7.94529C17.0095 6.58463 15.8963 5.5332 14.5975 5.5332C14.3501 5.5332 14.0408 5.59505 13.7934 5.6569H13.7316C13.6697 5.6569 13.6697 5.6569 13.6079 5.71875C13.2368 5.90429 12.4328 6.21354 11.8143 6.52278C11.0102 6.89387 11.0721 7.32681 11.0721 7.88345V8.00714C11.0721 8.56378 11.0721 9.05857 11.8761 9.36781C12.4946 9.61521 13.2986 9.9863 13.6697 10.11C13.7316 10.11 13.7316 10.1718 13.7934 10.1718H13.8553C14.1027 10.4192 14.4119 10.4192 14.6593 10.4192" fill="#000C2C"/>
<path d="M33.956 33.9208H34.0797C34.1416 33.9208 34.1416 33.9208 34.2034 33.859C34.2653 33.859 34.2653 33.859 34.3271 33.7971C34.389 33.7971 34.389 33.7353 34.4508 33.7353C34.5127 33.7353 34.5127 33.6734 34.5745 33.6734C34.6364 33.6116 34.6982 33.5497 34.7601 33.5497L34.9456 33.3642C35.0075 33.3023 35.0693 33.2405 35.0693 33.1786C35.2549 32.8694 35.3785 32.5602 35.3785 32.1891C35.3785 31.1376 34.5127 30.2718 33.4612 30.2718H26.6579H26.5961H26.1013C25.6065 30.2099 24.9261 30.5192 24.8643 30.6429C24.7406 30.7047 24.6788 30.8284 24.6788 30.9521V31.1376H24.6169V30.9521C24.6169 30.9521 24.6169 30.8284 24.5551 30.8284H24.2458C23.6892 30.8284 23.0088 30.8902 22.3904 31.0139C22.143 31.0758 21.9574 31.1995 21.9574 31.2613V31.4469C21.8956 31.4469 21.71 31.5087 21.6482 31.5706C21.5863 31.5706 21.5863 31.6324 21.5863 31.6324V31.6943C21.5245 31.6943 21.4008 31.7561 21.3389 31.7561V32.0654C21.4008 32.1272 21.4626 32.1272 21.5863 32.1272V32.1891C21.5863 32.2509 21.5863 32.2509 21.6482 32.2509C21.71 32.2509 21.8956 32.3746 21.9574 32.4365V32.6839C21.9574 32.8076 22.143 32.8694 22.3904 32.9312C23.0088 33.1168 23.6892 33.1786 24.2458 33.1786H24.4932C24.6169 33.1786 24.6169 33.0549 24.6169 33.0549V32.9312H24.6788V33.1786C24.6788 33.9208 26.5961 33.9827 26.5961 33.9827C26.5961 34.2301 26.8434 34.2301 26.8434 34.2301H27.2764C28.3278 34.7867 27.6475 35.7763 28.0804 35.8381C28.266 35.8381 28.4515 35.9 28.5752 35.9C28.5752 35.9618 28.6371 35.9618 28.6371 35.9618C29.1937 36.0855 29.3792 36.3948 29.5029 36.8896C29.5029 37.6317 29.874 38.5595 29.874 38.5595C29.874 38.6213 29.874 38.745 29.9359 38.8687C28.8226 38.9306 28.6371 39.1779 28.6371 39.4253L28.8226 41.6519C28.8226 41.9611 29.1318 42.0848 30.6162 42.0848C32.1006 42.0848 33.956 41.8374 33.956 41.5282L34.0797 39.3635C34.0797 39.2398 33.8942 39.1161 33.5849 39.0543L33.5231 38.5595L33.2757 37.2606L32.7809 34.9104C32.5335 33.9208 33.0902 34.1682 33.5231 34.1064C33.5849 34.1064 33.6468 34.0445 33.6468 34.0445C33.7705 33.9827 33.956 33.9208 33.956 33.9208" fill="#ED1C24"/>
<path d="M24.5551 55.3212C24.5551 55.3212 32.9047 56.5582 34.6983 52.9091C35.5642 51.1774 35.7497 49.8167 36.7393 49.3219C36.9867 49.1982 37.1722 49.1364 37.3578 49.1364C37.667 49.1364 37.9762 48.8271 37.9762 48.3942C37.9762 48.0231 37.4196 47.7139 36.8011 47.7139L22.143 47.7757C21.5245 47.7757 20.9679 48.085 20.9679 48.4561C20.9679 48.8271 21.0297 49.1364 21.1534 49.1364C21.2153 49.1364 21.5245 49.6312 21.6482 50.4971C21.7719 51.3629 22.2049 54.2698 24.5551 55.3212" fill="#000C2C"/>
<path d="M13.9789 39.5498C13.9789 39.7353 14.1026 39.9209 14.2882 39.9209H23.4418C23.6273 39.9209 23.751 39.7353 23.751 39.5498V35.6533C23.751 35.4678 23.6273 35.2822 23.4418 35.2822H14.2882C14.1026 35.2822 13.9789 35.4678 13.9789 35.6533V39.5498Z" fill="#000C2C"/>
<path d="M18.5557 44.93H18.9268V44.0022C18.9268 43.4456 18.7413 43.0745 18.3702 42.889C18.0609 42.7034 14.5974 40.848 14.0408 40.6006C13.546 40.3532 13.4223 40.1676 13.4223 39.9202L13.6078 38.3122C13.6078 38.0648 13.7315 37.8174 13.9171 37.8174H14.2263V37.4463H13.9171C13.4841 37.4463 13.2368 37.8792 13.2368 38.3122L13.0512 39.9202C13.0512 40.415 13.3605 40.6624 13.8552 40.9098C14.35 41.1572 17.8135 42.9508 18.1228 43.1982C18.3702 43.3219 18.4939 43.6311 18.4939 44.0022L18.5557 44.93V44.93Z" fill="#000C2C"/>
<path d="M17.8136 45.1159C17.8136 44.9303 17.9373 44.8066 18.1228 44.8066H19.4216C19.6072 44.8066 19.7309 44.9303 19.7309 45.1159L19.9783 53.8365C19.9783 54.0221 19.8546 54.1458 19.669 54.1458H17.8754C17.6899 54.1458 17.5662 54.0221 17.5662 53.8365L17.8136 45.1159Z" fill="#000C2C"/>
<path d="M8.90738 42.951C8.65999 43.0129 8.47444 42.951 8.22705 42.7036L7.67041 42.147L7.48486 42.3944L8.0415 42.8892C8.35074 43.1984 8.72183 43.2602 9.03108 43.1984" fill="#ED1C24"/>
<path d="M7.91783 41.5911C8.04153 41.653 8.04153 41.8385 7.91783 41.9004L7.23749 42.6425C7.17565 42.7662 6.9901 42.7662 6.8664 42.6425L2.28961 38.8698C2.16591 38.7461 2.16591 38.6224 2.28961 38.4987L3.21734 37.4473C3.27919 37.3236 3.46473 37.3236 3.52658 37.4473L7.91783 41.5911Z" fill="#ED1C24"/>
<path d="M8.72187 47.9606C6.80456 45.8577 7.54675 44.3115 9.03111 42.9509C10.5155 41.5902 12.1235 40.9717 14.0408 43.0127C15.9581 45.1156 16.5766 49.8779 15.9581 50.4345C15.3397 51.053 10.5773 50.0635 8.72187 47.9606Z" fill="#ED1C24"/>
<path d="M11.7524 36.4567L9.58767 35.2197L7.42297 36.4567V38.9306L9.58767 40.1676L11.7524 38.9306V36.4567ZM9.09288 38.5595C8.5981 38.2503 8.4744 37.6318 8.72179 37.1989C8.96919 36.7041 9.58767 36.5804 10.0825 36.8278C10.5772 37.137 10.7009 37.7555 10.4536 38.1885C10.2062 38.6832 9.58767 38.8688 9.09288 38.5595Z" fill="#000C2C"/>
<path d="M4.39243 28.5401C4.70167 28.6638 4.63982 28.8494 4.63982 28.8494L4.94907 31.5707L3.71209 33.6736C3.71209 33.6736 3.5884 33.921 3.52655 33.921C3.4647 34.0447 3.21731 34.0447 2.78437 33.8591C2.04218 33.5499 1.05261 33.6117 0.805213 33.488C0.557819 33.3643 0.743364 33.1169 0.867061 32.9932C1.1763 32.684 0.805213 32.3129 0.681516 31.88C0.557819 31.3852 0.310424 30.3338 0.434122 29.9627C0.557819 29.5916 0.49597 29.3442 0.248576 29.0968C0.00118184 28.8494 -0.308061 28.1072 0.681516 28.4164C1.73294 28.6638 3.09361 28.1072 4.39243 28.5401V28.5401ZM2.10403 29.4679C2.16588 29.5916 2.28958 29.7153 2.22773 29.9627C2.16588 30.2101 2.04218 30.4575 2.16588 30.5811C2.22773 30.7048 2.22773 31.0141 2.16588 31.1378C2.10403 31.3233 2.16588 31.447 2.16588 31.6326C2.22773 31.9418 1.98034 32.0037 1.98034 32.3129C1.98034 32.6221 2.16588 32.8077 2.47512 32.8695C2.78437 32.9314 2.90806 32.9314 2.96991 32.9932C3.03176 32.9932 3.15546 32.9932 3.15546 32.684V29.839C3.15546 29.4679 3.09361 29.406 2.78437 29.3442C2.41327 29.2823 2.28958 29.2823 2.22773 29.2823C2.10403 29.2205 2.04218 29.3442 2.10403 29.4679" fill="#000C2C"/>
<path d="M20.4731 1.76009C20.4112 1.76009 20.3494 1.69824 20.2875 1.69824H20.1638C20.1638 1.69824 20.102 1.76009 20.0401 1.76009C19.9783 1.76009 19.9783 1.82194 20.0401 1.88379C20.102 2.13118 20.3494 2.56412 20.4112 2.87336C20.4731 3.18261 20.4731 3.24446 20.2875 3.43C20.2257 3.49185 20.1638 3.49185 20.102 3.5537C19.9783 3.61555 19.7927 3.6774 19.6072 3.6774H19.3598C19.1124 3.6774 18.8031 3.67739 18.6176 3.49185C18.4939 3.36815 18.1847 2.25488 18.1228 2.19303H18.061C18.061 2.19303 17.9991 2.25488 17.9373 2.25488L17.8754 2.31673C17.1951 3.43 17.628 4.04849 17.8754 4.41958C18.3084 4.91436 18.6176 5.3473 18.6176 5.3473C18.6176 5.3473 18.865 5.7184 18.865 6.02764C18.865 6.33688 18.9887 15.0575 18.9268 15.3668C18.9268 15.676 18.8031 15.9234 18.6176 16.1708C18.4939 16.3563 18.3702 16.5419 18.1847 16.7893C18.1228 16.913 17.9373 17.0985 17.9373 17.4696C17.9373 17.717 18.061 17.9026 18.2465 18.15C18.4939 18.3973 18.6176 18.5829 19.0505 18.8303L19.1124 18.8921H19.2361C19.2361 18.8921 19.2979 18.8303 19.3598 18.8303V18.7684C19.3598 18.5829 19.1124 18.0881 18.9887 17.8407V17.6552C19.0505 17.5933 19.1124 17.4696 19.1742 17.4078C19.5453 17.2222 20.102 17.0985 20.4731 17.2841C20.4731 17.2841 20.5349 17.2841 20.5349 17.3459L20.5968 17.4078C20.7823 17.9026 20.8441 18.2118 20.9678 18.3355C20.9678 18.3355 21.0297 18.3973 21.0915 18.3355C21.1534 18.3355 21.2152 18.2737 21.2152 18.2737C21.2771 18.2737 21.2771 18.2118 21.3389 18.2118C22.143 17.0985 21.1534 16.2945 20.906 15.8616C20.6586 15.5523 20.6586 15.4286 20.5968 15.1194C20.5349 14.8101 20.4731 6.21318 20.4112 5.96579C20.4112 5.7184 20.4112 5.53285 20.5349 5.3473C20.7204 4.85252 20.8441 4.85252 21.0915 4.48143C21.2771 4.23403 22.0193 3.67739 21.3389 2.68782C21.2152 2.31673 20.7204 1.88379 20.4731 1.76009" fill="#000C2C"/>
<path d="M30.1214 25.5718C30.1214 25.51 30.1214 25.4481 30.1833 25.3863C30.1833 25.3244 30.1833 25.3244 30.1214 25.3244C30.1833 25.1389 30.1833 25.0152 30.1833 24.8915V24.7678C30.1833 24.7678 30.2451 24.7678 30.2451 24.706V24.5204C30.2451 24.4586 30.2451 24.4586 30.1833 24.4586V23.9019L30.2451 23.8401V23.7782V23.5927C30.2451 23.5308 30.2451 23.5308 30.1833 23.5308V22.9742V22.7886C30.1833 22.7268 30.1214 22.7268 30.1214 22.7268C30.1214 22.5413 30.0596 22.3557 30.0596 22.1702V21.9846C30.0596 21.9228 29.9977 21.9228 29.9977 21.9228C29.9977 21.7372 29.9359 21.5517 29.9359 21.3661C29.9359 21.3043 29.9359 21.2424 29.874 21.1806C29.874 21.1187 29.8122 21.1187 29.8122 21.1187C29.7503 20.9332 29.7503 20.7476 29.6885 20.5621C29.6885 20.5003 29.6885 20.4384 29.6266 20.3766C29.6266 20.3147 29.5648 20.3147 29.5648 20.3147C29.5029 20.1292 29.5029 19.9436 29.4411 19.7581C29.4411 19.6962 29.3792 19.6344 29.3792 19.5725C29.3792 19.5107 29.3174 19.5107 29.3174 19.5107C29.2555 19.387 29.2555 19.2633 29.1937 19.1396V19.0777C29.07 18.5829 28.8845 18.15 28.6989 17.6552C28.6371 17.4697 28.6989 17.1604 28.8226 17.0367C28.8845 16.9749 28.9463 16.9749 29.0082 16.913C29.1319 16.7893 29.2555 16.6656 29.2555 16.5419V16.4801C29.1937 16.4182 29.07 16.3564 28.9463 16.4183C28.8226 16.4183 28.6371 16.4182 28.4515 16.4801C28.266 16.5419 28.1423 16.5419 28.0186 16.6038V15.5524L27.7712 15.4905C27.833 15.3668 27.833 15.2431 27.833 15.0576V14.9957C27.833 14.872 27.833 14.6865 27.7712 14.5628L28.0186 14.5009V14.4391V12.6455C28.0186 12.4599 27.9567 12.2744 27.9567 12.2744L26.8435 9.73861L26.2868 9.67676L25.792 9.73861H25.7302L24.6169 11.9033C24.6169 11.9033 24.5551 12.027 24.5551 12.2125V14.1299H24.6169L24.8025 14.1917C24.7406 14.3154 24.7406 14.4391 24.7406 14.6246V14.6865C24.7406 14.8102 24.7406 14.9957 24.8025 15.1194L24.5551 15.1813V16.2327C24.4314 16.1709 24.2458 16.1709 24.1221 16.109C23.9366 16.0472 23.751 16.0472 23.6273 16.0472C23.5036 16.0472 23.3181 16.0472 23.3181 16.109V16.1709C23.3181 16.2946 23.4418 16.4183 23.5655 16.5419C23.6273 16.6038 23.6892 16.6038 23.751 16.6656C23.9366 16.7893 23.9984 17.0986 23.9366 17.2841C23.751 17.7789 23.6273 18.2119 23.4418 18.7066V18.7685C23.3799 18.8922 23.3799 19.0159 23.3181 19.1396C23.2562 19.1396 23.2562 19.1396 23.2562 19.2014C23.2562 19.2633 23.1944 19.3251 23.1944 19.387L23.2562 19.4488C23.1944 19.6344 23.1944 19.8199 23.1325 20.0055C23.0707 20.0055 23.0707 20.0673 23.0707 20.0673C23.0707 20.1292 23.0707 20.191 23.0088 20.2529C22.947 20.4384 22.947 20.624 22.8851 20.8095C22.8233 20.8095 22.8233 20.8713 22.8233 20.8713V21.0569C22.8233 21.2424 22.7615 21.428 22.7615 21.6135C22.6996 21.6135 22.6996 21.6754 22.6996 21.6754V21.8609C22.6996 22.0465 22.6996 22.232 22.6378 22.4176C22.5759 22.4176 22.5759 22.4794 22.5759 22.4794V23.2216C22.5141 23.2216 22.5141 23.2834 22.5141 23.2834V24.0256C22.4522 24.0256 22.4522 24.0875 22.4522 24.0875V24.273L22.5141 24.3349V24.4586C22.5141 24.5823 22.5759 24.7678 22.5759 24.8915C22.5141 24.8915 22.5141 24.9534 22.5141 24.9534C22.5141 25.0152 22.5141 25.077 22.5759 25.1389L22.6378 25.2007C22.8851 25.9429 23.1325 26.6851 23.4418 27.3654C23.5655 27.551 23.8129 27.6747 24.0603 27.6747C24.3077 27.6128 24.6169 27.551 24.8643 27.4891C24.988 27.4891 25.0498 27.4273 25.1117 27.3654L25.1735 27.3036C25.2354 27.2417 25.2972 27.118 25.2354 27.0562C25.2354 26.8707 25.2354 26.747 25.1735 26.5614C25.1735 26.3759 25.1117 25.9429 25.1117 25.9429C25.1117 25.7574 25.0498 25.6955 24.988 25.6955H24.9262C24.8643 25.6337 24.8025 25.51 24.8025 25.3244C24.4314 22.4794 24.8643 19.5107 25.9776 16.7893C26.0394 16.6038 25.9776 16.3564 25.7302 16.2946V15.4287H26.3487V16.2946C26.1631 16.3564 26.0394 16.6038 26.1013 16.7893C27.3382 19.5107 27.7712 22.4176 27.4619 25.3244C27.4619 25.51 27.4001 25.6337 27.3382 25.6955H27.2764C27.2145 25.6955 27.1527 25.8192 27.1527 25.9429V26.6233C27.1527 26.8088 27.1527 26.9325 27.0909 27.1181C27.0909 27.2417 27.0908 27.3036 27.1527 27.3654C27.1527 27.3654 27.1527 27.4273 27.2145 27.4273C27.2764 27.4891 27.3382 27.551 27.4619 27.551C27.7093 27.6128 28.0186 27.6747 28.266 27.6747C28.5134 27.7365 28.7608 27.6128 28.8226 27.3654C29.1319 26.6851 29.3792 25.9429 29.6266 25.2007C30.0596 25.6337 30.0596 25.6337 30.1214 25.5718V25.5718ZM26.0394 11.4085V11.3467V11.2848V11.1611L26.1013 11.0993V10.9137V10.8519H26.1631C26.1631 10.8519 26.225 10.8519 26.225 10.79L26.2868 10.6663H26.4105L26.4724 10.79C26.4724 10.79 26.4724 10.8519 26.5342 10.8519H26.5961V11.0993L26.6579 11.1611V11.4704L26.5961 11.5322V11.7796H26.5342C26.5342 11.7796 26.4724 11.7796 26.4724 11.8415L26.4105 11.9652H26.3487H26.2868L26.225 11.7796C26.225 11.7796 26.225 11.7178 26.1631 11.7178H26.1013V11.5322V11.4704L26.0394 11.4085V11.5322V11.4085Z" fill="#000C2C"/>
<path fill-rule="evenodd" clip-rule="evenodd" d="M39.275 38.1266V40.5386C39.3369 40.5386 39.3369 40.6005 39.3369 40.6005V41.4045C39.3369 41.4045 39.3369 41.4664 39.275 41.4664C39.3369 41.7138 39.3987 42.5178 39.5843 42.8889C39.8317 43.3837 40.3883 43.6929 41.1305 43.6929C41.9964 43.6929 43.4189 43.0126 43.7281 42.5178C43.9137 42.3323 44.2229 42.456 44.2229 42.6415C43.6044 43.7548 42.1819 44.868 40.9449 45.4247C39.708 45.9195 38.5328 46.0432 37.7907 46.105H37.3577L37.1103 45.9813C37.1103 45.9813 37.0485 45.9813 37.0485 45.9195C36.8629 45.7958 36.4918 45.6102 35.7497 45.5484H35.5641C35.5641 45.7339 35.5023 45.8576 35.4404 45.8576L33.7705 45.7958C33.7087 45.7958 33.6468 45.2391 33.585 44.5588C33.585 43.8785 33.6468 43.26 33.7087 43.26C33.7705 43.26 35.4404 43.3218 35.4404 43.3218C35.5023 43.3218 35.5023 43.4455 35.5641 43.6311C37.4814 43.5692 37.667 41.4045 37.667 41.4045H37.6051V40.5386C37.6051 40.5386 37.6051 40.4768 37.667 40.4768V38.0647L37.3577 37.3225C37.1722 34.1064 36.8629 27.7978 36.8629 27.736C36.8629 27.6742 37.5433 27.4268 38.3473 27.4268C39.0895 27.4268 39.708 27.6742 39.708 27.736C39.708 27.7978 39.6461 34.1064 39.5224 37.3225L39.275 38.1266V38.1266Z" fill="#000C2C"/>
<path d="M32.4098 16.3558H32.4717L32.348 17.0361H32.2861V21.18H32.348V21.6129L32.4098 21.6748H32.348V21.7366C32.5335 21.9222 32.7191 22.2314 32.348 22.5406C32.2861 22.6025 32.2861 22.6025 32.2861 22.6643V22.788C32.4098 22.788 32.5954 22.8499 33.0902 22.8499H33.2757L33.3376 26.8082H33.2139L33.0283 27.2411L33.2757 28.2926H33.956L34.2034 27.2411L34.0797 26.8082H33.956L33.8942 22.8499H34.3271C34.6982 22.8499 34.7601 22.788 34.8219 22.788V22.6643C34.8219 22.6025 34.7601 22.5406 34.7601 22.5406C34.389 22.2314 34.5745 21.9222 34.7601 21.7366C34.7601 21.7366 34.7601 21.6748 34.8219 21.6748V21.18H34.8838V17.0361H34.8219V16.665L34.8838 16.6032C34.7601 15.9847 34.6364 15.7992 34.5745 15.6755C34.5745 15.6136 34.5745 15.6755 34.5127 15.6136C34.389 15.6136 34.0797 15.5518 33.6468 15.5518H33.585C33.2139 15.5518 32.9046 15.5518 32.7809 15.6136C32.7809 15.6136 32.7191 15.6136 32.7191 15.6755C32.5954 15.7373 32.4717 15.9229 32.4098 16.3558" fill="#000C2C"/>
<path d="M46.1576 42.3555L49.0927 45.1026L48.0362 46.2315L45.101 43.4844L46.1576 42.3555Z" fill="#ED1C24"/>
<path d="M43.7282 49.446L43.9755 49.1367H41.1305L40.8831 49.3841L43.7282 49.446Z" fill="#ED1C24"/>
<path d="M42.3675 50.806L42.6767 50.5586H40.512L40.8213 50.806H42.3675Z" fill="#ED1C24"/>
<path d="M44.3466 48.7028L44.6559 48.3936H41.8108L41.5016 48.7028H44.3466Z" fill="#ED1C24"/>
<path d="M43.0478 50.1256L43.2952 49.8164H40.4502L40.2028 50.1256H43.0478Z" fill="#ED1C24"/>
<path d="M45.0269 48.0231L45.2743 47.7139H42.4293L42.1819 48.0231H45.0269Z" fill="#ED1C24"/>
<path d="M41.9964 51.2383H41.2542L41.6253 51.6094L41.9964 51.2383Z" fill="#ED1C24"/>
<path d="M47.1297 45.734L45.5835 44.3115L43.4807 46.5999H46.3257L47.1297 45.734Z" fill="#ED1C24"/>
<path d="M45.7073 47.2806L45.9547 47.0332H43.1096L42.8622 47.2806H45.7073Z" fill="#ED1C24"/>
<path d="M22.8851 47.4043V43.9408H25.2972C25.2972 43.9408 25.1735 44.4974 26.1013 44.3118C27.029 44.1263 29.8122 43.5078 29.8122 43.5078C29.8122 43.5078 30.0596 43.5078 30.1214 43.8171C30.1833 44.0026 30.2451 44.4974 30.2451 44.4974L27.7712 45.054C27.7712 45.054 26.4723 45.3014 25.792 46.1673C25.2972 46.7239 25.3591 47.528 25.3591 47.528H22.8851V47.4043Z" fill="#000C2C"/>
<path d="M22.514 43.6313C22.514 43.6313 22.3285 43.0128 22.8851 42.5181C23.4417 42.0851 24.6787 41.4048 26.2249 40.8481C27.833 40.3534 27.8948 40.2915 27.8948 40.2915C27.8948 40.2915 28.0804 40.6007 27.4619 40.7863C26.8434 40.9718 24.8642 41.714 24.8642 42.3325C24.8642 42.8891 24.8642 42.8273 24.9261 43.5076C24.9261 43.5076 24.3076 43.6313 23.751 43.6932C23.0706 43.8787 22.514 43.6313 22.514 43.6313Z" fill="#000C2C"/>
<path d="M28.9756 44.8242L30.1833 44.5567L30.2635 44.919L29.0559 45.1865L28.9756 44.8242Z" fill="#000C2C"/>
<path d="M43.6044 10.6041L43.5426 10.666C43.4189 10.666 43.2952 10.6041 43.2333 10.6041C42.4912 11.3463 41.4397 11.8411 40.3265 11.7792C38.1618 11.7174 36.4918 9.86193 36.5537 7.69723C36.6155 6.70766 36.9866 5.77993 37.667 5.09959C37.6051 4.9759 37.6051 4.8522 37.6051 4.7285L37.667 4.66665C37.8525 4.48111 37.667 4.35741 37.4814 4.54296C36.6155 5.34699 36.0589 6.46026 35.9971 7.69723C35.9971 8.50126 36.1826 9.30529 36.5537 9.98563C36.4918 10.1712 36.43 10.6041 36.43 10.6041C36.3063 11.2226 34.5745 10.5423 31.2347 10.666C31.1729 10.666 31.1729 10.6041 31.1729 10.6041C31.111 10.6041 31.111 10.666 31.111 10.666C31.0492 10.9134 31.0492 12.5214 31.111 12.8307C31.111 12.8307 31.111 12.8925 31.1729 12.8925C31.2347 12.8925 31.2347 12.8925 31.2347 12.8307C34.6364 13.1399 35.8734 12.6451 36.3681 13.0162C36.3681 13.0162 36.4918 13.0781 36.5537 13.3873V13.511C36.5537 13.6347 36.6774 13.6347 36.7392 13.5728C36.7392 13.511 36.7392 13.0781 36.8011 12.6451H37.667C37.9144 12.8307 38.1618 12.5833 38.471 12.707V12.8307H37.234V13.6347L37.2959 14.4387V14.0676V14.6243L37.3577 15.3665L37.4196 16.6653C37.4196 16.6653 38.471 18.3352 38.471 18.4589C38.5328 18.7063 38.5947 18.7681 38.5947 18.83V18.8918C38.7802 19.0155 38.9039 19.634 38.9039 19.634C39.0276 20.9328 39.5224 23.1594 40.2028 24.7056C40.2646 24.8911 40.3883 25.0767 40.4502 25.2622C40.4502 25.2622 40.512 25.3859 40.5738 25.3859H40.6975C40.8212 25.5096 40.8212 25.6952 41.2542 25.6333V25.757L41.4397 26.1281L41.749 26.0044C41.6871 25.8807 41.6253 25.8189 41.5634 25.6952V25.5715C41.6253 25.5715 41.749 25.5096 41.8108 25.5096H41.9345C42.1201 25.5096 42.3056 25.3859 42.3675 25.3241C42.3675 25.2622 42.4293 25.2622 42.4293 25.2004V24.8293C42.4293 24.8293 42.4293 24.7674 42.3675 24.7674C42.1201 24.6437 41.8727 24.4582 41.8108 24.3963C41.8108 24.3963 41.749 24.3345 41.749 24.2726C41.6871 24.0871 41.5634 23.6542 41.4397 23.1594L41.5016 23.0975V23.0357H41.5634L41.6871 22.9738C41.749 22.912 41.8108 22.8501 41.8108 22.7264V22.6646L41.749 22.479V22.4172L41.316 21.9842C41.316 21.9842 41.316 21.9224 41.2542 21.9224V21.7987V21.7369V21.675C41.2542 21.675 41.1923 21.5513 41.3779 21.4895C41.4397 21.4895 41.5016 21.4276 41.6253 21.4276C41.749 21.3658 41.749 21.3658 41.8108 21.1802C41.8108 21.1184 41.9345 20.3762 41.9345 20.3762C41.9964 20.0669 41.749 19.4485 41.6871 18.4589V16.2942V16.2323C41.6871 14.8717 41.749 13.6965 41.8727 13.4491V13.3873V12.0266C42.6149 11.7792 43.2333 11.2844 43.7281 10.7278C43.9137 10.5423 43.79 10.4186 43.6044 10.6041V10.6041ZM36.6155 11.2226C36.6155 11.1608 36.6774 10.5423 36.6774 10.4186C36.7392 10.4804 37.1103 10.9752 37.5433 11.2844L36.6155 11.2226Z" fill="#000C2C"/>
<path d="M44.0374 8.43975C43.9137 8.5016 43.8518 8.5016 43.79 8.5016C43.6663 8.5016 43.6663 8.43975 43.6044 8.3779V8.19236L43.9755 8.06866L44.0992 7.82126C44.0992 7.82126 44.0992 7.75942 44.0374 7.75942C43.9137 7.82126 43.8518 7.88311 43.7281 7.88311C43.6663 7.88311 43.6044 7.88311 43.6044 7.82126V7.63572L43.9755 7.38833L44.0374 7.14093C44.0374 7.14093 44.0374 7.07908 43.9755 7.14093C43.8518 7.26463 43.7281 7.26463 43.6663 7.26463C43.6044 7.26463 43.6044 7.26463 43.5426 7.20278C43.5426 7.14093 43.5426 7.07908 43.4808 7.01723L43.79 6.76984V6.52245C43.79 6.52245 43.79 6.4606 43.7281 6.52245C43.6044 6.64614 43.4808 6.70799 43.4189 6.70799H43.3571C43.3571 6.64614 43.2952 6.58429 43.2952 6.58429L43.5426 6.27505V6.02766H43.4808C43.3571 6.2132 43.2334 6.27505 43.1715 6.27505H43.1097C43.1097 6.2132 43.0478 6.15136 43.0478 6.15136L43.2334 5.78026L43.1715 5.53287H43.1097C43.0478 5.78026 42.9241 5.84211 42.8004 5.84211L42.6767 5.71841L42.8004 5.34732L42.6767 5.09993H42.6149H42.553C42.4912 5.34732 42.4293 5.47102 42.3056 5.47102L42.1819 5.34732L42.2438 4.91438L42.1819 4.66699H42.1201H42.0582C42.0582 4.97623 41.9345 5.03808 41.8727 5.03808C41.8108 5.03808 41.8108 4.97623 41.749 4.97623V4.54329L41.5634 4.35775H41.5016C41.5634 4.66699 41.4397 4.72884 41.3779 4.79069C41.3161 4.79069 41.3161 4.79069 41.2542 4.72884L41.1924 4.2959L40.945 4.1722H40.8831C41.0068 4.48144 40.945 4.54329 40.8213 4.60514H40.6976L40.5739 4.23405L40.3265 4.11035C40.3265 4.11035 40.2646 4.11035 40.2646 4.1722C40.4502 4.4196 40.3883 4.54329 40.2646 4.60514H40.1409L39.8935 4.23405L39.6461 4.1722C39.6461 4.1722 39.5843 4.1722 39.6461 4.23405C39.8317 4.48144 39.8317 4.60514 39.7698 4.66699H39.6461L39.3369 4.35775H39.0895C39.0895 4.35775 39.0277 4.35775 39.0895 4.41959C39.3369 4.60514 39.3369 4.79069 39.275 4.85253C39.2132 4.85253 39.2132 4.85254 39.1514 4.91438L38.8421 4.66699H38.5947C38.5947 4.66699 38.5329 4.72884 38.5947 4.72884C38.904 4.91438 38.904 5.03808 38.8421 5.09993C38.7803 5.09993 38.7803 5.16178 38.7184 5.16178L38.3473 4.97623L37.9762 5.09993C37.9762 5.09993 37.9144 5.16178 37.9762 5.16178C38.2855 5.28547 38.2855 5.40917 38.2855 5.53287L38.2236 5.59472L37.8525 5.47102L37.6051 5.59472V5.65657C37.9144 5.71841 37.9762 5.84211 37.9762 5.96581L37.9144 6.02766L37.4196 5.90396L37.1722 6.08951V6.15136H37.234C37.5433 6.15136 37.5433 6.27505 37.5433 6.39875C37.5433 6.4606 37.4814 6.4606 37.4814 6.52245H37.0485L36.863 6.70799V6.76984H37.0485C37.234 6.76984 37.2959 6.89354 37.2959 6.95539C37.2959 6.95539 37.2959 7.01723 37.234 7.07908L36.8011 7.14093L36.7393 7.26463V7.32648C36.863 7.26463 36.9248 7.26463 36.9867 7.26463C37.1104 7.26463 37.1722 7.32648 37.1722 7.38833V7.51202L36.7393 7.69757V7.94496C36.7393 7.94496 36.7393 8.00681 36.8011 8.00681C36.9248 7.94496 37.0485 7.88311 37.1103 7.88311C37.234 7.88311 37.234 7.94496 37.2959 8.00681V8.06866L36.9248 8.31605L36.863 8.56345C36.863 8.56345 36.863 8.6253 36.9248 8.56345C37.0485 8.43975 37.1722 8.43975 37.234 8.43975C37.2959 8.43975 37.3577 8.5016 37.3577 8.5016V8.56345L37.0485 8.87269V9.12008C37.0485 9.12008 37.0485 9.18193 37.1103 9.12008C37.234 8.99639 37.3577 8.93454 37.4196 8.93454C37.4814 8.93454 37.5433 8.99639 37.5433 8.99639C37.5433 8.99639 37.5433 9.05823 37.6051 9.05823L37.2959 9.42933V9.67672H37.3577C37.4814 9.49117 37.6051 9.42933 37.667 9.42933C37.7288 9.42933 37.7288 9.42933 37.7907 9.49117L37.8525 9.55302L37.667 9.92412L37.7288 10.1715H37.7907C37.8525 9.92412 37.9762 9.86227 38.0999 9.86227H38.1618L38.2236 9.92412L37.9762 10.4808L38.0999 10.7281H38.1618C38.2236 10.4189 38.3473 10.3571 38.4092 10.3571H38.471L38.5329 10.4189L38.4092 10.8518L38.5947 11.0992H38.7184C38.7184 10.79 38.8421 10.7281 38.9658 10.6663C38.9658 10.6663 39.0277 10.6663 39.0277 10.7281V11.1611L39.2132 11.3466H39.275C39.2132 11.0374 39.3369 10.9137 39.3987 10.9137H39.5224L39.5843 11.3466L39.8317 11.4703H39.8935C39.7698 11.1611 39.8935 11.0374 39.9554 11.0374H40.0791L40.2646 11.4703L40.512 11.594C40.512 11.594 40.5739 11.594 40.512 11.5322C40.3265 11.2229 40.4502 11.0992 40.512 11.0992H40.6357L40.8831 11.4703H41.0687C41.0687 11.4703 41.1305 11.4703 41.0687 11.4085C40.8831 11.1611 40.8831 11.0374 41.0068 10.9755H41.1305L41.4397 11.2848H41.6871C41.6871 11.2848 41.749 11.2848 41.6871 11.2229C41.4397 11.0374 41.4397 10.8518 41.5016 10.79C41.5634 10.79 41.5634 10.79 41.6253 10.7281L41.9345 10.9755H42.1819C42.1819 10.9755 42.2438 10.9755 42.1819 10.9137C41.9345 10.7281 41.9345 10.6044 41.9345 10.5426C41.9964 10.5426 41.9964 10.4808 42.0582 10.4808L42.4293 10.6663L42.6767 10.6044V10.5426C42.3675 10.4189 42.3675 10.2952 42.3675 10.2334L42.4912 10.1097L42.8623 10.2334L43.1097 10.1097V10.0478C42.8004 9.98596 42.7386 9.86227 42.7386 9.80042C42.8004 9.73857 42.8004 9.73857 42.8004 9.67672L43.1715 9.73857L43.4189 9.55302V9.49117H43.3571C43.1097 9.49117 43.0478 9.36748 43.0478 9.30563C43.0478 9.24378 43.1097 9.24378 43.1097 9.18193H43.5426L43.7281 8.99639V8.93454H43.5426C43.4189 8.93454 43.3571 8.87269 43.2952 8.81084C43.2952 8.74899 43.3571 8.68714 43.3571 8.68714L43.79 8.6253L44.0374 8.43975C44.0374 8.5016 44.0374 8.43975 44.0374 8.43975" fill="#000C2C"/>
<path d="M52.1395 32.1893C52.0776 32.1274 52.0776 32.1274 52.0158 32.1274H50.8407V32.6841H50.9025V33.4262H50.284V33.921H50.2222C50.2222 33.6118 50.1603 33.3644 49.9748 33.117V32.6841V32.6222V32.4985C49.9748 31.88 49.2326 31.1997 48.3667 30.6431C48.1812 30.2101 47.5627 29.9009 46.7587 29.9009C45.9546 29.9009 45.2743 30.2101 45.1506 30.6431C44.2847 31.1378 43.5425 31.8182 43.5425 32.4985V33.0552C43.357 33.3025 43.2952 33.6118 43.2952 33.8592H43.2333V33.3644H42.6148V33.8592H42.2437V33.1788C42.2437 33.1788 42.2437 33.117 42.1819 33.117V30.8286C42.1819 30.7049 42.0582 30.5812 41.9345 30.5812H41.8726C41.7489 30.5812 41.6252 30.7049 41.6252 30.8286V33.8592C41.5015 33.8592 41.4397 33.921 41.4397 34.0447C41.4397 34.1684 41.5015 34.2303 41.6252 34.2303V37.2609C41.6252 37.3845 41.7489 37.5082 41.8726 37.5082H41.9345C42.0582 37.5082 42.1819 37.3845 42.1819 37.2609V34.9725C42.2437 34.9725 42.2437 34.9725 42.2437 34.9106V34.354H42.6148V41.7139H43.2333V39.5493L44.6558 38.436H50.4077V39.1163C50.284 39.1163 50.1603 39.0545 50.0366 39.0545C49.1708 39.0545 48.4286 39.7966 48.4286 40.6625C48.4286 41.5284 49.1708 42.2706 50.0366 42.2706C50.9025 42.2706 51.6447 41.5284 51.6447 40.6625C51.6447 39.9822 51.2736 39.4256 50.6551 39.1782V38.436H50.7788V36.2094H54.0568H53.1291H54.1805V33.1788C54.1186 33.1788 52.1395 32.1893 52.1395 32.1893ZM46.6968 30.3338C47.439 30.3338 48.0575 30.6431 48.0575 31.0141C48.0575 31.3852 47.439 31.6945 46.6968 31.6945C45.9546 31.6945 45.3362 31.3852 45.3362 31.0141C45.3362 30.6431 45.9546 30.3338 46.6968 30.3338ZM50.284 37.8793H43.1096V34.354H43.2333C43.2952 34.5395 43.357 34.7251 43.4807 34.9106V35.2199C43.4807 36.2094 44.9032 37.2609 46.6968 37.2609C48.4904 37.2609 49.913 36.1476 49.913 35.2199V34.9106C50.0366 34.7251 50.0985 34.6014 50.1603 34.4158H50.284V37.8793V37.8793ZM50.0985 41.4047C49.7274 41.4047 49.48 41.0955 49.48 40.7862C49.48 40.4151 49.7893 40.1677 50.0985 40.1677C50.4696 40.1677 50.717 40.477 50.717 40.7862C50.717 41.0955 50.4077 41.4047 50.0985 41.4047Z" fill="#000C2C"/>
<path d="M46.9442 10.7275C46.3257 10.7275 45.7691 11.2223 45.7691 11.9027C45.7691 12.5211 46.2639 13.0778 46.9442 13.0778C47.5627 13.0778 48.1194 12.583 48.1194 11.9027C48.1194 11.2223 47.5627 10.7275 46.9442 10.7275Z" fill="#000C2C"/>
<path d="M49.1708 11.9036V11.4707L49.1089 11.2851L49.0471 11.0996L48.9852 10.9141L48.8615 10.7285L48.7378 10.543L48.6141 10.4193H48.5523L48.4905 10.2956V10.2337L48.3668 10.11H48.3049L48.1812 9.98632V9.92448L48.0575 9.86263H47.9957L47.872 9.80078L47.7483 9.73893L47.6246 9.67708L47.439 9.61523H46.5732L46.4495 9.67708V9.73893L46.3258 9.80078H46.2639L46.1402 9.86263V9.92448L46.0165 9.98632H45.9547L45.831 10.0482V10.11L45.7691 10.1719L45.7073 10.2337V10.2956L45.5836 10.4193H45.5217L45.398 10.543V10.6048L45.2743 10.7285H45.2125L45.0888 10.9141V10.9759L45.0269 11.1614H44.9651L44.7795 11.0996V11.347H44.7177L44.6558 11.5325V11.7181H44.594V12.151L44.6558 12.3366L44.7177 12.5221V12.584L44.7795 12.7077H44.8414L44.9032 12.8932L44.9651 13.0169H45.0269L45.1506 13.2024L45.2743 13.3261H45.3362L45.4599 13.4498V13.5117L45.6454 13.6354L45.831 13.7591V13.8209L46.0165 13.9446L46.2639 14.0065V14.0683L46.5113 14.1302H47.2535L47.5009 14.0683L47.6864 14.0065H47.7483L47.9338 13.9446L48.1194 13.8828H48.1812L48.3049 13.7591V13.6972L48.4286 13.5735L48.5523 13.4498V13.388L48.676 13.2643H48.7378L48.8615 13.1406V13.0788L48.9234 12.9551L48.9852 12.7695V12.7077L49.0471 12.5221H49.1089L49.1708 12.3366L49.2326 12.151L49.1708 11.9036V11.9036ZM46.9442 13.3261C46.1402 13.3261 45.5217 12.7077 45.5217 11.9036C45.5217 11.0996 46.1402 10.4811 46.9442 10.4811C47.7483 10.4811 48.3668 11.0996 48.3668 11.9036C48.3668 12.7077 47.7483 13.3261 46.9442 13.3261Z" fill="#000C2C"/>
<path d="M29.0082 4.2959H34.5127V7.38833H29.0082V4.2959Z" fill="#ED1C24"/>
<path d="M22.6996 4.2959H28.4515V7.38833H22.6996V4.2959Z" fill="#ED1C24"/>
<path d="M54.6134 26.5005C54.0568 25.6965 53.1909 25.6965 52.6342 26.5005C52.5105 26.7479 52.3868 26.9953 52.325 27.3045C51.8302 27.3045 51.3354 27.3664 50.8406 27.3664C50.7788 27.2427 50.7788 27.1808 50.7169 27.119C50.6551 26.9953 50.3458 26.5623 50.284 26.5623C50.2222 26.5623 49.7892 27.2427 49.6655 27.4282H49.1707L48.6141 26.6242C48.6141 26.6242 48.243 27.1808 48.0575 27.4282H47.439C47.3771 27.3045 47.1297 26.8716 47.006 26.686C47.006 26.686 46.6349 27.1808 46.5112 27.4282C46.0783 27.4901 46.0164 27.4901 46.0783 27.8611V28.0467C46.0164 28.4178 46.0783 28.4178 46.5731 28.4796C46.8205 28.4796 47.0679 28.4796 47.2534 28.5415L47.8101 29.2837C47.8719 29.16 48.243 28.5415 48.243 28.5415C48.243 28.5415 48.7996 28.6033 48.9233 28.6033C48.9852 28.7889 49.4181 29.4074 49.4181 29.4074C49.4181 29.4074 49.8511 28.8507 49.9748 28.6652H50.5932C50.7169 28.9126 51.088 29.5311 51.2117 29.5311C51.2736 29.4692 51.6447 28.9126 51.7684 28.727H52.325C52.325 28.7889 52.3869 28.7889 52.3869 28.8507C52.4487 29.0363 52.5105 29.2837 52.6342 29.4074C53.1909 30.2114 54.0568 30.2114 54.6134 29.4074C55.1082 28.6652 55.1082 27.3664 54.6134 26.5005V26.5005ZM54.366 28.2322H53.8094V29.0981C53.8094 29.2837 53.7475 29.4074 53.6238 29.4074C53.5001 29.4074 53.4383 29.2837 53.4383 29.0981V28.2322H52.8816C52.7579 28.2322 52.6961 28.1085 52.6961 27.923C52.6961 27.7375 52.7579 27.6138 52.8816 27.6138H53.4383V26.7479C53.4383 26.5623 53.5001 26.4386 53.6238 26.4386C53.7475 26.4386 53.8094 26.5623 53.8094 26.7479V27.6138H54.366C54.4897 27.6138 54.5515 27.7375 54.5515 27.923C54.6134 28.1085 54.4897 28.2322 54.366 28.2322Z" fill="#000C2C"/>
<path d="M19.3598 30.4577V30.334C19.3598 30.0866 19.298 29.3444 19.298 29.2207C19.298 28.9733 19.2361 28.8496 19.0506 28.8496H4.88724L5.25833 31.6328C5.25833 31.6328 4.14506 33.6119 4.02136 33.7356L4.20691 34.0449L4.33061 34.1686C4.51615 34.1067 4.76354 34.7252 4.88724 34.7252C5.01094 34.7252 4.94909 34.0449 5.13464 33.983C5.32018 33.9212 5.56758 34.5397 5.69127 34.5397C5.81497 34.5397 5.75312 33.8593 5.93867 33.7975C6.12421 33.7356 6.37161 34.3541 6.4953 34.3541C6.619 34.3541 6.55715 33.6738 6.7427 33.6119C6.92824 33.5501 7.17564 34.1686 7.29933 34.1686C7.42303 34.1686 7.36118 33.4883 7.54673 33.4264C7.73227 33.3646 7.97967 33.983 8.10337 33.983C8.22706 33.983 8.16521 33.3027 8.35076 33.2409C8.53631 33.179 8.7837 33.7975 8.9074 33.7975C9.03109 33.7975 8.96925 33.1172 9.15479 33.0553C9.34034 32.9935 9.58773 33.6119 9.71143 33.6119C9.83512 33.6119 9.77328 32.9316 9.95882 32.8698C10.1444 32.8079 10.3918 33.4264 10.5155 33.4264C10.5773 33.4264 10.5773 32.7461 10.7629 32.6842C10.9484 32.6224 11.1958 33.2409 11.3195 33.2409C11.4432 33.2409 11.3813 32.5605 11.5669 32.4987C11.7524 32.4987 11.9998 33.1172 12.0617 33.1172C12.1854 33.1172 12.1235 32.4368 12.3091 32.375C12.4946 32.3131 12.742 32.9316 12.8657 32.9316C12.9894 32.9316 12.9276 32.2513 13.1131 32.1894C13.2986 32.1276 13.546 32.7461 13.6697 32.7461C13.7934 32.7461 13.7316 32.0657 13.9171 32.0039C14.1027 31.942 14.3501 32.5605 14.4738 32.5605C14.5975 32.5605 14.5356 31.8802 14.7212 31.8183C14.9067 31.7565 15.1541 32.375 15.2778 32.375C15.4015 32.375 15.3396 31.6946 15.5252 31.6328C15.7107 31.5709 15.9581 32.1894 16.0818 32.1894C16.2055 32.1894 16.1437 31.5091 16.3292 31.4473C16.5148 31.3854 16.7622 32.0039 16.8859 32.0039C17.0096 32.0039 16.9477 31.3236 17.1333 31.2617C17.3188 31.1999 17.5662 31.8183 17.6899 31.8183C17.8136 31.8183 17.7517 31.138 17.9373 31.0762C18.1228 31.0143 18.3702 31.6328 18.4939 31.6328C18.6176 31.6328 18.5558 30.9525 18.7413 30.8906C18.9269 30.8288 19.1743 31.4473 19.298 31.4473C19.3598 31.4473 19.3598 30.9525 19.3598 30.4577V30.4577ZM18.5558 29.6536H18.1228C17.9991 29.6536 17.9373 29.5299 17.9373 29.4681C17.9373 29.3444 18.061 29.2826 18.1228 29.2826H18.5558C18.6795 29.2826 18.7413 29.4062 18.7413 29.4681C18.8032 29.5299 18.6795 29.6536 18.5558 29.6536Z" fill="#000C2C"/>
<path d="M26.5342 0.708984H32.2861V3.80141H26.5342V0.708984Z" fill="#ED1C24"/>
<path d="M185.732 16.542H186.969C187.65 16.542 188.33 16.7894 188.33 17.5934C188.33 18.0882 188.021 18.4593 187.526 18.583L188.516 20.191H187.712L186.846 18.6448H186.413V20.191H185.794V16.542H185.732ZM186.908 18.0882C187.279 18.0882 187.712 18.0263 187.712 17.5316C187.712 17.1605 187.341 17.0368 186.969 17.0368H186.413V18.0882H186.908Z" fill="#000C2C"/>
<path d="M186.969 21.4899C185.3 21.4899 183.939 20.1292 183.939 18.4593C183.939 16.7894 185.3 15.4287 186.969 15.4287C188.639 15.4287 190 16.7894 190 18.4593C190 20.1292 188.639 21.4899 186.969 21.4899ZM186.969 15.7998C185.547 15.7998 184.372 16.9749 184.372 18.3974C184.372 19.82 185.547 20.9951 186.969 20.9951C188.392 20.9951 189.567 19.82 189.567 18.3974C189.567 16.9749 188.392 15.7998 186.969 15.7998Z" fill="#000C2C"/>
</svg>
